SplineFontDB: 3.0
FontName: Peel
FullName: Peel
FamilyName: Peel Normal
Weight: Normal
Copyright: Vernon Adams
Version: 
FONDName: Peel Normal Normal
ItalicAngle: 0
UnderlinePosition: 0
UnderlineWidth: 0
Ascent: 1638
Descent: 410
UFOAscent: 1638
UFODescent: -410
LayerCount: 2
Layer: 0 0 "Back"  1
Layer: 1 0 "Fore"  0
NeedsXUIDChange: 1
FSType: 0
OS2Version: 0
OS2_WeightWidthSlopeOnly: 0
OS2_UseTypoMetrics: 0
CreationTime: 1334944501
ModificationTime: 1334944619
PfmFamily: 17
TTFWeight: 400
TTFWidth: 1
LineGap: 0
VLineGap: 0
Panose: 2 0 5 3 0 0 0 0 0 0
OS2TypoAscent: 1695
OS2TypoAOffset: 0
OS2TypoDescent: -482
OS2TypoDOffset: 0
OS2TypoLinegap: 0
OS2WinAscent: 1695
OS2WinAOffset: 0
OS2WinDescent: 482
OS2WinDOffset: 0
HheadAscent: 1695
HheadAOffset: 0
HheadDescent: -482
HheadDOffset: 0
OS2SubXSize: 1331
OS2SubYSize: 1433
OS2SubXOff: 0
OS2SubYOff: 286
OS2SupXSize: 1331
OS2SupYSize: 1433
OS2SupXOff: 0
OS2SupYOff: 983
OS2StrikeYSize: 102
OS2StrikeYPos: 530
OS2Vendor: 'newt'
OS2CodePages: 00000001.00000000
OS2UnicodeRanges: 8000006f.40000000.00000000.00000000
Lookup: 258 0 0 "'kern' Horizontal Kerning in Latin lookup 0"  {"'kern' Horizontal Kerning in Latin lookup 0 subtable"  "'kern' Horizontal Kerning lookup 1 kerning class 1"  } ['kern' ('DFLT' <'dflt' > 'latn' <'dflt' > ) ]
MarkAttachClasses: 1
DEI: 91125
KernClass2: 30 25 "'kern' Horizontal Kerning lookup 1 kerning class 1" 
 81 A Aacute Abreve Acircumflex Adieresis Agrave Amacron Aogonek Aring Atilde uni0202
 1 B
 75 D Eth O Oacute Ocircumflex Odieresis Ograve Oslash Otilde Q uni020C uni020E
 1 F
 1 K
 1 L
 1 P
 44 R Racute Rcaron Rcommaaccent uni0210 uni0212
 22 T Tcommaaccent uni021A
 45 U Uacute Ucircumflex Udieresis Ugrave uni0216
 1 V
 1 W
 18 Y Yacute Ydieresis
 1 a
 69 b o oacute ocircumflex odieresis ograve oslash otilde p thorn uni020F
 1 c
 1 e
 1 f
 24 h hbar m n nacute ntilde
 27 k kcommaaccent kgreenlandic
 1 l
 29 r rcaron rcommaaccent uni0213
 1 s
 22 t tcommaaccent uni021B
 1 v
 1 w
 1 x

StartChar: .notdef
Encoding: 65536 -1 0
Width: 1326
VWidth: 0
Flags: HW
LayerCount: 2
Fore
SplineSet
264 131 m 1
 1062 131 l 1
 1062 1283 l 1
 264 1283 l 1
 264 131 l 1
132 0 m 1
 132 1414 l 1
 1194 1414 l 1
 1194 0 l 1
 132 0 l 1
EndSplineSet
EndChar

StartChar: A
Encoding: 65 65 1
Width: 1527
VWidth: 0
Flags: HW
LayerCount: 2
Fore
SplineSet
817 1516 m 1
 1466 4 l 1
 1463 0 l 1
 1277 0 l 1
 1064 487 l 1
 460 487 l 1
 258 0 l 1
 60 0 l 1
 674 1516 l 1
 817 1516 l 1
988 662 m 1
 751 1265 l 1
 533 662 l 1
 988 662 l 1
EndSplineSet
EndChar

StartChar: AE
Encoding: 198 198 2
Width: 1642
VWidth: 0
Flags: HW
LayerCount: 2
Fore
SplineSet
811 662 m 1
 811 1265 l 1
 556 662 l 1
 811 662 l 1
1543 1516 m 1
 1543 1339 l 1
 1002 1339 l 1
 1002 856 l 1
 1529 856 l 1
 1529 682 l 1
 1002 682 l 1
 1002 177 l 1
 1555 177 l 1
 1555 0 l 1
 811 0 l 1
 811 487 l 1
 484 487 l 1
 264 0 l 1
 48 0 l 1
 731 1516 l 1
 1543 1516 l 1
EndSplineSet
EndChar

StartChar: Aacute
Encoding: 193 193 3
Width: 1527
VWidth: 0
Flags: HW
LayerCount: 2
Fore
SplineSet
621 1703 m 2
 718 2065 l 1
 736 2128 776 2152 816 2152 c 0
 861 2152 907 2118 907 2065 c 0
 907 2041 896 2011 873 1980 c 2
 652 1689 l 1
 643 1674 632 1668 628 1668 c 0
 621 1668 618 1674 618 1683 c 0
 618 1688 619 1696 621 1703 c 2
817 1515 m 1
 1466 2 l 1
 1463 0 l 1
 1277 0 l 1
 1064 487 l 1
 460 487 l 1
 258 0 l 1
 60 0 l 1
 674 1515 l 1
 817 1515 l 1
988 662 m 1
 751 1266 l 1
 533 662 l 1
 988 662 l 1
EndSplineSet
EndChar

StartChar: Abreve
Encoding: 258 258 4
Width: 1527
VWidth: 0
Flags: HW
LayerCount: 2
Fore
SplineSet
993 1907 m 1
 988 1747 874 1668 763 1668 c 0
 650 1668 537 1747 531 1907 c 1
 635 1907 l 1
 645 1825 703 1783 762 1783 c 0
 820 1783 880 1825 889 1907 c 1
 993 1907 l 1
817 1515 m 1
 1466 3 l 1
 1463 0 l 1
 1277 0 l 1
 1064 486 l 1
 460 486 l 1
 258 0 l 1
 60 0 l 1
 674 1515 l 1
 817 1515 l 1
988 662 m 1
 751 1265 l 1
 533 662 l 1
 988 662 l 1
EndSplineSet
EndChar

StartChar: Acircumflex
Encoding: 194 194 5
Width: 1527
VWidth: 0
Flags: HW
LayerCount: 2
Fore
SplineSet
763 1876 m 1
 468 1670 l 2
 465 1669 465 1669 464 1669 c 0
 462 1669 460 1670 460 1671 c 0
 460 1672 460 1674 461 1674 c 2
 726 2081 l 1
 734 2089 749 2096 763 2096 c 0
 777 2096 795 2089 802 2081 c 1
 1066 1674 l 1
 1066 1671 l 2
 1066 1670 1065 1669 1064 1669 c 0
 1063 1669 1062 1669 1059 1670 c 2
 763 1876 l 1
817 1516 m 1
 1466 3 l 1
 1463 0 l 1
 1277 0 l 1
 1064 487 l 1
 460 487 l 1
 258 0 l 1
 60 0 l 1
 674 1516 l 1
 817 1516 l 1
988 662 m 1
 751 1265 l 1
 533 662 l 1
 988 662 l 1
EndSplineSet
EndChar

StartChar: Adieresis
Encoding: 196 196 6
Width: 1527
VWidth: 0
Flags: HW
LayerCount: 2
Fore
SplineSet
833 1781 m 0
 833 1859 893 1901 950 1901 c 0
 1009 1901 1067 1859 1067 1781 c 0
 1067 1705 1009 1667 950 1667 c 0
 893 1667 833 1706 833 1781 c 0
458 1781 m 0
 458 1859 516 1901 574 1901 c 0
 632 1901 692 1859 692 1781 c 0
 692 1705 632 1667 574 1667 c 0
 516 1667 458 1706 458 1781 c 0
817 1516 m 1
 1466 2 l 1
 1463 0 l 1
 1277 0 l 1
 1064 487 l 1
 460 487 l 1
 258 0 l 1
 60 0 l 1
 674 1516 l 1
 817 1516 l 1
988 661 m 1
 751 1265 l 1
 533 661 l 1
 988 661 l 1
EndSplineSet
EndChar

StartChar: Agrave
Encoding: 192 192 7
Width: 1527
VWidth: 0
Flags: HW
LayerCount: 2
Fore
SplineSet
812 2078 m 1
 897 1701 l 1
 900 1694 900 1687 900 1682 c 0
 900 1673 896 1668 892 1668 c 0
 884 1668 874 1673 865 1687 c 2
 656 1994 l 1
 633 2022 623 2050 623 2075 c 0
 623 2128 670 2164 716 2164 c 0
 753 2164 792 2141 812 2078 c 1
817 1515 m 1
 1466 3 l 1
 1463 0 l 1
 1277 0 l 1
 1064 488 l 1
 460 488 l 1
 258 0 l 1
 60 0 l 1
 674 1515 l 1
 817 1515 l 1
988 662 m 1
 751 1266 l 1
 533 662 l 1
 988 662 l 1
EndSplineSet
EndChar

StartChar: Amacron
Encoding: 256 256 8
Width: 1527
VWidth: 0
Flags: HW
LayerCount: 2
Fore
SplineSet
505 1668 m 1
 505 1820 l 1
 1019 1820 l 1
 1019 1668 l 1
 505 1668 l 1
817 1516 m 1
 1466 3 l 1
 1463 0 l 1
 1277 0 l 1
 1064 487 l 1
 460 487 l 1
 258 0 l 1
 60 0 l 1
 674 1516 l 1
 817 1516 l 1
988 662 m 1
 751 1265 l 1
 533 662 l 1
 988 662 l 1
EndSplineSet
EndChar

StartChar: Aogonek
Encoding: 260 260 9
Width: 1527
VWidth: 0
Flags: HW
LayerCount: 2
Fore
SplineSet
817 1516 m 1
 1466 3 l 1
 1463 0 l 1
 1300.2131769 0 l 1
 1226.07105897 -26.5525660911 1189 -76.2020930059 1189 -123 c 0
 1189 -187 1252 -249 1376 -249 c 2
 1378 -249 l 1
 1347 -374 l 1
 1333 -377 1318 -378 1305 -378 c 0
 1163 -378 1069 -270 1069 -159 c 0
 1069 -58.2789970795 1131.29847896 38.8304998142 1255.89543689 48.2531560367 c 1
 1064 487 l 1
 460 487 l 1
 258 0 l 1
 60 0 l 1
 674 1516 l 1
 817 1516 l 1
988 662 m 1
 751 1266 l 1
 533 662 l 1
 988 662 l 1
EndSplineSet
EndChar

StartChar: Aring
Encoding: 197 197 10
Width: 1527
VWidth: 0
Flags: HW
LayerCount: 2
Fore
SplineSet
622 1721 m 0
 622 1646 687 1606 749 1606 c 0
 811 1606 870 1646 870 1721 c 0
 870 1798 810 1836 748 1836 c 0
 686 1836 622 1798 622 1721 c 0
985 1721 m 0
 985 1604.88922781 909.976921007 1535.58772714 818.46613527 1512.58202979 c 1
 1466 3 l 1
 1463 0 l 1
 1277 0 l 1
 1064 487 l 1
 460 487 l 1
 258 0 l 1
 60 0 l 1
 673.197463243 1514.01849231 l 1
 583.753553305 1538.69892195 510 1608.84735053 510 1723 c 0
 510 1865 629 1938 749 1938 c 0
 868 1938 985 1865 985 1721 c 0
988 662 m 1
 751 1266 l 1
 533 662 l 1
 988 662 l 1
EndSplineSet
EndChar

StartChar: Atilde
Encoding: 195 195 11
Width: 1527
VWidth: 0
Flags: HW
LayerCount: 2
Fore
SplineSet
534 1756 m 0
 479 1756 445 1711 429 1711 c 0
 421 1711 415 1717 415 1724 c 0
 415 1729 416 1733 421 1739 c 1
 473 1826 533 1884 626 1884 c 0
 751 1884 908 1796 992 1796 c 0
 1050 1796 1082 1841 1099 1841 c 0
 1107 1841 1111 1837 1111 1828 c 0
 1111 1824 1110 1821 1107 1813 c 1
 1049 1726 980 1668 880 1668 c 0
 788 1668 647 1756 534 1756 c 0
817 1515 m 1
 1466 3 l 1
 1463 0 l 1
 1277 0 l 1
 1064 488 l 1
 460 488 l 1
 258 0 l 1
 60 0 l 1
 674 1515 l 1
 817 1515 l 1
988 662 m 1
 751 1266 l 1
 533 662 l 1
 988 662 l 1
EndSplineSet
EndChar

StartChar: B
Encoding: 66 66 12
Width: 1192
VWidth: 0
Flags: HW
LayerCount: 2
Fore
SplineSet
319 1347 m 1
 319 860 l 1
 602 860 l 2
 750 860 832 990 832 1114 c 0
 832 1232 751 1347 580 1347 c 2
 319 1347 l 1
883 428 m 0
 883 547 816 705 632 705 c 2
 319 705 l 1
 319 173 l 1
 537 173 l 2
 690 173 883 201 883 428 c 0
129 0 m 1
 129 1516 l 1
 559 1516 l 2
 862 1516 1013 1318 1013 1119 c 0
 1013 998 941 860 797 817 c 1
 790 815 l 1
 797 812 l 1
 1054 735 1083 495 1083 428 c 0
 1083 142 911 0 550 0 c 2
 129 0 l 1
EndSplineSet
EndChar

StartChar: C
Encoding: 67 67 13
Width: 1511
VWidth: 0
Flags: HW
LayerCount: 2
Fore
SplineSet
920 1536 m 0
 1067 1536 1238 1498 1391 1433 c 1
 1391 1217 l 1
 1225 1303 1064 1351 922 1351 c 0
 604 1351 325 1127 325 756 c 0
 325 354 608 161 916 161 c 0
 1077 161 1254 217 1391 325 c 1
 1391 115 l 1
 1214 21 1060 -19 905 -19 c 0
 431 -19 106 327 106 759 c 0
 106 1239 481 1536 920 1536 c 0
EndSplineSet
EndChar

StartChar: Cacute
Encoding: 262 262 14
Width: 1511
VWidth: 0
Flags: HW
LayerCount: 2
Fore
SplineSet
603 1704 m 2
 699 2066 l 1
 717 2128 758 2153 797 2153 c 0
 843 2153 889 2119 889 2066 c 0
 889 2040 878 2011 854 1981 c 2
 632 1690 l 1
 624 1674 614 1668 607 1668 c 0
 603 1668 600 1674 600 1683 c 0
 600 1687 601 1696 603 1704 c 2
920 1536 m 0
 1067 1536 1238 1499 1391 1432 c 1
 1391 1216 l 1
 1225 1303 1064 1351 922 1351 c 0
 604 1351 325 1127 325 755 c 0
 325 353 608 161 916 161 c 0
 1077 161 1254 218 1391 325 c 1
 1391 114 l 1
 1214 21 1060 -20 905 -20 c 0
 431 -20 106 327 106 759 c 0
 106 1240 481 1536 920 1536 c 0
EndSplineSet
EndChar

StartChar: Ccaron
Encoding: 268 268 15
Width: 1511
VWidth: 0
Flags: HW
LayerCount: 2
Fore
SplineSet
743 1887 m 1
 1039 2093 l 1
 1040 2096 1040 2096 1041 2096 c 0
 1044 2096 1047 2093 1047 2092 c 0
 1047 2091 1047 2089 1044 2089 c 1
 778 1684 l 1
 773 1674 754 1667 743 1667 c 0
 727 1667 711 1674 705 1684 c 2
 441 2089 l 1
 441 2092 l 2
 441 2093 442 2096 443 2096 c 0
 444 2096 446 2096 447 2093 c 1
 743 1887 l 1
920 1536 m 0
 1067 1536 1238 1498 1391 1433 c 1
 1391 1215 l 1
 1225 1303 1064 1350 922 1350 c 0
 604 1350 325 1126 325 754 c 0
 325 354 608 160 916 160 c 0
 1077 160 1254 218 1391 325 c 1
 1391 115 l 1
 1214 20 1060 -19 905 -19 c 0
 431 -19 106 328 106 759 c 0
 106 1239 481 1536 920 1536 c 0
EndSplineSet
EndChar

StartChar: Ccedilla
Encoding: 199 199 16
Width: 1511
VWidth: 0
Flags: HW
LayerCount: 2
Fore
SplineSet
535 -399 m 1
 532 -396 523 -388 523 -385 c 0
 523 -382 529 -379 536 -379 c 0
 563 -379 628 -397 690 -397 c 0
 748 -397 802 -382 802 -327 c 0
 802 -252 644 -260 618 -260 c 1
 705 -4 l 1
 743.862241151 -4 l 1
 358.888816332 64.7745542098 106 378.928141406 106 760 c 0
 106 1239 481 1537 920 1537 c 0
 1067 1537 1238 1499 1391 1432 c 1
 1391 1215 l 1
 1225 1303 1064 1351 922 1351 c 0
 604 1351 325 1126 325 754 c 0
 325 354 608 160 916 160 c 0
 1077 160 1254 218 1391 326 c 1
 1391 116 l 1
 1214 21 1060 -18 905 -18 c 0
 861.449268006 -18 819.156361826 -15.0791427434 778.257791317 -9.43909052262 c 1
 739 -132 l 1
 857 -132 934 -200 934 -292 c 0
 934 -405 832 -445 727 -445 c 0
 653 -445 578 -425 535 -399 c 1
EndSplineSet
EndChar

StartChar: Ccircumflex
Encoding: 264 264 17
Width: 1511
VWidth: 0
Flags: HW
LayerCount: 2
Fore
SplineSet
744 1874 m 1
 447 1669 l 1
 446 1667 446 1667 445 1667 c 0
 443 1667 441 1669 441 1671 c 0
 441 1672 441 1673 442 1673 c 2
 707 2080 l 2
 713 2088 729 2096 744 2096 c 0
 758 2096 775 2088 781 2080 c 2
 1047 1673 l 1
 1047 1671 l 2
 1047 1669 1044 1667 1042 1667 c 0
 1041 1667 1040 1667 1039 1669 c 1
 744 1874 l 1
920 1536 m 0
 1067 1536 1238 1498 1391 1433 c 1
 1391 1215 l 1
 1225 1303 1064 1350 922 1350 c 0
 604 1350 325 1126 325 754 c 0
 325 354 608 160 916 160 c 0
 1077 160 1254 218 1391 325 c 1
 1391 115 l 1
 1214 20 1060 -19 905 -19 c 0
 431 -19 106 328 106 759 c 0
 106 1239 481 1536 920 1536 c 0
EndSplineSet
EndChar

StartChar: Cdotaccent
Encoding: 266 266 18
Width: 1511
VWidth: 0
Flags: HW
LayerCount: 2
Fore
SplineSet
614 1794 m 0
 614 1884 678 1928 744 1928 c 0
 807 1928 872 1883 872 1794 c 0
 872 1708 807 1668 744 1668 c 0
 678 1668 614 1708 614 1794 c 0
920 1535 m 0
 1067 1535 1238 1498 1391 1431 c 1
 1391 1216 l 1
 1225 1302 1064 1351 922 1351 c 0
 604 1351 325 1126 325 755 c 0
 325 352 608 160 916 160 c 0
 1077 160 1254 217 1391 324 c 1
 1391 115 l 1
 1214 20 1060 -20 905 -20 c 0
 431 -20 106 326 106 758 c 0
 106 1240 481 1535 920 1535 c 0
EndSplineSet
EndChar

StartChar: D
Encoding: 68 68 19
Width: 1557
VWidth: 0
Flags: HW
LayerCount: 2
Fore
SplineSet
319 1337 m 1
 319 177 l 1
 664 177 l 2
 1007 177 1242 373 1242 760 c 0
 1242 1198 1007 1337 713 1337 c 2
 319 1337 l 1
706 0 m 2
 128 0 l 1
 128 1516 l 1
 739 1516 l 2
 1204 1516 1452 1207 1452 763 c 0
 1452 357 1183 0 706 0 c 2
EndSplineSet
EndChar

StartChar: Dcaron
Encoding: 270 270 20
Width: 1557
VWidth: 0
Flags: HW
LayerCount: 2
Fore
SplineSet
788 1889 m 1
 1085 2095 l 2
 1086 2096 1086 2096 1089 2096 c 0
 1091 2096 1092 2095 1092 2094 c 0
 1092 2093 1092 2091 1091 2091 c 2
 825 1684 l 2
 818 1675 802 1669 788 1669 c 0
 774 1669 758 1675 751 1684 c 2
 486 2091 l 1
 486 2094 l 2
 486 2095 487 2096 488 2096 c 0
 489 2096 491 2096 492 2095 c 2
 788 1889 l 1
319 1337 m 1
 319 177 l 1
 664 177 l 2
 1007 177 1242 374 1242 761 c 0
 1242 1199 1007 1337 713 1337 c 2
 319 1337 l 1
706 0 m 2
 128 0 l 1
 128 1516 l 1
 739 1516 l 2
 1204 1516 1452 1207 1452 764 c 0
 1452 356 1183 0 706 0 c 2
EndSplineSet
EndChar

StartChar: Dcroat
Encoding: 272 272 21
Width: 1553
VWidth: 0
Flags: HW
LayerCount: 2
Fore
SplineSet
318 1337 m 1
 318 829 l 1
 618 829 l 1
 618 681 l 1
 318 681 l 1
 318 177 l 1
 663 177 l 2
 1006 177 1242 373 1242 760 c 0
 1242 1198 1006 1337 711 1337 c 2
 318 1337 l 1
704 0 m 2
 127 0 l 1
 127 681 l 1
 0 681 l 1
 0 829 l 1
 127 829 l 1
 127 1516 l 1
 738 1516 l 2
 1202 1516 1450 1207 1450 763 c 0
 1450 357 1183 0 704 0 c 2
EndSplineSet
EndChar

StartChar: E
Encoding: 69 69 22
Width: 1060
VWidth: 0
Flags: HW
LayerCount: 2
Fore
SplineSet
960 1516 m 1
 960 1339 l 1
 319 1339 l 1
 319 856 l 1
 946 856 l 1
 946 682 l 1
 319 682 l 1
 319 177 l 1
 973 177 l 1
 973 0 l 1
 128 0 l 1
 128 1516 l 1
 960 1516 l 1
EndSplineSet
EndChar

StartChar: Eacute
Encoding: 201 201 23
Width: 1060
VWidth: 0
Flags: HW
LayerCount: 2
Fore
SplineSet
404 1703 m 2
 499 2065 l 1
 518 2128 556 2152 598 2152 c 0
 643 2152 688 2118 688 2065 c 0
 688 2041 679 2011 655 1980 c 2
 433 1689 l 1
 424 1674 415 1668 408 1668 c 0
 404 1668 401 1674 401 1683 c 0
 401 1688 402 1696 404 1703 c 2
960 1515 m 1
 960 1339 l 1
 319 1339 l 1
 319 856 l 1
 946 856 l 1
 946 680 l 1
 319 680 l 1
 319 176 l 1
 973 176 l 1
 973 0 l 1
 128 0 l 1
 128 1515 l 1
 960 1515 l 1
EndSplineSet
EndChar

StartChar: Ecaron
Encoding: 282 282 24
Width: 1060
VWidth: 0
Flags: HW
LayerCount: 2
Fore
SplineSet
541 1889 m 1
 840 2095 l 2
 841 2096 841 2096 842 2096 c 0
 844 2096 846 2095 846 2094 c 0
 846 2093 846 2091 844 2091 c 1
 579 1684 l 2
 574 1675 555 1669 541 1669 c 0
 527 1669 512 1675 506 1684 c 2
 239 2091 l 1
 239 2094 l 2
 239 2095 243 2096 244 2096 c 0
 245 2096 247 2096 248 2095 c 2
 541 1889 l 1
960 1516 m 1
 960 1339 l 1
 319 1339 l 1
 319 856 l 1
 946 856 l 1
 946 682 l 1
 319 682 l 1
 319 177 l 1
 973 177 l 1
 973 0 l 1
 128 0 l 1
 128 1516 l 1
 960 1516 l 1
EndSplineSet
EndChar

StartChar: Ecircumflex
Encoding: 202 202 25
Width: 1060
VWidth: 0
Flags: HW
LayerCount: 2
Fore
SplineSet
545 1876 m 1
 248 1670 l 2
 247 1669 247 1669 246 1669 c 0
 244 1669 239 1670 239 1671 c 0
 239 1672 239 1674 243 1674 c 1
 507 2081 l 2
 513 2089 529 2096 545 2096 c 0
 556 2096 576 2089 582 2081 c 2
 846 1674 l 1
 846 1671 l 2
 846 1670 844 1669 843 1669 c 0
 842 1669 841 1669 840 1670 c 2
 545 1876 l 1
960 1516 m 1
 960 1339 l 1
 319 1339 l 1
 319 856 l 1
 946 856 l 1
 946 682 l 1
 319 682 l 1
 319 177 l 1
 973 177 l 1
 973 0 l 1
 128 0 l 1
 128 1516 l 1
 960 1516 l 1
EndSplineSet
EndChar

StartChar: Edieresis
Encoding: 203 203 26
Width: 1060
VWidth: 0
Flags: HW
LayerCount: 2
Fore
SplineSet
614 1781 m 0
 614 1859 674 1901 733 1901 c 0
 791 1901 850 1859 850 1781 c 0
 850 1705 791 1667 733 1667 c 0
 674 1667 614 1706 614 1781 c 0
238 1781 m 0
 238 1859 297 1901 355 1901 c 0
 415 1901 474 1859 474 1781 c 0
 474 1705 415 1667 355 1667 c 0
 297 1667 238 1706 238 1781 c 0
960 1516 m 1
 960 1338 l 1
 319 1338 l 1
 319 857 l 1
 946 857 l 1
 946 682 l 1
 319 682 l 1
 319 175 l 1
 973 175 l 1
 973 0 l 1
 128 0 l 1
 128 1516 l 1
 960 1516 l 1
EndSplineSet
EndChar

StartChar: Edotaccent
Encoding: 278 278 27
Width: 1060
VWidth: 0
Flags: HW
LayerCount: 2
Fore
SplineSet
415 1796 m 0
 415 1885 479 1929 545 1929 c 0
 608 1929 673 1884 673 1796 c 0
 673 1710 608 1668 545 1668 c 0
 479 1668 415 1710 415 1796 c 0
960 1515 m 1
 960 1339 l 1
 319 1339 l 1
 319 856 l 1
 946 856 l 1
 946 682 l 1
 319 682 l 1
 319 176 l 1
 973 176 l 1
 973 0 l 1
 128 0 l 1
 128 1515 l 1
 960 1515 l 1
EndSplineSet
EndChar

StartChar: Egrave
Encoding: 200 200 28
Width: 1060
VWidth: 0
Flags: HW
LayerCount: 2
Fore
SplineSet
594 2078 m 1
 680 1701 l 2
 682 1694 682 1687 682 1682 c 0
 682 1673 679 1668 673 1668 c 0
 667 1668 656 1673 647 1687 c 2
 437 1994 l 1
 416 2022 406 2050 406 2075 c 0
 406 2128 451 2164 498 2164 c 0
 536 2164 575 2141 594 2078 c 1
960 1515 m 1
 960 1339 l 1
 319 1339 l 1
 319 856 l 1
 946 856 l 1
 946 682 l 1
 319 682 l 1
 319 176 l 1
 973 176 l 1
 973 0 l 1
 128 0 l 1
 128 1515 l 1
 960 1515 l 1
EndSplineSet
EndChar

StartChar: Emacron
Encoding: 274 274 29
Width: 1060
VWidth: 0
Flags: HW
LayerCount: 2
Fore
SplineSet
287 1668 m 1
 287 1820 l 1
 801 1820 l 1
 801 1668 l 1
 287 1668 l 1
960 1516 m 1
 960 1338 l 1
 319 1338 l 1
 319 857 l 1
 946 857 l 1
 946 682 l 1
 319 682 l 1
 319 177 l 1
 973 177 l 1
 973 0 l 1
 128 0 l 1
 128 1516 l 1
 960 1516 l 1
EndSplineSet
EndChar

StartChar: Eogonek
Encoding: 280 280 30
Width: 1060
VWidth: 0
Flags: HW
LayerCount: 2
Fore
SplineSet
960 1516 m 1
 960 1340 l 1
 319 1340 l 1
 319 856 l 1
 946 856 l 1
 946 682 l 1
 319 682 l 1
 319 177 l 1
 973 177 l 1
 973 0 l 1
 554.255319149 0 l 1
 574 -32 l 1
 497 -57 456 -109 456 -158 c 0
 456 -222 521 -282 643 -282 c 2
 645 -282 l 1
 614 -408 l 1
 600 -410 585 -412 572 -412 c 0
 431 -412 337 -304 337 -192 c 0
 337 -111.164382371 377.895546335 -32.1068319736 460.142928412 0 c 1
 128 0 l 1
 128 1516 l 1
 960 1516 l 1
EndSplineSet
EndChar

StartChar: Eth
Encoding: 208 208 31
Width: 1564
VWidth: 0
Flags: HW
LayerCount: 2
Fore
SplineSet
128 0 m 1
 128 708 l 1
 39 708 l 1
 39 861 l 1
 128 861 l 1
 128 1520 l 1
 745 1520 l 2
 1212 1520 1461 1211 1461 767 c 0
 1461 358 1194 0 710 0 c 2
 128 0 l 1
341 708 m 1
 341 181 l 1
 667 181 l 2
 1012 181 1248 377 1248 763 c 0
 1248 1199 1013 1337 716 1337 c 2
 341 1337 l 1
 341 861 l 1
 553 861 l 1
 553 708 l 1
 341 708 l 1
EndSplineSet
EndChar

StartChar: F
Encoding: 70 70 32
Width: 1045
VWidth: 0
Flags: HW
LayerCount: 2
Fore
SplineSet
961 1516 m 1
 961 1339 l 1
 319 1339 l 1
 319 847 l 1
 942 847 l 1
 942 673 l 1
 319 673 l 1
 319 0 l 1
 128 0 l 1
 128 1516 l 1
 961 1516 l 1
EndSplineSet
EndChar

StartChar: G
Encoding: 71 71 33
Width: 1543
VWidth: 0
Flags: HW
LayerCount: 2
Fore
SplineSet
921 1536 m 0
 1077 1536 1235 1496 1386 1409 c 1
 1386 1242 l 1
 1238 1333 1081 1376 936 1376 c 0
 592 1376 303 1134 303 731 c 0
 303 411 531 145 886 145 c 0
 989 145 1105 168 1227 219 c 1
 1228 219 l 1
 1228 557 l 1
 953 557 l 1
 953 731 l 1
 1421 731 l 1
 1421 106 l 1
 1210 17 1027 -19 870 -19 c 0
 347 -19 106 391 106 733 c 0
 106 1206 468 1536 921 1536 c 0
EndSplineSet
EndChar

StartChar: Gbreve
Encoding: 286 286 34
Width: 1543
VWidth: 0
Flags: HW
LayerCount: 2
Fore
SplineSet
990 1907 m 1
 983 1748 870 1669 760 1669 c 0
 646 1669 534 1748 528 1907 c 1
 632 1907 l 1
 641 1826 700 1783 759 1783 c 0
 816 1783 876 1826 884 1907 c 1
 990 1907 l 1
921 1537 m 0
 1077 1537 1235 1496 1386 1409 c 1
 1386 1240 l 1
 1238 1333 1081 1377 936 1377 c 0
 592 1377 303 1135 303 731 c 0
 303 411 531 145 886 145 c 0
 989 145 1105 169 1227 219 c 1
 1228 219 l 1
 1228 558 l 1
 953 558 l 1
 953 731 l 1
 1421 731 l 1
 1421 105 l 1
 1210 17 1027 -19 870 -19 c 0
 347 -19 106 391 106 733 c 0
 106 1207 468 1537 921 1537 c 0
EndSplineSet
EndChar

StartChar: Gcircumflex
Encoding: 284 284 35
Width: 1543
VWidth: 0
Flags: HW
LayerCount: 2
Fore
SplineSet
759 1874 m 1
 462 1669 l 1
 461 1667 461 1667 460 1667 c 0
 458 1667 456 1669 456 1671 c 0
 456 1672 456 1673 457 1673 c 2
 722 2080 l 2
 728 2088 744 2096 759 2096 c 0
 773 2096 790 2088 796 2080 c 2
 1062 1673 l 1
 1062 1671 l 2
 1062 1669 1059 1667 1057 1667 c 0
 1056 1667 1055 1667 1054 1669 c 1
 759 1874 l 1
921 1536 m 0
 1077 1536 1235 1495 1386 1409 c 1
 1386 1240 l 1
 1238 1333 1081 1375 936 1375 c 0
 592 1375 303 1134 303 730 c 0
 303 409 531 145 886 145 c 0
 989 145 1105 169 1227 219 c 1
 1228 219 l 1
 1228 557 l 1
 953 557 l 1
 953 730 l 1
 1421 730 l 1
 1421 104 l 1
 1210 16 1027 -19 870 -19 c 0
 347 -19 106 391 106 733 c 0
 106 1205 468 1536 921 1536 c 0
EndSplineSet
EndChar

StartChar: Gcommaaccent
Encoding: 290 290 36
Width: 1543
VWidth: 0
Flags: HW
LayerCount: 2
Fore
SplineSet
658 -623 m 1
 634 -598 l 1
 695 -543 720 -491 720 -412 c 1
 651 -392 620 -340 620 -290 c 0
 620 -199 686 -150 752 -150 c 0
 822 -150 895 -197 895 -296 c 0
 895 -431 763 -623 658 -623 c 1
921 1537 m 0
 1077 1537 1235 1497 1386 1410 c 1
 1386 1242 l 1
 1238 1333 1081 1377 936 1377 c 0
 592 1377 303 1135 303 732 c 0
 303 412 531 145 886 145 c 0
 989 145 1105 169 1227 220 c 1
 1228 220 l 1
 1228 558 l 1
 953 558 l 1
 953 732 l 1
 1421 732 l 1
 1421 106 l 1
 1210 18 1027 -18 870 -18 c 0
 347 -18 106 392 106 734 c 0
 106 1207 468 1537 921 1537 c 0
EndSplineSet
EndChar

StartChar: Gdotaccent
Encoding: 288 288 37
Width: 1543
VWidth: 0
Flags: HW
LayerCount: 2
Fore
SplineSet
629 1794 m 0
 629 1884 693 1928 759 1928 c 0
 822 1928 887 1883 887 1794 c 0
 887 1708 822 1668 759 1668 c 0
 693 1668 629 1708 629 1794 c 0
921 1535 m 0
 1077 1535 1235 1496 1386 1409 c 1
 1386 1241 l 1
 1238 1332 1081 1375 936 1375 c 0
 592 1375 303 1135 303 729 c 0
 303 410 531 145 886 145 c 0
 989 145 1105 167 1227 218 c 1
 1228 218 l 1
 1228 556 l 1
 953 556 l 1
 953 729 l 1
 1421 729 l 1
 1421 105 l 1
 1210 17 1027 -20 870 -20 c 0
 347 -20 106 390 106 733 c 0
 106 1205 468 1535 921 1535 c 0
EndSplineSet
EndChar

StartChar: H
Encoding: 72 72 38
Width: 1486
VWidth: 0
Flags: HW
LayerCount: 2
Fore
SplineSet
320 0 m 1
 127 0 l 1
 127 1516 l 1
 320 1516 l 1
 320 854 l 1
 1166 854 l 1
 1166 1516 l 1
 1359 1516 l 1
 1359 0 l 1
 1166 0 l 1
 1166 687 l 1
 320 687 l 1
 320 0 l 1
EndSplineSet
EndChar

StartChar: Hbar
Encoding: 294 294 39
Width: 1480
VWidth: 0
Flags: HW
LayerCount: 2
Fore
SplineSet
317 1119 m 1
 317 854 l 1
 1163 854 l 1
 1163 1119 l 1
 317 1119 l 1
317 0 m 1
 124 0 l 1
 124 1119 l 1
 0 1119 l 1
 0 1262 l 1
 124 1262 l 1
 124 1516 l 1
 317 1516 l 1
 317 1262 l 1
 1163 1262 l 1
 1163 1516 l 1
 1356 1516 l 1
 1356 1262 l 1
 1480 1262 l 1
 1480 1119 l 1
 1356 1119 l 1
 1356 0 l 1
 1163 0 l 1
 1163 687 l 1
 317 687 l 1
 317 0 l 1
EndSplineSet
EndChar

StartChar: Hcircumflex
Encoding: 292 292 40
Width: 1486
VWidth: 0
Flags: HW
LayerCount: 2
Fore
SplineSet
741 1876 m 1
 444 1670 l 2
 443 1669 443 1669 442 1669 c 0
 440 1669 438 1670 438 1671 c 0
 438 1672 438 1674 439 1674 c 2
 704 2081 l 1
 711 2089 727 2096 741 2096 c 0
 755 2096 772 2089 780 2081 c 1
 1044 1674 l 1
 1044 1671 l 2
 1044 1670 1043 1669 1042 1669 c 0
 1039 1669 1038 1669 1036 1670 c 2
 741 1876 l 1
320 0 m 1
 127 0 l 1
 127 1516 l 1
 320 1516 l 1
 320 854 l 1
 1166 854 l 1
 1166 1516 l 1
 1359 1516 l 1
 1359 0 l 1
 1166 0 l 1
 1166 686 l 1
 320 686 l 1
 320 0 l 1
EndSplineSet
EndChar

StartChar: I
Encoding: 73 73 41
Width: 428
VWidth: 0
Flags: HW
LayerCount: 2
Fore
SplineSet
311 1516 m 1
 311 0 l 1
 120 0 l 1
 120 1516 l 1
 311 1516 l 1
EndSplineSet
EndChar

StartChar: IJ
Encoding: 306 306 42
Width: 1036
VWidth: 0
Flags: HW
LayerCount: 2
Fore
SplineSet
272 1514 m 1
 463 1514 l 1
 463 -44 l 2
 463 -289 328 -393 8 -394 c 1
 8 -240 l 1
 241 -240 272 -177 272 23 c 2
 272 1514 l 1
919 1514 m 1
 919 0 l 1
 727 0 l 1
 727 1514 l 1
 919 1514 l 1
EndSplineSet
EndChar

StartChar: Iacute
Encoding: 205 205 43
Width: 429
VWidth: 0
Flags: HW
LayerCount: 2
Fore
SplineSet
73 1703 m 2
 170 2065 l 1
 188 2128 228 2152 268 2152 c 0
 313 2152 359 2118 359 2065 c 0
 359 2041 348 2011 325 1980 c 2
 104 1689 l 1
 95 1674 84 1668 80 1668 c 0
 73 1668 70 1674 70 1683 c 0
 70 1688 71 1696 73 1703 c 2
311 1515 m 1
 311 0 l 1
 119 0 l 1
 119 1515 l 1
 311 1515 l 1
EndSplineSet
EndChar

StartChar: Ibreve
Encoding: 300 300 44
Width: 429
VWidth: 0
Flags: HW
LayerCount: 2
Fore
SplineSet
446 1907 m 1
 440 1747 327 1668 215 1668 c 0
 102 1668 -11 1747 -17 1907 c 1
 88 1907 l 1
 97 1825 156 1783 214 1783 c 0
 272 1783 332 1825 341 1907 c 1
 446 1907 l 1
311 1515 m 1
 311 0 l 1
 119 0 l 1
 119 1515 l 1
 311 1515 l 1
EndSplineSet
EndChar

StartChar: Icircumflex
Encoding: 206 206 45
Width: 429
VWidth: 0
Flags: HW
LayerCount: 2
Fore
SplineSet
215 1876 m 1
 -80 1670 l 2
 -83 1669 -83 1669 -84 1669 c 0
 -86 1669 -88 1670 -88 1671 c 0
 -88 1672 -88 1674 -87 1674 c 2
 178 2081 l 1
 186 2089 201 2096 215 2096 c 0
 229 2096 247 2089 254 2081 c 1
 518 1674 l 1
 518 1671 l 2
 518 1670 517 1669 516 1669 c 0
 515 1669 514 1669 511 1670 c 2
 215 1876 l 1
311 1516 m 1
 311 0 l 1
 119 0 l 1
 119 1516 l 1
 311 1516 l 1
EndSplineSet
EndChar

StartChar: Idieresis
Encoding: 207 207 46
Width: 429
VWidth: 0
Flags: HW
LayerCount: 2
Fore
SplineSet
285 1781 m 0
 285 1859 345 1901 403 1901 c 0
 461 1901 519 1859 519 1781 c 0
 519 1705 461 1667 403 1667 c 0
 345 1667 285 1706 285 1781 c 0
-90 1781 m 0
 -90 1859 -32 1901 26 1901 c 0
 84 1901 144 1859 144 1781 c 0
 144 1705 84 1667 26 1667 c 0
 -32 1667 -90 1706 -90 1781 c 0
311 1516 m 1
 311 0 l 1
 119 0 l 1
 119 1516 l 1
 311 1516 l 1
EndSplineSet
EndChar

StartChar: Idotaccent
Encoding: 304 304 47
Width: 428
VWidth: 0
Flags: HW
LayerCount: 2
Fore
SplineSet
86 1796 m 0
 86 1885 150 1929 214 1929 c 0
 279 1929 344 1884 344 1796 c 0
 344 1710 279 1668 214 1668 c 0
 150 1668 86 1710 86 1796 c 0
310 1515 m 1
 310 0 l 1
 118 0 l 1
 118 1515 l 1
 310 1515 l 1
EndSplineSet
EndChar

StartChar: Igrave
Encoding: 204 204 48
Width: 429
VWidth: 0
Flags: HW
LayerCount: 2
Fore
SplineSet
264 2078 m 1
 350 1701 l 2
 352 1694 352 1687 352 1682 c 0
 352 1673 349 1668 344 1668 c 0
 337 1668 327 1673 318 1687 c 2
 108 1994 l 1
 86 2022 76 2050 76 2075 c 0
 76 2128 122 2164 169 2164 c 0
 206 2164 245 2141 264 2078 c 1
312 1515 m 1
 312 0 l 1
 119 0 l 1
 119 1515 l 1
 312 1515 l 1
EndSplineSet
EndChar

StartChar: Imacron
Encoding: 298 298 49
Width: 429
VWidth: 0
Flags: HW
LayerCount: 2
Fore
SplineSet
-42 1668 m 1
 -42 1820 l 1
 471 1820 l 1
 471 1668 l 1
 -42 1668 l 1
311 1516 m 1
 311 0 l 1
 119 0 l 1
 119 1516 l 1
 311 1516 l 1
EndSplineSet
EndChar

StartChar: Iogonek
Encoding: 302 302 50
Width: 429
VWidth: 0
Flags: HW
LayerCount: 2
Fore
SplineSet
311 1516 m 1
 311 0 l 1
 223.893617021 0 l 1
 245 -32 l 1
 169 -57 128 -109 128 -158 c 0
 128 -222 193 -282 315 -282 c 2
 316 -282 l 1
 286 -408 l 1
 272 -410 256 -412 243 -412 c 0
 102 -412 9 -304 9 -192 c 0
 9 -111.164382371 49.8955463353 -32.1068319736 130.774060194 -8.881784197e-16 c 1
 120 0 l 1
 120 1516 l 1
 311 1516 l 1
EndSplineSet
EndChar

StartChar: Itilde
Encoding: 296 296 51
Width: 429
VWidth: 0
Flags: HW
LayerCount: 2
Fore
SplineSet
-14 1756 m 0
 -69 1756 -103 1711 -119 1711 c 0
 -127 1711 -133 1717 -133 1724 c 0
 -133 1729 -132 1733 -127 1739 c 1
 -75 1826 -15 1884 78 1884 c 0
 203 1884 360 1796 444 1796 c 0
 502 1796 534 1841 551 1841 c 0
 559 1841 563 1837 563 1828 c 0
 563 1824 562 1821 559 1813 c 1
 501 1726 432 1668 332 1668 c 0
 240 1668 99 1756 -14 1756 c 0
311 1515 m 1
 311 0 l 1
 119 0 l 1
 119 1515 l 1
 311 1515 l 1
EndSplineSet
EndChar

StartChar: J
Encoding: 74 74 52
Width: 607
VWidth: 0
Flags: HW
LayerCount: 2
Fore
SplineSet
272 1514 m 1
 463 1514 l 1
 463 -44 l 2
 463 -289 327 -393 7 -394 c 1
 7 -240 l 1
 239 -240 272 -177 272 23 c 2
 272 1514 l 1
EndSplineSet
EndChar

StartChar: Jcircumflex
Encoding: 308 308 53
Width: 607
VWidth: 0
Flags: HW
LayerCount: 2
Fore
SplineSet
235 1875 m 1
 -60 1670 l 2
 -63 1669 -63 1669 -64 1669 c 0
 -66 1669 -68 1670 -68 1671 c 0
 -68 1672 -68 1673 -67 1673 c 2
 198 2081 l 1
 206 2090 221 2096 235 2096 c 0
 249 2096 267 2090 274 2081 c 2
 538 1673 l 1
 538 1671 l 2
 538 1670 537 1669 536 1669 c 0
 535 1669 534 1669 531 1670 c 2
 235 1875 l 1
272 1515 m 1
 463 1515 l 1
 463 -42 l 2
 463 -289 327 -391 7 -392 c 1
 7 -239 l 1
 239 -239 272 -175 272 24 c 2
 272 1515 l 1
EndSplineSet
EndChar

StartChar: K
Encoding: 75 75 54
Width: 1326
VWidth: 0
Flags: HW
LayerCount: 2
Fore
SplineSet
320 742 m 1
 320 0 l 1
 128 0 l 1
 128 1516 l 1
 320 1516 l 1
 320 824 l 1
 933 1516 l 1
 1168 1516 l 1
 1168 1506 l 1
 546 789 l 1
 1260 8 l 1
 1260 0 l 1
 1001 0 l 1
 320 742 l 1
EndSplineSet
EndChar

StartChar: Kcommaaccent
Encoding: 310 310 55
Width: 1326
VWidth: 0
Flags: HW
LayerCount: 2
Fore
SplineSet
592 -604 m 1
 568 -578 l 1
 629 -523 654 -471 654 -392 c 1
 585 -374 553 -321 553 -269 c 0
 553 -178 619 -132 685 -132 c 0
 756 -132 828 -177 828 -278 c 0
 828 -412 696 -604 592 -604 c 1
320 743 m 1
 320 0 l 1
 128 0 l 1
 128 1517 l 1
 320 1517 l 1
 320 825 l 1
 933 1517 l 1
 1168 1517 l 1
 1168 1507 l 1
 546 789 l 1
 1260 9 l 1
 1260 0 l 1
 1001 0 l 1
 320 743 l 1
EndSplineSet
EndChar

StartChar: L
Encoding: 76 76 56
Width: 1027
VWidth: 0
Flags: HW
LayerCount: 2
Fore
SplineSet
128 0 m 1
 128 1516 l 1
 320 1516 l 1
 320 179 l 1
 946 179 l 1
 946 0 l 1
 128 0 l 1
EndSplineSet
EndChar

StartChar: Lacute
Encoding: 313 313 57
Width: 1027
VWidth: 0
Flags: HW
LayerCount: 2
Fore
SplineSet
389 1703 m 1
 484 2065 l 1
 502 2128 541 2152 582 2152 c 0
 627 2152 672 2118 672 2065 c 0
 672 2041 663 2011 639 1980 c 2
 418 1689 l 1
 408 1674 397 1668 393 1668 c 0
 389 1668 383 1674 383 1683 c 0
 383 1688 384 1696 389 1703 c 1
128 0 m 1
 128 1515 l 1
 320 1515 l 1
 320 178 l 1
 946 178 l 1
 946 0 l 1
 128 0 l 1
EndSplineSet
EndChar

StartChar: Lcaron
Encoding: 317 317 58
Width: 1029
VWidth: 0
Flags: HW
LayerCount: 2
Fore
SplineSet
1175 1062 m 1
 1153 1086 l 1
 1214 1142 1236 1194 1236 1273 c 1
 1169 1293 1138 1345 1138 1397 c 0
 1138 1487 1203 1534 1270 1534 c 0
 1340 1534 1413 1489 1413 1388 c 0
 1413 1254 1280 1062 1175 1062 c 1
128 0 m 1
 128 1515 l 1
 321 1515 l 1
 321 177 l 1
 947 177 l 1
 947 0 l 1
 128 0 l 1
EndSplineSet
EndChar

StartChar: Lcommaaccent
Encoding: 315 315 59
Width: 1027
VWidth: 0
Flags: HW
LayerCount: 2
Fore
SplineSet
430 -604 m 1
 406 -578 l 1
 467 -523 492 -471 492 -392 c 1
 423 -374 392 -321 392 -269 c 0
 392 -178 456 -132 524 -132 c 0
 594 -132 667 -177 667 -278 c 0
 667 -412 535 -604 430 -604 c 1
128 0 m 1
 128 1517 l 1
 320 1517 l 1
 320 180 l 1
 946 180 l 1
 946 0 l 1
 128 0 l 1
EndSplineSet
EndChar

StartChar: M
Encoding: 77 77 60
Width: 1613
VWidth: 0
Flags: HW
LayerCount: 2
Fore
SplineSet
1485 0 m 1
 1294 0 l 1
 1294 1189 l 1
 826 605 l 1
 792 605 l 1
 319 1204 l 1
 319 0 l 1
 128 0 l 1
 128 1516 l 1
 302 1516 l 1
 809 876 l 1
 1308 1516 l 1
 1485 1516 l 1
 1485 0 l 1
EndSplineSet
EndChar

StartChar: N
Encoding: 78 78 61
Width: 1595
VWidth: 0
Flags: HW
LayerCount: 2
Fore
SplineSet
308 0 m 1
 126 0 l 1
 126 1516 l 1
 280 1516 l 1
 1284 311 l 1
 1284 1516 l 1
 1469 1516 l 1
 1469 0 l 1
 1305 0 l 1
 308 1193 l 1
 308 0 l 1
EndSplineSet
EndChar

StartChar: Nacute
Encoding: 323 323 62
Width: 1595
VWidth: 0
Flags: HW
LayerCount: 2
Fore
SplineSet
656 1703 m 2
 753 2065 l 1
 771 2128 811 2152 851 2152 c 0
 897 2152 942 2118 942 2065 c 0
 942 2041 931 2011 908 1980 c 2
 687 1689 l 1
 678 1674 667 1668 663 1668 c 0
 656 1668 653 1674 653 1683 c 0
 653 1688 654 1696 656 1703 c 2
308 0 m 1
 126 0 l 1
 126 1515 l 1
 280 1515 l 1
 1284 310 l 1
 1284 1515 l 1
 1469 1515 l 1
 1469 0 l 1
 1305 0 l 1
 308 1193 l 1
 308 0 l 1
EndSplineSet
EndChar

StartChar: Ncaron
Encoding: 327 327 63
Width: 1595
VWidth: 0
Flags: HW
LayerCount: 2
Fore
SplineSet
796 1889 m 1
 1093 2095 l 2
 1096 2096 1096 2096 1097 2096 c 0
 1099 2096 1100 2095 1100 2094 c 0
 1100 2093 1100 2091 1099 2091 c 2
 833 1684 l 2
 826 1675 810 1669 796 1669 c 0
 782 1669 766 1675 759 1684 c 2
 494 2091 l 1
 494 2094 l 2
 494 2095 495 2096 496 2096 c 0
 497 2096 499 2096 502 2095 c 2
 796 1889 l 1
308 0 m 1
 126 0 l 1
 126 1516 l 1
 280 1516 l 1
 1284 311 l 1
 1284 1516 l 1
 1469 1516 l 1
 1469 0 l 1
 1305 0 l 1
 308 1193 l 1
 308 0 l 1
EndSplineSet
EndChar

StartChar: Ncommaaccent
Encoding: 325 325 64
Width: 1595
VWidth: 0
Flags: HW
LayerCount: 2
Fore
SplineSet
697 -604 m 1
 674 -578 l 1
 735 -523 759 -471 759 -392 c 1
 691 -374 660 -321 660 -269 c 0
 660 -178 724 -132 793 -132 c 0
 861 -132 933 -177 933 -278 c 0
 933 -412 801 -604 697 -604 c 1
308 0 m 1
 126 0 l 1
 126 1517 l 1
 280 1517 l 1
 1284 312 l 1
 1284 1517 l 1
 1469 1517 l 1
 1469 0 l 1
 1305 0 l 1
 308 1194 l 1
 308 0 l 1
EndSplineSet
EndChar

StartChar: Ntilde
Encoding: 209 209 65
Width: 1595
VWidth: 0
Flags: HW
LayerCount: 2
Fore
SplineSet
568 1756 m 0
 512 1756 479 1711 463 1711 c 0
 455 1711 449 1717 449 1724 c 0
 449 1729 450 1733 455 1739 c 1
 507 1826 566 1884 660 1884 c 0
 785 1884 942 1796 1026 1796 c 0
 1084 1796 1116 1841 1133 1841 c 0
 1141 1841 1145 1837 1145 1828 c 0
 1145 1824 1144 1821 1141 1813 c 1
 1083 1726 1014 1668 914 1668 c 0
 822 1668 681 1756 568 1756 c 0
308 0 m 1
 126 0 l 1
 126 1515 l 1
 280 1515 l 1
 1284 311 l 1
 1284 1515 l 1
 1469 1515 l 1
 1469 0 l 1
 1305 0 l 1
 308 1193 l 1
 308 0 l 1
EndSplineSet
EndChar

StartChar: O
Encoding: 79 79 66
Width: 1757
VWidth: 0
Flags: HW
LayerCount: 2
Fore
SplineSet
877 -19 m 0
 452 -19 105 331 105 759 c 0
 105 1189 452 1536 877 1536 c 0
 1301 1536 1650 1189 1650 759 c 0
 1650 331 1301 -19 877 -19 c 0
877 1356 m 0
 562 1356 305 1088 305 759 c 0
 305 430 562 163 877 163 c 0
 1192 163 1451 430 1451 759 c 0
 1451 1088 1192 1356 877 1356 c 0
EndSplineSet
EndChar

StartChar: OE
Encoding: 338 338 67
Width: 2297
VWidth: 0
Flags: HW
LayerCount: 2
Fore
SplineSet
836 1356 m 0
 476 1356 296 1058 296 758 c 0
 296 459 476 163 836 163 c 0
 1126 163 1365 430 1365 759 c 0
 1365 1088 1126 1356 836 1356 c 0
2198 1516 m 1
 2198 1339 l 1
 1557 1339 l 1
 1557 856 l 1
 2184 856 l 1
 2184 682 l 1
 1557 682 l 1
 1557 177 l 1
 2211 177 l 1
 2211 0 l 1
 1365 0 l 1
 1365 278 l 1
 1241 97 1049 -19 836 -19 c 0
 349 -19 104 371 104 760 c 0
 104 1149 348 1536 836 1536 c 0
 1049 1536 1241 1421 1365 1242 c 1
 1365 1516 l 1
 2198 1516 l 1
EndSplineSet
EndChar

StartChar: Oacute
Encoding: 211 211 68
Width: 1757
VWidth: 0
Flags: HW
LayerCount: 2
Fore
SplineSet
734 1704 m 2
 830 2066 l 1
 849 2128 889 2153 929 2153 c 0
 974 2153 1020 2119 1020 2066 c 0
 1020 2040 1009 2011 985 1981 c 2
 764 1690 l 1
 755 1674 745 1668 739 1668 c 0
 734 1668 731 1674 731 1683 c 0
 731 1687 732 1696 734 1704 c 2
877 -20 m 0
 452 -20 105 330 105 759 c 0
 105 1188 452 1536 877 1536 c 0
 1301 1536 1650 1188 1650 759 c 0
 1650 330 1301 -20 877 -20 c 0
877 1356 m 0
 562 1356 305 1088 305 759 c 0
 305 429 562 162 877 162 c 0
 1192 162 1451 429 1451 759 c 0
 1451 1088 1192 1356 877 1356 c 0
EndSplineSet
EndChar

StartChar: Obreve
Encoding: 334 334 69
Width: 1757
VWidth: 0
Flags: HW
LayerCount: 2
Fore
SplineSet
1106 1907 m 1
 1099 1748 987 1669 876 1669 c 0
 763 1669 650 1748 644 1907 c 1
 748 1907 l 1
 758 1826 816 1783 875 1783 c 0
 933 1783 992 1826 1001 1907 c 1
 1106 1907 l 1
877 -19 m 0
 452 -19 105 330 105 760 c 0
 105 1188 452 1537 877 1537 c 0
 1301 1537 1650 1188 1650 760 c 0
 1650 330 1301 -19 877 -19 c 0
877 1356 m 0
 562 1356 305 1089 305 760 c 0
 305 430 562 162 877 162 c 0
 1192 162 1451 430 1451 760 c 0
 1451 1089 1192 1356 877 1356 c 0
EndSplineSet
EndChar

StartChar: Ocircumflex
Encoding: 212 212 70
Width: 1757
VWidth: 0
Flags: HW
LayerCount: 2
Fore
SplineSet
876 1874 m 1
 579 1669 l 1
 578 1667 578 1667 577 1667 c 0
 575 1667 573 1669 573 1671 c 0
 573 1672 573 1673 574 1673 c 2
 839 2080 l 1
 846 2088 862 2096 876 2096 c 0
 890 2096 907 2088 915 2080 c 1
 1179 1673 l 1
 1179 1671 l 2
 1179 1669 1178 1667 1177 1667 c 0
 1175 1667 1173 1667 1171 1669 c 2
 876 1874 l 1
877 -19 m 0
 452 -19 105 330 105 759 c 0
 105 1187 452 1536 877 1536 c 0
 1301 1536 1650 1187 1650 759 c 0
 1650 330 1301 -19 877 -19 c 0
877 1356 m 0
 562 1356 305 1088 305 759 c 0
 305 430 562 161 877 161 c 0
 1192 161 1451 430 1451 759 c 0
 1451 1088 1192 1356 877 1356 c 0
EndSplineSet
EndChar

StartChar: Odieresis
Encoding: 214 214 71
Width: 1757
VWidth: 0
Flags: HW
LayerCount: 2
Fore
SplineSet
946 1781 m 0
 946 1858 1006 1901 1063 1901 c 0
 1121 1901 1180 1858 1180 1781 c 0
 1180 1703 1121 1667 1063 1667 c 0
 1006 1667 946 1704 946 1781 c 0
571 1781 m 0
 571 1858 628 1901 687 1901 c 0
 745 1901 804 1858 804 1781 c 0
 804 1703 745 1667 687 1667 c 0
 628 1667 571 1704 571 1781 c 0
877 -20 m 0
 452 -20 105 330 105 758 c 0
 105 1187 452 1535 877 1535 c 0
 1301 1535 1650 1187 1650 758 c 0
 1650 330 1301 -20 877 -20 c 0
877 1355 m 0
 562 1355 305 1087 305 758 c 0
 305 429 562 161 877 161 c 0
 1192 161 1451 429 1451 758 c 0
 1451 1087 1192 1355 877 1355 c 0
EndSplineSet
EndChar

StartChar: Ograve
Encoding: 210 210 72
Width: 1757
VWidth: 0
Flags: HW
LayerCount: 2
Fore
SplineSet
925 2078 m 1
 1010 1701 l 2
 1012 1693 1012 1685 1012 1681 c 0
 1012 1672 1009 1667 1004 1667 c 0
 997 1667 987 1672 978 1685 c 2
 768 1994 l 1
 746 2022 736 2049 736 2074 c 0
 736 2127 782 2164 829 2164 c 0
 866 2164 905 2140 925 2078 c 1
877 -21 m 0
 452 -21 105 330 105 758 c 0
 105 1187 452 1535 877 1535 c 0
 1301 1535 1650 1187 1650 758 c 0
 1650 330 1301 -21 877 -21 c 0
877 1355 m 0
 562 1355 305 1087 305 758 c 0
 305 429 562 162 877 162 c 0
 1192 162 1451 429 1451 758 c 0
 1451 1087 1192 1355 877 1355 c 0
EndSplineSet
EndChar

StartChar: Ohungarumlaut
Encoding: 336 336 73
Width: 1757
VWidth: 0
Flags: HW
LayerCount: 2
Fore
SplineSet
558 1704 m 1
 652 2066 l 1
 671 2128 710 2153 751 2153 c 0
 796 2153 841 2119 841 2066 c 0
 841 2040 831 2011 808 1981 c 2
 587 1690 l 1
 577 1674 566 1668 562 1668 c 0
 558 1668 551 1674 551 1683 c 0
 551 1687 553 1696 558 1704 c 1
913 1704 m 2
 1010 2066 l 2
 1027 2128 1068 2153 1108 2153 c 0
 1154 2153 1199 2119 1199 2066 c 0
 1199 2040 1191 2011 1167 1981 c 2
 945 1690 l 1
 935 1674 923 1668 918 1668 c 0
 913 1668 910 1674 910 1683 c 0
 910 1687 910 1696 913 1704 c 2
877 -20 m 0
 452 -20 105 330 105 759 c 0
 105 1188 452 1536 877 1536 c 0
 1301 1536 1650 1188 1650 759 c 0
 1650 330 1301 -20 877 -20 c 0
877 1356 m 0
 562 1356 305 1088 305 759 c 0
 305 429 562 162 877 162 c 0
 1192 162 1451 429 1451 759 c 0
 1451 1088 1192 1356 877 1356 c 0
EndSplineSet
EndChar

StartChar: Omacron
Encoding: 332 332 74
Width: 1757
VWidth: 0
Flags: HW
LayerCount: 2
Fore
SplineSet
618 1668 m 1
 618 1820 l 1
 1132 1820 l 1
 1132 1668 l 1
 618 1668 l 1
877 -20 m 0
 452 -20 105 330 105 758 c 0
 105 1188 452 1536 877 1536 c 0
 1301 1536 1650 1188 1650 758 c 0
 1650 330 1301 -20 877 -20 c 0
877 1356 m 0
 562 1356 305 1088 305 758 c 0
 305 429 562 161 877 161 c 0
 1192 161 1451 429 1451 758 c 0
 1451 1088 1192 1356 877 1356 c 0
EndSplineSet
EndChar

StartChar: Oslash
Encoding: 216 216 75
Width: 1751
VWidth: 0
Flags: HW
LayerCount: 2
Fore
SplineSet
877 -19 m 0
 753.843583559 -19 637.237009206 10.2223723895 533.725984827 62.1944097415 c 1
 390 -175 l 1
 292 -112 l 1
 434.167488455 121.97306218 l 1
 235.372229741 262.668073296 105 495.429825065 105 759 c 0
 105 1186 452 1536 877 1536 c 0
 1007.06562738 1536 1130.07369392 1503.0647161 1238.11485291 1445.07462878 c 1
 1376 1672 l 1
 1471 1609 l 1
 1334.5353334 1383.78911636 l 1
 1525.34977264 1241.87607891 1650 1014.1888525 1650 759 c 0
 1650 329 1301 -19 877 -19 c 0
1236.8614703 1222.59561797 m 1
 629.073484675 219.54865556 l 1
 704.149313219 181.421305419 788.273849731 160 877 160 c 0
 1192 160 1451 430 1451 759 c 0
 1451 946.188020085 1367.15752894 1113.30564169 1236.8614703 1222.59561797 c 1
1142.18924217 1287.20443545 m 1
 1062.69209119 1330.50235987 972.415086507 1355 877 1355 c 0
 562 1355 305 1088 305 759 c 0
 305 565.314469201 394.070867824 392.077114283 531.609716237 282.339237793 c 1
 1142.18924217 1287.20443545 l 1
EndSplineSet
EndChar

StartChar: Otilde
Encoding: 213 213 76
Width: 1757
VWidth: 0
Flags: HW
LayerCount: 2
Fore
SplineSet
646 1756 m 0
 591 1756 558 1711 542 1711 c 0
 534 1711 527 1716 527 1725 c 0
 527 1729 529 1733 534 1740 c 0
 586 1827 645 1885 737 1885 c 0
 864 1885 1021 1795 1105 1795 c 0
 1163 1795 1195 1842 1212 1842 c 0
 1220 1842 1224 1838 1224 1829 c 0
 1224 1825 1222 1819 1220 1814 c 1
 1160 1727 1093 1669 992 1669 c 0
 901 1669 760 1756 646 1756 c 0
877 -18 m 0
 452 -18 105 330 105 760 c 0
 105 1188 452 1537 877 1537 c 0
 1301 1537 1650 1188 1650 760 c 0
 1650 330 1301 -18 877 -18 c 0
877 1356 m 0
 562 1356 305 1089 305 760 c 0
 305 431 562 163 877 163 c 0
 1192 163 1451 431 1451 760 c 0
 1451 1089 1192 1356 877 1356 c 0
EndSplineSet
EndChar

StartChar: P
Encoding: 80 80 77
Width: 1038
VWidth: 0
Flags: HW
LayerCount: 2
Fore
SplineSet
469 1516 m 2
 747 1516 961 1401 961 1118 c 0
 961 868 807 690 421 690 c 2
 319 690 l 1
 319 0 l 1
 128 0 l 1
 128 1516 l 1
 469 1516 l 2
329 856 m 2
 564 856 760 879 760 1107 c 0
 760 1231 713 1352 449 1352 c 2
 319 1352 l 1
 319 856 l 1
 329 856 l 2
EndSplineSet
EndChar

StartChar: Q
Encoding: 81 81 78
Width: 1757
VWidth: 0
Flags: HW
LayerCount: 2
Fore
SplineSet
877 1350 m 0
 562 1350 305 1083 305 755 c 0
 305 428 562 161 877 161 c 0
 1192 161 1451 428 1451 755 c 0
 1451 1083 1192 1350 877 1350 c 0
826 -23 m 1
 826 -24 l 1
 425 3 105 340 105 753 c 0
 105 1181 452 1529 877 1529 c 0
 1301 1529 1650 1181 1650 753 c 0
 1650 372 1377 54 1015 -11 c 1
 1011 -12 l 1
 1074 -118 1207 -298 1402 -298 c 2
 1407 -298 l 1
 1407 -325 l 1
 1219 -435 l 1
 1034 -378 888 -169 829 -24 c 1
 829 -23 l 1
 826 -23 l 1
EndSplineSet
EndChar

StartChar: R
Encoding: 82 82 79
Width: 1096
VWidth: 0
Flags: HW
LayerCount: 2
Fore
SplineSet
956 1118 m 0
 956 931 867 787 662 723 c 1
 753 485 884 249 1003 51 c 1
 1002 0 l 1
 809 0 l 1
 721 148 575 463 479 696 c 1
 477 696 l 2
 459 696 440 695 421 695 c 2
 320 695 l 1
 320 0 l 1
 129 0 l 1
 129 1516 l 1
 469 1516 l 2
 741 1516 956 1401 956 1118 c 0
368 856 m 2
 580 856 755 879 755 1107 c 0
 755 1231 708 1352 448 1352 c 2
 320 1352 l 1
 320 856 l 1
 368 856 l 2
EndSplineSet
EndChar

StartChar: Racute
Encoding: 340 340 80
Width: 1096
VWidth: 0
Flags: HW
LayerCount: 2
Fore
SplineSet
420 1703 m 2
 515 2065 l 1
 534 2128 575 2152 614 2152 c 0
 659 2152 706 2118 706 2065 c 0
 706 2041 695 2011 671 1980 c 2
 449 1689 l 1
 440 1674 431 1668 424 1668 c 0
 420 1668 417 1674 417 1683 c 0
 417 1688 418 1696 420 1703 c 2
956 1116 m 0
 956 931 867 788 662 723 c 1
 753 486 884 249 1003 50 c 1
 1002 0 l 1
 809 0 l 1
 721 146 575 462 479 696 c 1
 477 696 l 2
 459 696 440 693 421 693 c 2
 320 693 l 1
 320 0 l 1
 129 0 l 1
 129 1515 l 1
 469 1515 l 2
 741 1515 956 1400 956 1116 c 0
368 856 m 2
 580 856 755 879 755 1108 c 0
 755 1230 708 1352 448 1352 c 2
 320 1352 l 1
 320 856 l 1
 368 856 l 2
EndSplineSet
EndChar

StartChar: Rcaron
Encoding: 344 344 81
Width: 1096
VWidth: 0
Flags: HW
LayerCount: 2
Fore
SplineSet
561 1889 m 1
 857 2095 l 2
 858 2096 858 2096 859 2096 c 0
 862 2096 865 2095 865 2094 c 0
 865 2093 865 2091 862 2091 c 1
 597 1684 l 2
 591 1675 575 1669 561 1669 c 0
 545 1669 529 1675 523 1684 c 2
 259 2091 l 1
 259 2094 l 2
 259 2095 260 2096 261 2096 c 0
 262 2096 264 2096 265 2095 c 2
 561 1889 l 1
956 1118 m 0
 956 932 867 788 662 723 c 1
 753 486 884 249 1003 51 c 1
 1002 0 l 1
 809 0 l 1
 721 146 575 462 479 696 c 1
 477 696 l 2
 459 696 440 695 421 695 c 2
 320 695 l 1
 320 0 l 1
 129 0 l 1
 129 1516 l 1
 469 1516 l 2
 741 1516 956 1400 956 1118 c 0
368 856 m 2
 580 856 755 879 755 1107 c 0
 755 1231 708 1352 448 1352 c 2
 320 1352 l 1
 320 856 l 1
 368 856 l 2
EndSplineSet
EndChar

StartChar: Rcommaaccent
Encoding: 342 342 82
Width: 1096
VWidth: 0
Flags: HW
LayerCount: 2
Fore
SplineSet
461 -604 m 1
 437 -578 l 1
 498 -523 523 -471 523 -392 c 1
 455 -374 423 -321 423 -269 c 0
 423 -178 489 -132 555 -132 c 0
 625 -132 698 -177 698 -278 c 0
 698 -412 566 -604 461 -604 c 1
956 1119 m 0
 956 932 867 788 662 724 c 1
 753 486 884 250 1003 52 c 1
 1002 0 l 1
 809 0 l 1
 721 149 575 462 479 697 c 1
 477 697 l 2
 459 697 440 696 421 696 c 2
 320 696 l 1
 320 0 l 1
 129 0 l 1
 129 1517 l 1
 469 1517 l 2
 741 1517 956 1402 956 1119 c 0
368 857 m 2
 580 857 755 880 755 1108 c 0
 755 1232 708 1353 448 1353 c 2
 320 1353 l 1
 320 857 l 1
 368 857 l 2
EndSplineSet
EndChar

StartChar: S
Encoding: 83 83 83
Width: 990
VWidth: 0
Flags: HW
LayerCount: 2
Fore
SplineSet
245 831 m 2
 127 916 72 1035 72 1149 c 0
 72 1346 230 1537 516 1537 c 0
 658 1537 823 1466 853 1439 c 1
 853 1224 l 1
 823 1248 676 1359 534 1359 c 0
 365 1359 280 1273 280 1170 c 0
 280 1092 333 1012 425 948 c 2
 682 771 l 1
 859 643 910 534 910 390 c 0
 910 124 689 -14 462 -14 c 0
 331 -14 199 32 103 123 c 1
 103 343 l 1
 198 267 295 167 477 167 c 0
 610 167 719 239 719 376 c 0
 719 446 699 506 560 605 c 2
 245 831 l 2
EndSplineSet
EndChar

StartChar: Sacute
Encoding: 346 346 84
Width: 990
VWidth: 0
Flags: HW
LayerCount: 2
Fore
SplineSet
349 1703 m 2
 446 2066 l 1
 464 2129 504 2152 544 2152 c 0
 589 2152 635 2120 635 2066 c 0
 635 2041 624 2012 601 1980 c 1
 380 1689 l 1
 371 1675 360 1669 356 1669 c 0
 349 1669 346 1675 346 1684 c 0
 346 1688 347 1697 349 1703 c 2
245 830 m 2
 127 915 72 1034 72 1149 c 0
 72 1346 230 1537 516 1537 c 0
 658 1537 823 1466 853 1439 c 1
 853 1224 l 1
 823 1248 676 1359 534 1359 c 0
 365 1359 280 1273 280 1170 c 0
 280 1092 333 1012 425 948 c 2
 682 770 l 1
 859 643 910 534 910 390 c 0
 910 124 689 -14 462 -14 c 0
 331 -14 199 31 103 123 c 1
 103 343 l 1
 198 267 295 167 477 167 c 0
 610 167 719 238 719 376 c 0
 719 446 699 505 560 605 c 2
 245 830 l 2
EndSplineSet
EndChar

StartChar: Scaron
Encoding: 352 352 85
Width: 990
VWidth: 0
Flags: HW
LayerCount: 2
Fore
SplineSet
490 1888 m 1
 787 2094 l 2
 790 2095 790 2095 791 2095 c 0
 793 2095 794 2094 794 2092 c 0
 794 2091 794 2090 793 2090 c 2
 528 1683 l 1
 520 1675 504 1668 490 1668 c 0
 476 1668 460 1675 453 1683 c 1
 188 2090 l 1
 188 2092 l 2
 188 2094 189 2095 190 2095 c 0
 191 2095 193 2095 196 2094 c 2
 490 1888 l 1
245 830 m 2
 127 914 72 1034 72 1149 c 0
 72 1345 230 1536 516 1536 c 0
 658 1536 823 1466 853 1439 c 1
 853 1224 l 1
 823 1246 676 1359 534 1359 c 0
 365 1359 280 1271 280 1170 c 0
 280 1093 333 1012 425 949 c 1
 682 769 l 1
 859 642 910 533 910 390 c 0
 910 122 689 -14 462 -14 c 0
 331 -14 199 31 103 121 c 1
 103 344 l 1
 198 265 295 165 477 165 c 0
 610 165 719 238 719 375 c 0
 719 446 699 505 560 605 c 2
 245 830 l 2
EndSplineSet
EndChar

StartChar: Scedilla
Encoding: 350 350 86
Width: 990
VWidth: 0
Flags: HW
LayerCount: 2
Fore
SplineSet
284 -395 m 1
 280 -390 272 -384 272 -380 c 0
 272 -377 277 -374 285 -374 c 0
 310 -374 375 -391 438 -391 c 0
 495 -391 550 -377 550 -322 c 0
 550 -246 393 -255 367 -255 c 1
 448.332301659 -13.8402683377 l 1
 321.863565876 -10.8831831242 195.661831671 33.164305395 103 121 c 1
 103 343 l 1
 198 265 295 165 477 165 c 0
 610 165 719 238 719 375 c 0
 719 446 699 505 560 605 c 2
 245 829 l 2
 127 913 72 1033 72 1149 c 0
 72 1345 230 1536 516 1536 c 0
 658 1536 823 1466 853 1439 c 1
 853 1224 l 1
 823 1246 676 1358 534 1358 c 0
 365 1358 280 1271 280 1169 c 0
 280 1092 333 1011 425 948 c 1
 682 768 l 1
 859 642 910 533 910 389 c 0
 910 147.128457694 728.640922189 12.7593551756 525.753023489 -10.3903248349 c 1
 489 -128 l 1
 605 -128 682 -196 682 -288 c 0
 682 -400 580 -439 476 -439 c 0
 402 -439 327 -420 284 -395 c 1
EndSplineSet
EndChar

StartChar: Scommaaccent
Encoding: 536 536 87
Width: 990
VWidth: 0
Flags: HW
LayerCount: 2
Fore
SplineSet
391 -619 m 1
 368 -594 l 1
 429 -538 453 -487 453 -408 c 1
 385 -388 354 -336 354 -284 c 0
 354 -193 419 -146 487 -146 c 0
 555 -146 628 -192 628 -292 c 0
 628 -427 495 -619 391 -619 c 1
245 831 m 2
 127 916 72 1035 72 1149 c 0
 72 1346 230 1537 516 1537 c 0
 658 1537 823 1466 853 1439 c 1
 853 1224 l 1
 823 1248 676 1359 534 1359 c 0
 365 1359 280 1273 280 1170 c 0
 280 1092 333 1012 425 948 c 2
 682 771 l 1
 859 643 910 534 910 390 c 0
 910 124 689 -14 462 -14 c 0
 331 -14 199 32 103 123 c 1
 103 343 l 1
 198 266 295 167 477 167 c 0
 610 167 719 239 719 376 c 0
 719 446 699 506 560 605 c 2
 245 831 l 2
EndSplineSet
EndChar

StartChar: T
Encoding: 84 84 88
Width: 1312
VWidth: 0
Flags: HW
LayerCount: 2
Fore
SplineSet
1273 1516 m 1
 1273 1340 l 1
 751 1340 l 1
 751 0 l 1
 559 0 l 1
 559 1340 l 1
 39 1340 l 1
 39 1516 l 1
 1273 1516 l 1
EndSplineSet
EndChar

StartChar: Tcaron
Encoding: 356 356 89
Width: 1312
VWidth: 0
Flags: HW
LayerCount: 2
Fore
SplineSet
655 1889 m 1
 952 2095 l 2
 955 2096 955 2096 956 2096 c 0
 958 2096 959 2095 959 2094 c 0
 959 2093 959 2091 958 2091 c 2
 693 1684 l 1
 685 1675 669 1669 655 1669 c 0
 641 1669 625 1675 618 1684 c 2
 353 2091 l 1
 353 2094 l 2
 353 2095 354 2096 355 2096 c 0
 356 2096 358 2096 361 2095 c 2
 655 1889 l 1
1273 1516 m 1
 1273 1340 l 1
 751 1340 l 1
 751 0 l 1
 559 0 l 1
 559 1340 l 1
 39 1340 l 1
 39 1516 l 1
 1273 1516 l 1
EndSplineSet
EndChar

StartChar: Tcommaaccent
Encoding: 65537 -1 90
Width: 1312
VWidth: 0
Flags: HW
LayerCount: 2
Fore
SplineSet
556 -604 m 1
 533 -578 l 1
 594 -523 618 -471 618 -392 c 1
 550 -374 519 -321 519 -269 c 0
 519 -178 584 -132 652 -132 c 0
 720 -132 793 -177 793 -278 c 0
 793 -412 660 -604 556 -604 c 1
1273 1517 m 1
 1273 1342 l 1
 751 1342 l 1
 751 0 l 1
 559 0 l 1
 559 1342 l 1
 39 1342 l 1
 39 1517 l 1
 1273 1517 l 1
EndSplineSet
EndChar

StartChar: Thorn
Encoding: 222 222 91
Width: 1039
VWidth: 0
Flags: HW
LayerCount: 2
Fore
SplineSet
307 1257 m 1
 451 1257 l 2
 734 1257 955 1138 955 850 c 0
 955 593 796 409 401 409 c 2
 306 409 l 1
 306 0 l 1
 100 0 l 1
 100 1553 l 1
 307 1553 l 1
 307 1257 l 1
744 838 m 0
 744 962 697 1084 430 1084 c 2
 308 1084 l 1
 308 586 l 1
 549 586 744 607 744 838 c 0
EndSplineSet
EndChar

StartChar: U
Encoding: 85 85 92
Width: 1486
VWidth: 0
Flags: HW
LayerCount: 2
Fore
SplineSet
744 -18 m 0
 438 -18 129 182 129 587 c 2
 129 1515 l 1
 321 1515 l 1
 321 592 l 2
 321 301 529 155 741 155 c 0
 953 155 1164 301 1164 592 c 2
 1164 1515 l 1
 1356 1515 l 1
 1356 588 l 2
 1356 182 1049 -18 744 -18 c 0
EndSplineSet
EndChar

StartChar: Uacute
Encoding: 218 218 93
Width: 1486
VWidth: 0
Flags: HW
LayerCount: 2
Fore
SplineSet
601 1704 m 2
 698 2066 l 1
 716 2128 756 2153 796 2153 c 0
 842 2153 887 2119 887 2066 c 0
 887 2040 876 2011 853 1981 c 2
 632 1690 l 1
 623 1674 612 1668 608 1668 c 0
 601 1668 598 1674 598 1683 c 0
 598 1687 599 1696 601 1704 c 2
744 -20 m 0
 438 -20 129 181 129 585 c 2
 129 1515 l 1
 321 1515 l 1
 321 592 l 2
 321 300 529 154 741 154 c 0
 953 154 1164 300 1164 592 c 2
 1164 1515 l 1
 1356 1515 l 1
 1356 586 l 2
 1356 181 1049 -20 744 -20 c 0
EndSplineSet
EndChar

StartChar: Ubreve
Encoding: 364 364 94
Width: 1486
VWidth: 0
Flags: HW
LayerCount: 2
Fore
SplineSet
974 1907 m 1
 968 1748 855 1669 743 1669 c 0
 630 1669 517 1748 511 1907 c 1
 616 1907 l 1
 625 1826 684 1783 742 1783 c 0
 800 1783 860 1826 869 1907 c 1
 974 1907 l 1
744 -19 m 0
 438 -19 129 182 129 586 c 2
 129 1515 l 1
 321 1515 l 1
 321 592 l 2
 321 301 529 155 741 155 c 0
 953 155 1164 301 1164 592 c 2
 1164 1515 l 1
 1356 1515 l 1
 1356 587 l 2
 1356 182 1049 -19 744 -19 c 0
EndSplineSet
EndChar

StartChar: Ucircumflex
Encoding: 219 219 95
Width: 1486
VWidth: 0
Flags: HW
LayerCount: 2
Fore
SplineSet
742 1874 m 1
 447 1669 l 2
 444 1667 444 1667 443 1667 c 0
 441 1667 439 1669 439 1671 c 0
 439 1672 439 1673 440 1673 c 2
 705 2080 l 1
 713 2088 728 2096 742 2096 c 0
 756 2096 774 2088 781 2080 c 1
 1045 1673 l 1
 1045 1671 l 2
 1045 1669 1044 1667 1043 1667 c 0
 1042 1667 1041 1667 1038 1669 c 2
 742 1874 l 1
744 -19 m 0
 438 -19 129 182 129 586 c 2
 129 1515 l 1
 321 1515 l 1
 321 591 l 2
 321 300 529 154 741 154 c 0
 953 154 1164 300 1164 591 c 2
 1164 1515 l 1
 1356 1515 l 1
 1356 587 l 2
 1356 182 1049 -19 744 -19 c 0
EndSplineSet
EndChar

StartChar: Udieresis
Encoding: 220 220 96
Width: 1486
VWidth: 0
Flags: HW
LayerCount: 2
Fore
SplineSet
813 1781 m 0
 813 1858 873 1901 931 1901 c 0
 989 1901 1047 1858 1047 1781 c 0
 1047 1703 989 1667 931 1667 c 0
 873 1667 813 1704 813 1781 c 0
438 1781 m 0
 438 1858 496 1901 554 1901 c 0
 612 1901 672 1858 672 1781 c 0
 672 1703 612 1667 554 1667 c 0
 496 1667 438 1704 438 1781 c 0
744 -20 m 0
 438 -20 129 181 129 585 c 2
 129 1514 l 1
 321 1514 l 1
 321 590 l 2
 321 299 529 153 741 153 c 0
 953 153 1164 299 1164 590 c 2
 1164 1514 l 1
 1356 1514 l 1
 1356 586 l 2
 1356 181 1049 -20 744 -20 c 0
EndSplineSet
EndChar

StartChar: Ugrave
Encoding: 217 217 97
Width: 1486
VWidth: 0
Flags: HW
LayerCount: 2
Fore
SplineSet
792 2078 m 1
 877 1701 l 1
 880 1693 880 1685 880 1681 c 0
 880 1672 876 1667 872 1667 c 0
 865 1667 855 1672 846 1685 c 2
 636 1994 l 1
 613 2022 605 2049 605 2074 c 0
 605 2127 650 2164 697 2164 c 0
 733 2164 772 2140 792 2078 c 1
744 -21 m 0
 438 -21 129 180 129 584 c 2
 129 1514 l 1
 321 1514 l 1
 321 592 l 2
 321 299 529 153 741 153 c 0
 953 153 1164 299 1164 592 c 2
 1164 1514 l 1
 1356 1514 l 1
 1356 586 l 2
 1356 180 1049 -21 744 -21 c 0
EndSplineSet
EndChar

StartChar: Uhungarumlaut
Encoding: 368 368 98
Width: 1486
VWidth: 0
Flags: HW
LayerCount: 2
Fore
SplineSet
424 1704 m 2
 519 2066 l 1
 537 2128 578 2153 618 2153 c 0
 662 2153 708 2119 708 2066 c 0
 708 2040 698 2011 674 1981 c 2
 453 1690 l 1
 443 1674 435 1668 428 1668 c 0
 424 1668 417 1674 417 1683 c 0
 417 1687 421 1696 424 1704 c 2
780 1704 m 2
 876 2066 l 1
 896 2128 935 2153 975 2153 c 0
 1020 2153 1065 2119 1065 2066 c 0
 1065 2040 1057 2011 1033 1981 c 2
 811 1690 l 1
 801 1674 790 1668 784 1668 c 0
 780 1668 777 1674 777 1683 c 0
 777 1687 777 1696 780 1704 c 2
744 -20 m 0
 438 -20 129 181 129 585 c 2
 129 1515 l 1
 321 1515 l 1
 321 592 l 2
 321 300 529 154 741 154 c 0
 953 154 1164 300 1164 592 c 2
 1164 1515 l 1
 1356 1515 l 1
 1356 586 l 2
 1356 181 1049 -20 744 -20 c 0
EndSplineSet
EndChar

StartChar: Umacron
Encoding: 362 362 99
Width: 1486
VWidth: 0
Flags: HW
LayerCount: 2
Fore
SplineSet
486 1668 m 1
 486 1820 l 1
 999 1820 l 1
 999 1668 l 1
 486 1668 l 1
744 -20 m 0
 438 -20 129 182 129 585 c 2
 129 1515 l 1
 321 1515 l 1
 321 592 l 2
 321 301 529 155 741 155 c 0
 953 155 1164 301 1164 592 c 2
 1164 1515 l 1
 1356 1515 l 1
 1356 586 l 2
 1356 182 1049 -20 744 -20 c 0
EndSplineSet
EndChar

StartChar: Uogonek
Encoding: 370 370 100
Width: 1486
VWidth: 0
Flags: HW
LayerCount: 2
Fore
SplineSet
669.538326944 -15.0201052356 m 1
 389.838505984 14.9940957871 129 214.817085572 129 586 c 2
 129 1516 l 1
 321 1516 l 1
 321 592 l 2
 321 301 529 155 741 155 c 0
 953 155 1164 301 1164 592 c 2
 1164 1516 l 1
 1356 1516 l 1
 1356 587 l 2
 1356 185.200984527 1053.83367296 -15.8099830118 751.232076178 -18.962330358 c 1
 771 -51 l 1
 695 -77 655 -128 655 -176 c 0
 655 -240 718 -302 842 -302 c 2
 843 -302 l 1
 813 -426 l 1
 799 -430 783 -431 770 -431 c 0
 629 -431 536 -324 536 -211 c 0
 536.000000004 -127.305487923 580.686503592 -44.2586063733 669.538326944 -15.0201052356 c 1
EndSplineSet
EndChar

StartChar: Uring
Encoding: 366 366 101
Width: 1486
VWidth: 0
Flags: HW
LayerCount: 2
Fore
SplineSet
618 1885 m 0
 618 1810 681 1769 743 1769 c 0
 805 1769 865 1810 865 1885 c 0
 865 1962 804 1999 742 1999 c 0
 680 1999 618 1962 618 1885 c 0
981 1885 m 0
 981 1740 862 1668 742 1668 c 0
 623 1668 504 1742 504 1886 c 0
 504 2029 623 2102 743 2102 c 0
 862 2102 981 2029 981 1885 c 0
744 -19 m 0
 438 -19 129 181 129 586 c 2
 129 1515 l 1
 321 1515 l 1
 321 591 l 2
 321 300 529 154 741 154 c 0
 953 154 1164 300 1164 591 c 2
 1164 1515 l 1
 1356 1515 l 1
 1356 587 l 2
 1356 181 1049 -19 744 -19 c 0
EndSplineSet
EndChar

StartChar: Utilde
Encoding: 360 360 102
Width: 1486
VWidth: 0
Flags: HW
LayerCount: 2
Fore
SplineSet
513 1738 m 0
 457 1738 424 1693 408 1693 c 0
 400 1693 394 1699 394 1706 c 0
 394 1712 395 1716 400 1722 c 1
 452 1808 511 1866 605 1866 c 0
 730 1866 887 1778 971 1778 c 0
 1029 1778 1061 1823 1078 1823 c 0
 1086 1823 1090 1819 1090 1810 c 0
 1090 1806 1089 1803 1086 1795 c 1
 1028 1709 959 1650 859 1650 c 0
 767 1650 626 1738 513 1738 c 0
744 -20 m 0
 438 -20 129 181 129 584 c 2
 129 1515 l 1
 321 1515 l 1
 321 592 l 2
 321 300 529 154 741 154 c 0
 953 154 1164 300 1164 592 c 2
 1164 1515 l 1
 1356 1515 l 1
 1356 585 l 2
 1356 181 1049 -20 744 -20 c 0
EndSplineSet
EndChar

StartChar: V
Encoding: 86 86 103
Width: 1281
VWidth: 0
Flags: HW
LayerCount: 2
Fore
SplineSet
677 -13 m 1
 621 -13 l 1
 -8 1515 l 1
 192 1515 l 1
 650 366 l 1
 1086 1515 l 1
 1285 1515 l 1
 677 -13 l 1
EndSplineSet
EndChar

StartChar: W
Encoding: 87 87 104
Width: 2193
VWidth: 0
Flags: HW
LayerCount: 2
Fore
SplineSet
1192 1516 m 1
 1584 397 l 1
 1970 1516 l 1
 2172 1516 l 1
 1612 -25 l 1
 1557 -25 l 1
 1094 1234 l 1
 623 -22 l 1
 575 -22 l 1
 18 1516 l 1
 230 1516 l 1
 596 405 l 1
 1003 1516 l 1
 1192 1516 l 1
EndSplineSet
EndChar

StartChar: X
Encoding: 88 88 105
Width: 1518
VWidth: 0
Flags: HW
LayerCount: 2
Fore
SplineSet
1262 0 m 1
 757 621 l 1
 199 0 l 1
 4 0 l 1
 623 787 l 1
 39 1516 l 1
 294 1516 l 1
 755 935 l 1
 1220 1516 l 1
 1474 1516 l 1
 877 785 l 1
 1508 0 l 1
 1262 0 l 1
EndSplineSet
EndChar

StartChar: Y
Encoding: 89 89 106
Width: 1266
VWidth: 0
Flags: HW
LayerCount: 2
Fore
SplineSet
529 0 m 1
 529 805 l 1
 3 1516 l 1
 239 1516 l 1
 630 957 l 1
 1038 1516 l 1
 1259 1516 l 1
 737 799 l 1
 737 0 l 1
 529 0 l 1
EndSplineSet
EndChar

StartChar: Yacute
Encoding: 221 221 107
Width: 1266
VWidth: 0
Flags: HW
LayerCount: 2
Fore
SplineSet
489 1703 m 2
 586 2065 l 1
 604 2128 644 2152 684 2152 c 0
 729 2152 775 2118 775 2065 c 0
 775 2041 764 2011 741 1980 c 2
 520 1689 l 1
 511 1674 500 1668 496 1668 c 0
 489 1668 486 1674 486 1683 c 0
 486 1688 487 1696 489 1703 c 2
529 0 m 1
 529 805 l 1
 3 1515 l 1
 239 1515 l 1
 630 956 l 1
 1038 1515 l 1
 1259 1515 l 1
 737 798 l 1
 737 0 l 1
 529 0 l 1
EndSplineSet
EndChar

StartChar: Ydieresis
Encoding: 376 376 108
Width: 1266
VWidth: 0
Flags: HW
LayerCount: 2
Fore
SplineSet
701 1781 m 0
 701 1859 761 1901 818 1901 c 0
 877 1901 935 1859 935 1781 c 0
 935 1705 877 1667 818 1667 c 0
 761 1667 701 1706 701 1781 c 0
326 1781 m 0
 326 1859 384 1901 442 1901 c 0
 500 1901 560 1859 560 1781 c 0
 560 1705 500 1667 442 1667 c 0
 384 1667 326 1706 326 1781 c 0
529 0 m 1
 529 804 l 1
 3 1516 l 1
 239 1516 l 1
 630 957 l 1
 1038 1516 l 1
 1259 1516 l 1
 737 799 l 1
 737 0 l 1
 529 0 l 1
EndSplineSet
EndChar

StartChar: Z
Encoding: 90 90 109
Width: 1392
VWidth: 0
Flags: HW
LayerCount: 2
Fore
SplineSet
1303 1516 m 1
 1311 1507 l 1
 442 168 l 1
 1314 168 l 1
 1314 0 l 1
 98 0 l 1
 96 10 l 1
 967 1352 l 1
 146 1352 l 1
 146 1516 l 1
 1303 1516 l 1
EndSplineSet
EndChar

StartChar: Zacute
Encoding: 377 377 110
Width: 1392
VWidth: 0
Flags: HW
LayerCount: 2
Fore
SplineSet
563 1703 m 2
 660 2065 l 1
 678 2128 718 2152 758 2152 c 0
 803 2152 849 2118 849 2065 c 0
 849 2041 838 2011 815 1980 c 2
 594 1689 l 1
 585 1674 574 1668 570 1668 c 0
 563 1668 560 1674 560 1683 c 0
 560 1688 561 1696 563 1703 c 2
1303 1515 m 1
 1311 1506 l 1
 442 168 l 1
 1314 168 l 1
 1314 0 l 1
 98 0 l 1
 96 11 l 1
 967 1352 l 1
 146 1352 l 1
 146 1515 l 1
 1303 1515 l 1
EndSplineSet
EndChar

StartChar: Zcaron
Encoding: 381 381 111
Width: 1392
VWidth: 0
Flags: HW
LayerCount: 2
Fore
SplineSet
704 1889 m 1
 1001 2095 l 2
 1004 2096 1004 2096 1005 2096 c 0
 1007 2096 1008 2095 1008 2094 c 0
 1008 2093 1008 2091 1007 2091 c 2
 742 1684 l 1
 734 1675 718 1669 704 1669 c 0
 690 1669 674 1675 667 1684 c 2
 402 2091 l 1
 402 2094 l 2
 402 2095 403 2096 404 2096 c 0
 405 2096 407 2096 410 2095 c 2
 704 1889 l 1
1303 1516 m 1
 1311 1506 l 1
 442 169 l 1
 1314 169 l 1
 1314 0 l 1
 98 0 l 1
 96 11 l 1
 967 1352 l 1
 146 1352 l 1
 146 1516 l 1
 1303 1516 l 1
EndSplineSet
EndChar

StartChar: Zdotaccent
Encoding: 379 379 112
Width: 1392
VWidth: 0
Flags: HW
LayerCount: 2
Fore
SplineSet
575 1796 m 0
 575 1885 640 1929 705 1929 c 0
 769 1929 835 1884 835 1796 c 0
 835 1710 769 1668 705 1668 c 0
 640 1668 575 1710 575 1796 c 0
1303 1515 m 1
 1311 1507 l 1
 442 169 l 1
 1314 169 l 1
 1314 0 l 1
 98 0 l 1
 96 11 l 1
 967 1352 l 1
 146 1352 l 1
 146 1515 l 1
 1303 1515 l 1
EndSplineSet
EndChar

StartChar: a
Encoding: 97 97 113
Width: 958
VWidth: 0
Flags: HW
LayerCount: 2
Fore
SplineSet
275 245 m 0
 275 27 527 130 602 224 c 1
 602 460 l 1
 477 419 275 380 275 245 c 0
86 230 m 0
 86 339 183 458 438 525 c 2
 602 568 l 1
 602 573 603 612 603 625 c 0
 603 755 544 841 433 841 c 0
 321 841 224 792 155 725 c 1
 104 878 l 1
 143 919 288 1006 429 1006 c 0
 595 1006 780 924 780 693 c 2
 780 285 l 2
 780 177 829 171 911 128 c 1
 813 -14 l 1
 751 15 663 71 631 138 c 1
 566 23 435 -21 354 -21 c 0
 207 -21 86 45 86 230 c 0
EndSplineSet
EndChar

StartChar: aacute
Encoding: 225 225 114
Width: 958
VWidth: 0
Flags: HW
LayerCount: 2
Fore
SplineSet
357 1183 m 2
 454 1545 l 1
 472 1607 512 1632 552 1632 c 0
 598 1632 643 1599 643 1545 c 0
 643 1521 632 1491 609 1460 c 2
 388 1169 l 1
 379 1155 368 1147 364 1147 c 0
 357 1147 354 1155 354 1163 c 0
 354 1168 355 1176 357 1183 c 2
275 245 m 0
 275 25 527 129 602 223 c 1
 602 459 l 1
 477 419 275 380 275 245 c 0
86 231 m 0
 86 340 183 457 438 525 c 1
 602 567 l 1
 602 572 603 612 603 625 c 0
 603 755 544 841 433 841 c 0
 321 841 224 791 155 724 c 1
 104 878 l 1
 143 918 288 1004 429 1004 c 0
 595 1004 780 923 780 693 c 2
 780 284 l 2
 780 177 829 170 911 127 c 1
 813 -15 l 1
 751 14 663 71 631 138 c 1
 566 23 435 -21 354 -21 c 0
 207 -21 86 45 86 231 c 0
EndSplineSet
EndChar

StartChar: abreve
Encoding: 259 259 115
Width: 958
VWidth: 0
Flags: HW
LayerCount: 2
Fore
SplineSet
730 1388 m 1
 724 1229 611 1149 499 1149 c 0
 386 1149 273 1229 267 1388 c 1
 372 1388 l 1
 381 1306 440 1265 498 1265 c 0
 556 1265 616 1306 625 1388 c 1
 730 1388 l 1
275 246 m 0
 275 27 527 130 602 225 c 1
 602 460 l 1
 477 420 275 382 275 246 c 0
86 231 m 0
 86 342 183 459 438 527 c 1
 602 569 l 1
 602 573 603 614 603 626 c 0
 603 756 544 843 433 843 c 0
 321 843 224 792 155 726 c 1
 104 879 l 1
 143 920 288 1006 429 1006 c 0
 595 1006 780 924 780 694 c 2
 780 286 l 2
 780 179 829 172 911 129 c 1
 813 -14 l 1
 751 15 663 71 631 140 c 1
 566 25 435 -19 354 -19 c 0
 207 -19 86 45 86 231 c 0
EndSplineSet
EndChar

StartChar: acircumflex
Encoding: 226 226 116
Width: 958
VWidth: 0
Flags: HW
LayerCount: 2
Fore
SplineSet
498 1356 m 1
 203 1150 l 2
 200 1149 200 1149 199 1149 c 0
 197 1149 195 1150 195 1151 c 0
 195 1152 195 1153 196 1153 c 2
 461 1561 l 1
 469 1570 484 1576 498 1576 c 0
 512 1576 530 1570 537 1561 c 2
 801 1153 l 1
 801 1151 l 2
 801 1150 800 1149 799 1149 c 0
 798 1149 797 1149 794 1150 c 2
 498 1356 l 1
275 244 m 0
 275 26 527 130 602 225 c 1
 602 460 l 1
 477 420 275 382 275 244 c 0
86 230 m 0
 86 341 183 459 438 527 c 1
 602 569 l 1
 602 572 603 613 603 626 c 0
 603 755 544 843 433 843 c 0
 321 843 224 791 155 725 c 1
 104 878 l 1
 143 920 288 1006 429 1006 c 0
 595 1006 780 923 780 692 c 2
 780 285 l 2
 780 177 829 171 911 129 c 1
 813 -14 l 1
 751 14 663 71 631 139 c 1
 566 25 435 -21 354 -21 c 0
 207 -21 86 45 86 230 c 0
EndSplineSet
EndChar

StartChar: acute
Encoding: 180 180 117
Width: 370
VWidth: 0
Flags: HW
LayerCount: 2
Fore
SplineSet
43 162 m 2
 140 524 l 1
 158 587 198 611 238 611 c 0
 284 611 329 577 329 524 c 0
 329 500 318 470 295 439 c 2
 74 148 l 1
 65 134 54 127 50 127 c 0
 43 127 40 134 40 142 c 0
 40 146 41 155 43 162 c 2
EndSplineSet
EndChar

StartChar: adieresis
Encoding: 228 228 118
Width: 958
VWidth: 0
Flags: HW
LayerCount: 2
Fore
SplineSet
569 1262 m 0
 569 1341 629 1382 687 1382 c 0
 745 1382 803 1341 803 1262 c 0
 803 1185 745 1149 687 1149 c 0
 629 1149 569 1186 569 1262 c 0
194 1262 m 0
 194 1341 252 1382 310 1382 c 0
 368 1382 428 1341 428 1262 c 0
 428 1185 368 1149 310 1149 c 0
 252 1149 194 1186 194 1262 c 0
275 245 m 0
 275 26 527 130 602 225 c 1
 602 460 l 1
 477 420 275 380 275 245 c 0
86 231 m 0
 86 341 183 459 438 527 c 1
 602 569 l 1
 602 573 603 614 603 626 c 0
 603 755 544 843 433 843 c 0
 321 843 224 791 155 725 c 1
 104 879 l 1
 143 920 288 1007 429 1007 c 0
 595 1007 780 923 780 693 c 2
 780 286 l 2
 780 178 829 171 911 129 c 1
 813 -14 l 1
 751 14 663 72 631 140 c 1
 566 25 435 -20 354 -20 c 0
 207 -20 86 46 86 231 c 0
EndSplineSet
EndChar

StartChar: ae
Encoding: 230 230 119
Width: 1528
VWidth: 0
Flags: HW
LayerCount: 2
Fore
SplineSet
715 818 m 1
 782 950 908 1017 1048 1017 c 0
 1269 1017 1412 805 1412 525 c 2
 1412 498 l 1
 781 498 l 1
 784 253 931 134 1103 134 c 0
 1190 134 1286 167 1371 230 c 1
 1371 73 l 1
 1287 12 1190 -17 1094 -17 c 0
 940 -17 791 58 711 186 c 1
 666 101 500 -19 355 -19 c 0
 207 -19 87 48 87 232 c 0
 87 342 184 460 438 527 c 2
 603 570 l 1
 603 574 604 615 604 628 c 0
 604 757 546 843 434 843 c 0
 322 843 226 792 156 727 c 1
 105 879 l 1
 144 921 289 1008 431 1008 c 0
 537 1008 680 951 715 818 c 1
276 245 m 0
 276.335973062 150.754272332 324.214511284 116 385 116 c 0
 484 116 606 198 658 277 c 1
 637 337 625 401 614 467 c 1
 485 425 276 385 276 245 c 0
1248 618 m 1
 1249 618 l 1
 1248 762 1162 867 1048 867 c 0
 898 867 810 757 787 618 c 1
 1248 618 l 1
EndSplineSet
EndChar

StartChar: agrave
Encoding: 224 224 120
Width: 958
VWidth: 0
Flags: HW
LayerCount: 2
Fore
SplineSet
548 1559 m 1
 633 1181 l 1
 636 1174 636 1167 636 1162 c 0
 636 1154 632 1147 628 1147 c 0
 621 1147 611 1154 602 1167 c 2
 392 1474 l 1
 369 1503 361 1530 361 1555 c 0
 361 1607 406 1644 453 1644 c 0
 489 1644 528 1620 548 1559 c 1
275 245 m 0
 275 25 527 129 602 223 c 1
 602 460 l 1
 477 419 275 380 275 245 c 0
86 231 m 0
 86 340 183 458 438 525 c 1
 602 567 l 1
 602 572 603 612 603 625 c 0
 603 755 544 841 433 841 c 0
 321 841 224 791 155 724 c 1
 104 878 l 1
 143 920 288 1007 429 1007 c 0
 595 1007 780 923 780 693 c 2
 780 284 l 2
 780 177 829 171 911 128 c 1
 813 -15 l 1
 751 15 663 72 631 138 c 1
 566 24 435 -21 354 -21 c 0
 207 -21 86 45 86 231 c 0
EndSplineSet
EndChar

StartChar: amacron
Encoding: 257 257 121
Width: 958
VWidth: 0
Flags: HW
LayerCount: 2
Fore
SplineSet
242 1149 m 1
 242 1301 l 1
 755 1301 l 1
 755 1149 l 1
 242 1149 l 1
275 244 m 0
 275 26 527 129 602 225 c 1
 602 459 l 1
 477 419 275 381 275 244 c 0
86 230 m 0
 86 340 183 458 438 526 c 1
 602 569 l 1
 602 573 603 613 603 626 c 0
 603 756 544 842 433 842 c 0
 321 842 224 791 155 726 c 1
 104 878 l 1
 143 919 288 1006 429 1006 c 0
 595 1006 780 922 780 692 c 2
 780 285 l 2
 780 178 829 170 911 128 c 1
 813 -15 l 1
 751 15 663 71 631 139 c 1
 566 24 435 -20 354 -20 c 0
 207 -20 86 45 86 230 c 0
EndSplineSet
EndChar

StartChar: aogonek
Encoding: 261 261 122
Width: 958
VWidth: 0
Flags: HW
LayerCount: 2
Fore
SplineSet
275 244 m 0
 275 26 527 129 602 223 c 1
 602 460 l 1
 477 419 275 380 275 244 c 0
86 230 m 0
 86 340 183 459 438 525 c 2
 602 568 l 1
 602 571 603 611 603 624 c 0
 603 754 544 841 433 841 c 0
 321 841 224 791 155 725 c 1
 104 877 l 1
 143 919 288 1006 429 1006 c 0
 595 1006 780 923 780 692 c 2
 780 284 l 2
 780 176 829 171 911 128 c 1
 813 -14 l 1
 737 -41 696 -92 696 -141 c 0
 696 -204 760 -265 883 -265 c 2
 884 -265 l 1
 854 -390 l 1
 840 -394 825 -395 812 -395 c 0
 670 -395 576 -287 576 -175 c 0
 575.999999996 -82.0542109097 630.06670839 7.7572762508 738.893744622 27.1533753575 c 1
 694.341424036 56.7012586621 651.34860374 95.0310047864 631 137 c 1
 566 24 435 -22 354 -22 c 0
 207 -22 86 44 86 230 c 0
EndSplineSet
EndChar

StartChar: aring
Encoding: 229 229 123
Width: 958
VWidth: 0
Flags: HW
LayerCount: 2
Fore
SplineSet
374 1366 m 0
 374 1290 437 1250 499 1250 c 0
 561 1250 621 1290 621 1366 c 0
 621 1444 560 1480 498 1480 c 0
 436 1480 374 1444 374 1366 c 0
737 1366 m 0
 737 1222 618 1148 498 1148 c 0
 379 1148 260 1223 260 1368 c 0
 260 1510 379 1582 499 1582 c 0
 618 1582 737 1510 737 1366 c 0
275 245 m 0
 275 26 527 129 602 224 c 1
 602 460 l 1
 477 420 275 381 275 245 c 0
86 231 m 0
 86 341 183 459 438 526 c 2
 602 569 l 1
 602 573 603 613 603 626 c 0
 603 756 544 842 433 842 c 0
 321 842 224 791 155 726 c 1
 104 878 l 1
 143 920 288 1007 429 1007 c 0
 595 1007 780 924 780 694 c 2
 780 285 l 2
 780 178 829 171 911 128 c 1
 813 -15 l 1
 751 14 663 72 631 139 c 1
 566 25 435 -20 354 -20 c 0
 207 -20 86 46 86 231 c 0
EndSplineSet
EndChar

StartChar: asciicircum
Encoding: 94 94 124
Width: 1304
VWidth: 0
Flags: HW
LayerCount: 2
Fore
SplineSet
722 1515 m 1
 1129 932 l 1
 921 932 l 1
 648 1385 l 1
 368 932 l 1
 175 932 l 1
 565 1515 l 1
 722 1515 l 1
EndSplineSet
EndChar

StartChar: asciitilde
Encoding: 126 126 125
Width: 624
VWidth: 0
Flags: HW
LayerCount: 2
Fore
SplineSet
117 319 m 0
 71 319 41 280 28 280 c 0
 22 280 17 284 17 291 c 0
 17 295 19 298 22 304 c 0
 66 377 116 427 195 427 c 0
 301 427 435 351 506 351 c 0
 554 351 583 391 598 391 c 0
 603 391 607 387 607 380 c 0
 607 376 605 373 603 367 c 1
 553 294 496 244 410 244 c 0
 333 244 215 319 117 319 c 0
EndSplineSet
EndChar

StartChar: atilde
Encoding: 227 227 126
Width: 958
VWidth: 0
Flags: HW
LayerCount: 2
Fore
SplineSet
269 1237 m 0
 213 1237 180 1191 164 1191 c 0
 156 1191 150 1196 150 1204 c 0
 150 1210 151 1213 156 1220 c 0
 208 1307 267 1365 361 1365 c 0
 486 1365 643 1276 727 1276 c 0
 785 1276 817 1322 834 1322 c 0
 842 1322 846 1317 846 1309 c 0
 846 1304 845 1300 842 1293 c 1
 784 1207 715 1149 615 1149 c 0
 523 1149 382 1237 269 1237 c 0
275 245 m 0
 275 26 527 129 602 224 c 1
 602 460 l 1
 477 419 275 381 275 245 c 0
86 231 m 0
 86 341 183 459 438 526 c 2
 602 569 l 1
 602 573 603 613 603 626 c 0
 603 755 544 842 433 842 c 0
 321 842 224 791 155 725 c 1
 104 878 l 1
 143 920 288 1006 429 1006 c 0
 595 1006 780 923 780 693 c 2
 780 285 l 2
 780 177 829 171 911 128 c 1
 813 -15 l 1
 751 14 663 72 631 139 c 1
 566 25 435 -20 354 -20 c 0
 207 -20 86 45 86 231 c 0
EndSplineSet
EndChar

StartChar: b
Encoding: 98 98 127
Width: 1063
VWidth: 0
Flags: HW
LayerCount: 2
Fore
SplineSet
286 767 m 1
 286 136 l 1
 332 115 382 115 426 115 c 0
 653 115 795 299 795 532 c 0
 795 732 707 869 556 869 c 0
 385 869 286 767 286 767 c 1
107 49 m 1
 107 1490 l 1
 286 1490 l 1
 286 927 l 1
 377 990 473 1017 564 1017 c 0
 788 1017 982 843 982 545 c 0
 982 212 778 -18 420 -18 c 0
 244 -18 107 49 107 49 c 1
EndSplineSet
EndChar

StartChar: backslash
Encoding: 92 92 128
Width: 1096
VWidth: 0
Flags: HW
LayerCount: 2
Fore
SplineSet
85 1516 m 1
 275 1516 l 1
 1016 0 l 1
 824 0 l 1
 85 1516 l 1
EndSplineSet
EndChar

StartChar: bar
Encoding: 124 124 129
Width: 429
VWidth: 0
Flags: HW
LayerCount: 2
Fore
SplineSet
311 1645 m 1
 311 -129 l 1
 119 -129 l 1
 119 1645 l 1
 311 1645 l 1
EndSplineSet
EndChar

StartChar: braceleft
Encoding: 123 123 130
Width: 740
VWidth: 0
Flags: HW
LayerCount: 2
Fore
SplineSet
82 653 m 1
 82 818 l 1
 92 818 98 819 108 819 c 0
 204 828 278 885 278 1031 c 2
 278 1425 l 1
 277 1651 463 1737 650 1737 c 1
 650 1570 l 1
 543 1570 455 1515 455 1357 c 2
 455 964 l 2
 455 860 387 787 282 736 c 1
 387 687 455 612 455 508 c 2
 455 115 l 2
 455 -43 543 -99 650 -99 c 1
 650 -266 l 1
 463 -266 278 -177 278 47 c 2
 278 442 l 2
 278 587 204 643 108 652 c 0
 98 652 92 653 82 653 c 1
EndSplineSet
EndChar

StartChar: braceright
Encoding: 125 125 131
Width: 740
VWidth: 0
Flags: HW
LayerCount: 2
Fore
SplineSet
659 653 m 1
 649 653 643 652 633 652 c 0
 537 643 463 587 463 442 c 2
 463 47 l 2
 463 -177 278 -266 91 -266 c 1
 91 -99 l 1
 198 -99 286 -43 286 115 c 2
 286 508 l 2
 286 612 354 687 459 736 c 1
 354 787 286 860 286 964 c 2
 286 1357 l 2
 286 1515 198 1570 91 1570 c 1
 91 1737 l 1
 278 1737 464 1651 463 1425 c 1
 463 1031 l 2
 463 885 537 828 633 819 c 0
 643 819 649 818 659 818 c 1
 659 653 l 1
EndSplineSet
EndChar

StartChar: bracketleft
Encoding: 91 91 132
Width: 711
VWidth: 0
Flags: HW
LayerCount: 2
Fore
SplineSet
120 -18 m 1
 120 1567 l 1
 697 1567 l 1
 697 1382 l 1
 333 1382 l 1
 333 167 l 1
 697 167 l 1
 697 -18 l 1
 120 -18 l 1
EndSplineSet
EndChar

StartChar: bracketright
Encoding: 93 93 133
Width: 713
VWidth: 0
Flags: HW
LayerCount: 2
Fore
SplineSet
667 1567 m 1
 667 -18 l 1
 91 -18 l 1
 91 167 l 1
 453 167 l 1
 453 1382 l 1
 91 1382 l 1
 91 1567 l 1
 667 1567 l 1
EndSplineSet
EndChar

StartChar: breve
Encoding: 728 728 134
Width: 648
VWidth: 0
Flags: HW
LayerCount: 2
Fore
SplineSet
557 412 m 1
 551 253 438 173 326 173 c 0
 213 173 100 253 94 412 c 1
 199 412 l 1
 208 330 267 287 325 287 c 0
 383 287 443 330 452 412 c 1
 557 412 l 1
EndSplineSet
EndChar

StartChar: c
Encoding: 99 99 135
Width: 964
VWidth: 0
Flags: HW
LayerCount: 2
Fore
SplineSet
592 -19 m 0
 303 -19 81 195 81 500 c 0
 81 811 318 1017 585 1017 c 0
 671 1017 785 997 840 961 c 1
 840 798 l 1
 751 846 702 863 601 863 c 0
 384 863 265 674 265 501 c 0
 265 328 375 133 604 133 c 0
 683 133 774 168 846 211 c 1
 863 211 l 1
 863 44 l 1
 772 -13 617 -19 592 -19 c 0
EndSplineSet
EndChar

StartChar: cacute
Encoding: 263 263 136
Width: 964
VWidth: 0
Flags: HW
LayerCount: 2
Fore
SplineSet
330 1184 m 2
 427 1546 l 1
 445 1608 485 1633 525 1633 c 0
 570 1633 616 1599 616 1546 c 0
 616 1522 605 1492 582 1461 c 2
 361 1170 l 1
 352 1156 341 1148 337 1148 c 0
 330 1148 327 1156 327 1163 c 0
 327 1169 328 1177 330 1184 c 2
592 -19 m 0
 303 -19 81 194 81 500 c 0
 81 810 318 1016 585 1016 c 0
 671 1016 785 997 840 961 c 1
 840 797 l 1
 751 845 702 863 601 863 c 0
 384 863 265 674 265 501 c 0
 265 327 375 132 604 132 c 0
 683 132 774 167 846 211 c 1
 863 211 l 1
 863 45 l 1
 772 -13 617 -19 592 -19 c 0
EndSplineSet
EndChar

StartChar: caron
Encoding: 711 711 137
Width: 757
VWidth: 0
Flags: HW
LayerCount: 2
Fore
SplineSet
378 362 m 1
 675 568 l 2
 678 569 678 569 679 569 c 0
 681 569 682 568 682 567 c 0
 682 566 682 565 681 565 c 2
 416 157 l 1
 408 148 392 142 378 142 c 0
 364 142 348 148 341 157 c 2
 76 565 l 1
 76 567 l 2
 76 568 77 569 78 569 c 0
 79 569 81 569 84 568 c 2
 378 362 l 1
EndSplineSet
EndChar

StartChar: ccaron
Encoding: 269 269 138
Width: 964
VWidth: 0
Flags: HW
LayerCount: 2
Fore
SplineSet
471 1368 m 1
 768 1574 l 2
 771 1576 771 1576 772 1576 c 0
 774 1576 775 1574 775 1573 c 0
 775 1572 775 1571 774 1571 c 2
 509 1164 l 1
 501 1154 485 1149 471 1149 c 0
 457 1149 441 1154 434 1164 c 2
 169 1571 l 1
 169 1573 l 2
 169 1574 170 1576 171 1576 c 0
 172 1576 174 1576 177 1574 c 2
 471 1368 l 1
592 -20 m 0
 303 -20 81 195 81 500 c 0
 81 809 318 1017 585 1017 c 0
 671 1017 785 995 840 961 c 1
 840 796 l 1
 751 846 702 862 601 862 c 0
 384 862 265 675 265 501 c 0
 265 328 375 132 604 132 c 0
 683 132 774 167 846 212 c 1
 863 212 l 1
 863 44 l 1
 772 -13 617 -20 592 -20 c 0
EndSplineSet
EndChar

StartChar: ccedilla
Encoding: 231 231 139
Width: 964
VWidth: 0
Flags: HW
LayerCount: 2
Fore
SplineSet
265 -399 m 1
 261 -395 253 -390 253 -385 c 0
 253 -383 258 -380 266 -380 c 0
 291 -380 356 -397 419 -397 c 0
 476 -397 531 -383 531 -327 c 0
 531 -251 374 -261 348 -261 c 1
 434 -6 l 1
 466.641514522 -6 l 1
 241.22717753 45.9614230785 81 238.336997479 81 500 c 0
 81 808 318 1017 585 1017 c 0
 671 1017 785 995 840 961 c 1
 840 795 l 1
 751 845 702 862 601 862 c 0
 384 862 265 674 265 501 c 0
 265 328 375 131 604 131 c 0
 683 131 774 167 846 211 c 1
 863 211 l 1
 863 43 l 1
 772 -14 617 -20 592 -20 c 0
 563.124416092 -20 534.917700566 -17.8835806401 507.534460901 -13.7664481616 c 1
 470 -132 l 1
 586 -132 663 -201 663 -293 c 0
 663 -406 561 -445 457 -445 c 0
 383 -445 308 -426 265 -399 c 1
EndSplineSet
EndChar

StartChar: ccircumflex
Encoding: 265 265 140
Width: 964
VWidth: 0
Flags: HW
LayerCount: 2
Fore
SplineSet
472 1355 m 1
 177 1150 l 2
 174 1149 174 1149 173 1149 c 0
 171 1149 169 1150 169 1151 c 0
 169 1152 169 1153 170 1153 c 2
 435 1560 l 1
 443 1570 458 1576 472 1576 c 0
 486 1576 504 1570 511 1560 c 2
 775 1153 l 1
 775 1151 l 2
 775 1150 774 1149 773 1149 c 0
 772 1149 771 1149 768 1150 c 2
 472 1355 l 1
592 -20 m 0
 303 -20 81 195 81 500 c 0
 81 809 318 1017 585 1017 c 0
 671 1017 785 995 840 961 c 1
 840 796 l 1
 751 846 702 862 601 862 c 0
 384 862 265 675 265 501 c 0
 265 328 375 132 604 132 c 0
 683 132 774 167 846 212 c 1
 863 212 l 1
 863 44 l 1
 772 -13 617 -20 592 -20 c 0
EndSplineSet
EndChar

StartChar: cdotaccent
Encoding: 267 267 141
Width: 964
VWidth: 0
Flags: HW
LayerCount: 2
Fore
SplineSet
342 1275 m 0
 342 1365 407 1409 472 1409 c 0
 536 1409 602 1363 602 1275 c 0
 602 1189 536 1148 472 1148 c 0
 407 1148 342 1189 342 1275 c 0
592 -20 m 0
 303 -20 81 194 81 499 c 0
 81 809 318 1016 585 1016 c 0
 671 1016 785 996 840 960 c 1
 840 796 l 1
 751 844 702 863 601 863 c 0
 384 863 265 675 265 501 c 0
 265 327 375 132 604 132 c 0
 683 132 774 166 846 210 c 1
 863 210 l 1
 863 44 l 1
 772 -13 617 -20 592 -20 c 0
EndSplineSet
EndChar

StartChar: cedilla
Encoding: 184 184 142
Width: 538
VWidth: 0
Flags: HW
LayerCount: 2
Fore
SplineSet
70 243 m 1
 66 247 58 253 58 257 c 0
 58 260 63 262 71 262 c 0
 96 262 162 246 224 246 c 0
 281 246 337 260 337 316 c 0
 337 390 179 381 153 381 c 1
 239 636 l 1
 315 636 l 1
 275 509 l 1
 392 509 469 441 469 349 c 0
 469 236 367 198 262 198 c 0
 188 198 114 217 70 243 c 1
EndSplineSet
EndChar

StartChar: cent
Encoding: 162 162 143
Width: 992
VWidth: 0
Flags: HW
LayerCount: 2
Fore
SplineSet
561 839 m 1
 560 839 l 1
 385 808 291 648 291 497 c 0
 291 351 379 189 561 155 c 1
 561 839 l 1
561 1 m 1
 301 27 108 222 108 496 c 0
 108 779 316 975 561 997 c 1
 561 1084 561 1169 561 1255 c 1
 647 1254 l 1
 647 1000 l 1
 727 995 817 977 865 946 c 1
 865 782 l 1
 785 826 736 846 647 848 c 1
 647 152 l 1
 724 158 805 190 873 231 c 1
 890 231 l 1
 890 63 l 1
 816 19 703 6 647 2 c 1
 647 -215 l 1
 561 -215 l 1
 561 1 l 1
EndSplineSet
EndChar

StartChar: circumflex
Encoding: 710 710 144
Width: 768
VWidth: 0
Flags: HW
LayerCount: 2
Fore
SplineSet
384 349 m 1
 89 143 l 2
 86 142 86 142 85 142 c 0
 83 142 81 143 81 144 c 0
 81 146 81 147 82 147 c 2
 347 554 l 1
 355 564 370 569 384 569 c 0
 398 569 416 564 423 554 c 2
 687 147 l 1
 687 144 l 2
 687 143 686 142 685 142 c 0
 684 142 683 142 680 143 c 2
 384 349 l 1
EndSplineSet
EndChar

StartChar: colon
Encoding: 58 58 145
Width: 640
VWidth: 0
Flags: HW
LayerCount: 2
Fore
SplineSet
190 236 m 0
 190 326 255 369 320 369 c 0
 384 369 450 325 450 236 c 0
 450 151 384 110 320 110 c 0
 255 110 190 151 190 236 c 0
190 803 m 0
 190 894 255 937 320 937 c 0
 384 937 450 892 450 803 c 0
 450 719 384 678 320 678 c 0
 255 678 190 719 190 803 c 0
EndSplineSet
EndChar

StartChar: comma
Encoding: 44 44 146
Width: 647
VWidth: 0
Flags: HW
LayerCount: 2
Fore
SplineSet
225 -232 m 1
 202 -209 l 1
 263 -153 287 -101 287 -22 c 1
 219 -1 188 49 188 101 c 0
 188 192 253 239 321 239 c 0
 389 239 462 193 462 93 c 0
 462 -41 329 -232 225 -232 c 1
EndSplineSet
EndChar

StartChar: copyright
Encoding: 169 169 147
Width: 1814
VWidth: 0
Flags: HW
LayerCount: 2
Fore
SplineSet
905 0 m 0
 546 0 184 242 184 724 c 0
 184 1207 549 1446 908 1446 c 0
 1267 1446 1630 1207 1630 724 c 0
 1630 243 1265 0 905 0 c 0
906 1331 m 0
 616 1331 321 1130 321 724 c 0
 321 320 616 116 907 116 c 0
 1198 116 1493 319 1493 724 c 0
 1493 1128 1197 1331 906 1331 c 0
920 346 m 0
 990 346 1061 365 1144 405 c 1
 1144 292 l 1
 1061 253 992 237 917 237 c 0
 658 237 459 437 459 719 c 0
 459 1001 666 1208 926 1208 c 0
 992 1208 1076 1193 1144 1164 c 1
 1144 1053 l 1
 1074 1085 997 1101 936 1101 c 0
 732 1101 590 931 590 720 c 0
 590 507 712 346 920 346 c 0
EndSplineSet
EndChar

StartChar: d
Encoding: 100 100 148
Width: 1064
VWidth: 0
Flags: HW
LayerCount: 2
Fore
SplineSet
652 115 m 0
 692 115 735 117 776 136 c 1
 776 793 l 1
 731 840 649 871 565 871 c 0
 372 871 267 695 267 510 c 0
 267 309 388 115 652 115 c 0
639 -18 m 0
 256 -18 81 250 81 515 c 0
 81 768 242 1017 542 1017 c 0
 623 1017 704 997 776 953 c 1
 776 1490 l 1
 955 1490 l 1
 955 49 l 1
 955 49 814 -18 639 -18 c 0
EndSplineSet
EndChar

StartChar: dcaron
Encoding: 271 271 149
Width: 1065
VWidth: 0
Flags: HW
LayerCount: 2
Fore
SplineSet
1190 1018 m 1
 1167 1042 l 1
 1228 1098 1253 1150 1253 1229 c 1
 1185 1249 1153 1301 1153 1353 c 0
 1153 1443 1217 1490 1285 1490 c 0
 1356 1490 1428 1444 1428 1344 c 0
 1428 1210 1296 1018 1190 1018 c 1
652 115 m 0
 692 115 736 117 775 136 c 1
 775 793 l 1
 729 840 648 871 564 871 c 0
 370 871 266 695 266 510 c 0
 266 309 388 115 652 115 c 0
639 -18 m 0
 255 -18 79 250 79 515 c 0
 79 768 241 1017 540 1017 c 0
 622 1017 704 997 775 953 c 1
 775 1490 l 1
 955 1490 l 1
 955 49 l 1
 955 49 814 -18 639 -18 c 0
EndSplineSet
EndChar

StartChar: dcroat
Encoding: 273 273 150
Width: 1064
VWidth: 0
Flags: HW
LayerCount: 2
Fore
SplineSet
653 115 m 0
 692 115 734 117 775 136 c 1
 775 793 l 1
 730 840 648 871 563 871 c 0
 371 871 267 695 267 510 c 0
 267 309 388 115 653 115 c 0
640 -18 m 0
 256 -18 80 250 80 515 c 0
 80 768 242 1017 541 1017 c 0
 623 1017 704 997 775 953 c 1
 775 1191 l 1
 446 1191 l 1
 446 1320 l 1
 775 1320 l 1
 775 1490 l 1
 956 1490 l 1
 956 1320 l 1
 1064 1320 l 1
 1064 1191 l 1
 956 1191 l 1
 956 49 l 1
 956 49 814 -18 640 -18 c 0
EndSplineSet
EndChar

StartChar: dieresis
Encoding: 168 168 151
Width: 801
VWidth: 0
Flags: HW
LayerCount: 2
Fore
SplineSet
472 110 m 0
 472 190 532 230 590 230 c 0
 648 230 706 190 706 110 c 0
 706 34 648 -3 590 -3 c 0
 532 -3 472 35 472 110 c 0
97 110 m 0
 97 190 155 230 213 230 c 0
 271 230 331 190 331 110 c 0
 331 34 271 -3 213 -3 c 0
 155 -3 97 35 97 110 c 0
EndSplineSet
EndChar

StartChar: dollar
Encoding: 36 36 152
Width: 1122
VWidth: 0
Flags: HW
LayerCount: 2
Fore
SplineSet
540 919 m 1
 540 1354 l 1
 416 1334 353 1257 353 1170 c 0
 353 1092 406 1011 498 948 c 2
 540 919 l 1
627 608 m 1
 627 174 l 1
 723 198 792 266 792 376 c 0
 792 446 772 505 633 605 c 1
 627 608 l 1
627 -147 m 2
 627 -190 607 -212 587 -212 c 0
 564 -212 540 -188 540 -145 c 2
 540 -14 l 1
 535 -14 l 2
 404 -14 272 32 176 121 c 1
 176 343 l 1
 269 266 365 169 540 166 c 1
 540 671 l 1
 318 831 l 1
 200 913 145 1033 145 1149 c 0
 145 1334 287 1514 540 1535 c 1
 540 1672 l 2
 540 1715 564 1739 587 1739 c 0
 607 1739 627 1717 627 1674 c 2
 627 1535 l 1
 760 1525 899 1464 926 1439 c 1
 926 1224 l 1
 898 1247 763 1347 627 1357 c 1
 627 859 l 1
 755 768 l 2
 932 643 983 534 983 390 c 0
 983 159 819 26 627 -7 c 1
 627 -147 l 2
EndSplineSet
EndChar

StartChar: dotlessi
Encoding: 305 305 153
Width: 457
VWidth: 0
Flags: HW
LayerCount: 2
Fore
SplineSet
343 998 m 1
 343 0 l 1
 162 0 l 1
 162 998 l 1
 343 998 l 1
EndSplineSet
EndChar

StartChar: e
Encoding: 101 101 154
Width: 1051
VWidth: 0
Flags: HW
LayerCount: 2
Fore
SplineSet
783 618 m 1
 782 762 678 867 538 867 c 0
 390 867 302 757 278 618 c 1
 783 618 l 1
615 -19 m 0
 292 -19 80 198 80 515 c 0
 80 788 269 1016 532 1016 c 0
 812 1016 946 812 946 525 c 2
 946 498 l 1
 272 498 l 1
 274 283 401 130 614 130 c 0
 723 130 829 163 928 229 c 1
 928 72 l 1
 837 12 733 -19 615 -19 c 0
EndSplineSet
EndChar

StartChar: eacute
Encoding: 233 233 155
Width: 1051
VWidth: 0
Flags: HW
LayerCount: 2
Fore
SplineSet
373 1184 m 2
 468 1546 l 1
 487 1608 528 1633 567 1633 c 0
 612 1633 659 1599 659 1546 c 0
 659 1522 648 1492 624 1461 c 2
 402 1170 l 1
 393 1156 384 1148 377 1148 c 0
 373 1148 370 1156 370 1163 c 0
 370 1169 371 1177 373 1184 c 2
783 617 m 1
 782 761 678 867 538 867 c 0
 390 867 302 757 278 617 c 1
 783 617 l 1
615 -19 m 0
 292 -19 80 198 80 515 c 0
 80 787 269 1015 532 1015 c 0
 812 1015 946 811 946 525 c 2
 946 498 l 1
 272 498 l 1
 274 283 401 130 614 130 c 0
 723 130 829 163 928 227 c 1
 928 71 l 1
 837 11 733 -19 615 -19 c 0
EndSplineSet
EndChar

StartChar: ecaron
Encoding: 283 283 156
Width: 1051
VWidth: 0
Flags: HW
LayerCount: 2
Fore
SplineSet
510 1368 m 1
 809 1574 l 1
 810 1576 810 1576 811 1576 c 0
 814 1576 815 1574 815 1573 c 0
 815 1572 815 1571 814 1571 c 2
 548 1164 l 1
 543 1154 524 1149 510 1149 c 0
 496 1149 481 1154 475 1164 c 2
 209 1571 l 1
 209 1573 l 2
 209 1574 212 1576 213 1576 c 0
 214 1576 216 1576 217 1574 c 1
 510 1368 l 1
783 618 m 1
 782 761 678 866 538 866 c 0
 390 866 302 757 278 618 c 1
 783 618 l 1
615 -20 m 0
 292 -20 80 198 80 516 c 0
 80 787 269 1016 532 1016 c 0
 812 1016 946 810 946 523 c 2
 946 498 l 1
 272 498 l 1
 274 282 401 130 614 130 c 0
 723 130 829 161 928 228 c 1
 928 71 l 1
 837 12 733 -20 615 -20 c 0
EndSplineSet
EndChar

StartChar: ecircumflex
Encoding: 234 234 157
Width: 1051
VWidth: 0
Flags: HW
LayerCount: 2
Fore
SplineSet
514 1355 m 1
 217 1150 l 2
 216 1149 216 1149 215 1149 c 0
 213 1149 209 1150 209 1151 c 0
 209 1152 209 1153 212 1153 c 1
 476 1560 l 2
 482 1570 498 1576 514 1576 c 0
 528 1576 545 1570 551 1560 c 2
 815 1153 l 1
 815 1151 l 2
 815 1150 814 1149 812 1149 c 0
 811 1149 810 1149 809 1150 c 2
 514 1355 l 1
783 618 m 1
 782 761 678 866 538 866 c 0
 390 866 302 757 278 618 c 1
 783 618 l 1
615 -20 m 0
 292 -20 80 198 80 516 c 0
 80 787 269 1016 532 1016 c 0
 812 1016 946 810 946 523 c 2
 946 498 l 1
 272 498 l 1
 274 282 401 130 614 130 c 0
 723 130 829 161 928 228 c 1
 928 71 l 1
 837 12 733 -20 615 -20 c 0
EndSplineSet
EndChar

StartChar: edieresis
Encoding: 235 235 158
Width: 1051
VWidth: 0
Flags: HW
LayerCount: 2
Fore
SplineSet
583 1262 m 0
 583 1341 643 1382 702 1382 c 0
 760 1382 819 1341 819 1262 c 0
 819 1185 760 1149 702 1149 c 0
 643 1149 583 1186 583 1262 c 0
207 1262 m 0
 207 1341 266 1382 324 1382 c 0
 384 1382 443 1341 443 1262 c 0
 443 1185 384 1149 324 1149 c 0
 266 1149 207 1186 207 1262 c 0
783 618 m 1
 782 762 678 867 538 867 c 0
 390 867 302 758 278 618 c 1
 783 618 l 1
615 -19 m 0
 292 -19 80 198 80 516 c 0
 80 788 269 1016 532 1016 c 0
 812 1016 946 811 946 524 c 2
 946 498 l 1
 272 498 l 1
 274 283 401 130 614 130 c 0
 723 130 829 162 928 229 c 1
 928 72 l 1
 837 12 733 -19 615 -19 c 0
EndSplineSet
EndChar

StartChar: edotaccent
Encoding: 279 279 159
Width: 1051
VWidth: 0
Flags: HW
LayerCount: 2
Fore
SplineSet
384 1275 m 0
 384 1365 448 1409 514 1409 c 0
 577 1409 642 1363 642 1275 c 0
 642 1189 577 1148 514 1148 c 0
 448 1148 384 1189 384 1275 c 0
783 618 m 1
 782 762 678 866 538 866 c 0
 390 866 302 756 278 618 c 1
 783 618 l 1
615 -20 m 0
 292 -20 80 197 80 515 c 0
 80 787 269 1014 532 1014 c 0
 812 1014 946 811 946 524 c 2
 946 497 l 1
 272 497 l 1
 274 282 401 129 614 129 c 0
 723 129 829 162 928 229 c 1
 928 72 l 1
 837 12 733 -20 615 -20 c 0
EndSplineSet
EndChar

StartChar: egrave
Encoding: 232 232 160
Width: 1051
VWidth: 0
Flags: HW
LayerCount: 2
Fore
SplineSet
563 1558 m 1
 649 1181 l 2
 651 1173 651 1167 651 1161 c 0
 651 1154 648 1147 642 1147 c 0
 636 1147 625 1154 616 1167 c 2
 406 1474 l 2
 385 1503 375 1530 375 1555 c 0
 375 1607 421 1644 467 1644 c 0
 505 1644 544 1620 563 1558 c 1
783 618 m 1
 782 761 678 866 538 866 c 0
 390 866 302 756 278 618 c 1
 783 618 l 1
615 -20 m 0
 292 -20 80 197 80 514 c 0
 80 787 269 1014 532 1014 c 0
 812 1014 946 811 946 524 c 2
 946 497 l 1
 272 497 l 1
 274 282 401 129 614 129 c 0
 723 129 829 162 928 227 c 1
 928 71 l 1
 837 10 733 -20 615 -20 c 0
EndSplineSet
EndChar

StartChar: eight
Encoding: 56 56 161
Width: 1176
VWidth: 0
Flags: HW
LayerCount: 2
Fore
SplineSet
1048 1179 m 1
 1050 1179 l 1
 1050 1035 969 891 792 793 c 1
 992 671 1080 509 1080 355 c 0
 1080 107 837 -19 596 -19 c 0
 355 -19 101 108 101 354 c 0
 101 521 193 688 407 793 c 1
 219 878 132 1026 132 1173 c 0
 132 1362 297 1535 588 1535 c 0
 877 1535 1048 1362 1048 1179 c 1
589 128 m 0
 747 128 902 202 902 380 c 0
 902 518 773 676 589 721 c 1
 384 654 283 519 283 375 c 0
 283 209 430 128 589 128 c 0
301 1173 m 1
 300 1173 l 1
 300 1045 406 900 589 859 c 1
 770 900 877 1045 877 1173 c 0
 877 1316 733 1388 589 1388 c 0
 445 1388 301 1316 301 1173 c 1
EndSplineSet
EndChar

StartChar: ellipsis
Encoding: 8230 8230 162
Width: 1387
VWidth: 0
Flags: HW
LayerCount: 2
Fore
SplineSet
192 110 m 0
 192 199 257 243 320 243 c 0
 386 243 450 197 450 110 c 0
 450 24 386 -18 320 -18 c 0
 257 -18 192 24 192 110 c 0
660 110 m 0
 660 199 726 243 790 243 c 0
 855 243 920 197 920 110 c 0
 920 24 855 -18 790 -18 c 0
 726 -18 660 24 660 110 c 0
1129 110 m 0
 1129 199 1193 243 1259 243 c 0
 1322 243 1387 197 1387 110 c 0
 1387 24 1322 -18 1259 -18 c 0
 1193 -18 1129 24 1129 110 c 0
EndSplineSet
EndChar

StartChar: emacron
Encoding: 275 275 163
Width: 1051
VWidth: 0
Flags: HW
LayerCount: 2
Fore
SplineSet
256 1150 m 1
 256 1302 l 1
 770 1302 l 1
 770 1150 l 1
 256 1150 l 1
783 618 m 1
 782 762 678 867 538 867 c 0
 390 867 302 758 278 618 c 1
 783 618 l 1
615 -18 m 0
 292 -18 80 200 80 517 c 0
 80 788 269 1016 532 1016 c 0
 812 1016 946 811 946 526 c 2
 946 498 l 1
 272 498 l 1
 274 284 401 130 614 130 c 0
 723 130 829 163 928 229 c 1
 928 72 l 1
 837 12 733 -18 615 -18 c 0
EndSplineSet
EndChar

StartChar: eogonek
Encoding: 281 281 164
Width: 1051
VWidth: 0
Flags: HW
LayerCount: 2
Fore
SplineSet
783 618 m 1
 782 762 678 866 538 866 c 0
 390 866 302 755 278 618 c 1
 783 618 l 1
615 -21 m 0
 581.650633475 -21 549.484562174 -18.6760508202 518.612953275 -14.1580309434 c 1
 543 -52 l 1
 466 -79 426 -129 426 -179 c 0
 426 -241 490 -302 612 -302 c 2
 614 -302 l 1
 583 -427 l 1
 570 -431 554 -432 542 -432 c 0
 400 -432 306 -325 306 -213 c 0
 306.000000062 -115.34302048 365.686630959 -21.1461358115 485.864422232 -8.44870511688 c 1
 236.678026622 42.1491399059 80 241.622205184 80 515 c 0
 80 786 269 1015 532 1015 c 0
 812 1015 946 810 946 524 c 2
 946 497 l 1
 272 497 l 1
 274 281 401 130 614 130 c 0
 723 130 829 161 928 228 c 1
 928 71 l 1
 837 12 733 -21 615 -21 c 0
EndSplineSet
EndChar

StartChar: equal
Encoding: 61 61 165
Width: 1255
VWidth: 0
Flags: HW
LayerCount: 2
Fore
SplineSet
1054 706 m 1
 199 706 l 1
 199 863 l 1
 1054 863 l 1
 1054 706 l 1
1054 410 m 1
 199 410 l 1
 199 567 l 1
 1054 567 l 1
 1054 410 l 1
EndSplineSet
EndChar

StartChar: eth
Encoding: 240 240 166
Width: 1199
VWidth: 0
Flags: HW
LayerCount: 2
Fore
SplineSet
83 462 m 1
 84 462 l 1
 84 756 313 968 560 968 c 0
 631 968 704 947 776 896 c 1
 470 1243 l 1
 271 1082 l 1
 203 1164 l 1
 403 1325 l 1
 243 1519 l 1
 435 1519 l 1
 515 1423 l 1
 667 1552 l 1
 736 1469 l 1
 584 1342 l 1
 779 1106 l 1
 998 843 1096 716 1096 491 c 0
 1096 212 908 -21 586 -21 c 0
 252 -21 83 219 83 462 c 1
924 473 m 1
 925 473 l 1
 925 662 835 817 590 817 c 0
 373 817 261 645 261 473 c 0
 261 301 370 131 590 131 c 0
 805 131 924 288 924 473 c 1
EndSplineSet
EndChar

StartChar: exclam
Encoding: 33 33 167
Width: 607
VWidth: 0
Flags: HW
LayerCount: 2
Fore
SplineSet
274 461 m 2
 202 1515 l 1
 202 1522 l 2
 202 1592 259 1627 315 1627 c 0
 370 1627 423 1594 423 1526 c 2
 423 1515 l 1
 336 458 l 2
 333 421 318 403 304 403 c 0
 290 403 276 421 274 461 c 2
172 109 m 0
 172 198 237 242 302 242 c 0
 366 242 432 197 432 109 c 0
 432 24 366 -18 302 -18 c 0
 237 -18 172 24 172 109 c 0
EndSplineSet
EndChar

StartChar: exclamdown
Encoding: 161 161 168
Width: 609
VWidth: 0
Flags: HW
LayerCount: 2
Fore
SplineSet
335 1148 m 2
 407 94 l 1
 407 87 l 2
 407 17 350 -18 294 -18 c 0
 239 -18 186 15 186 83 c 2
 186 94 l 1
 273 1151 l 2
 276 1188 291 1206 305 1206 c 0
 319 1206 333 1188 335 1148 c 2
437 1500 m 0
 437 1411 371 1367 307 1367 c 0
 242 1367 177 1412 177 1500 c 0
 177 1585 242 1627 307 1627 c 0
 371 1627 437 1585 437 1500 c 0
EndSplineSet
EndChar

StartChar: f
Encoding: 102 102 169
Width: 619
VWidth: 0
Flags: HW
LayerCount: 2
Fore
SplineSet
173 0 m 1
 173 858 l 1
 39 858 l 1
 39 996 l 1
 169 996 l 1
 169 1072 l 2
 169 1289 271 1433 475 1433 c 0
 525 1433 579 1424 641 1404 c 1
 641 1244 l 1
 589 1266 548 1275 513 1275 c 0
 403 1275 352 1214 352 1072 c 2
 352 996 l 1
 530 996 l 1
 530 852 l 1
 352 852 l 1
 352 0 l 1
 173 0 l 1
EndSplineSet
EndChar

StartChar: ff
Encoding: 65538 -1 170
Width: 1169
VWidth: 0
Flags: HW
LayerCount: 2
Fore
SplineSet
721 0 m 1
 721 854 l 1
 339 854 l 1
 339 1 l 1
 161 1 l 1
 161 854 l 1
 27 854 l 1
 27 998 l 1
 157 998 l 1
 157 1073 l 2
 157 1301 272 1433 449 1433 c 0
 496 1433 547 1424 603 1405 c 1
 603 1245 l 1
 559 1265 518 1276 481 1276 c 0
 397 1276 339 1215 339 1072 c 2
 339 996 l 1
 716 996 l 1
 716 1072 l 2
 716 1289 818 1433 1022 1433 c 0
 1071 1433 1125 1424 1187 1404 c 1
 1187 1244 l 1
 1136 1266 1095 1275 1059 1275 c 0
 950 1275 898 1214 898 1072 c 2
 898 996 l 1
 1101 996 l 1
 1101 852 l 1
 898 852 l 1
 898 0 l 1
 721 0 l 1
EndSplineSet
EndChar

StartChar: ffi
Encoding: 65539 -1 171
Width: 1704
VWidth: 0
Flags: HW
LayerCount: 2
Fore
SplineSet
234 1154 m 0
 152 1154 108 1214 108 1275 c 0
 108 1336 152 1395 234 1395 c 0
 314 1395 358 1336 358 1275 c 0
 358 1214 314 1154 234 1154 c 0
322 996 m 1
 322 0 l 1
 143 0 l 1
 143 996 l 1
 322 996 l 1
639 0 m 1
 639 858 l 1
 504 858 l 1
 504 996 l 1
 634 996 l 1
 634 1072 l 2
 634 1289 735 1433 941 1433 c 0
 990 1433 1044 1424 1105 1404 c 1
 1105 1244 l 1
 1053 1266 1013 1275 978 1275 c 0
 868 1275 816 1214 816 1072 c 2
 816 996 l 1
 994 996 l 1
 994 852 l 1
 816 852 l 1
 816 0 l 1
 639 0 l 1
1258 0 m 1
 1258 858 l 1
 1123 858 l 1
 1123 996 l 1
 1252 996 l 1
 1252 1072 l 2
 1252 1289 1355 1433 1560 1433 c 0
 1608 1433 1663 1424 1724 1404 c 1
 1724 1244 l 1
 1672 1266 1632 1275 1597 1275 c 0
 1487 1275 1435 1214 1435 1072 c 2
 1435 996 l 1
 1615 996 l 1
 1615 852 l 1
 1435 852 l 1
 1435 0 l 1
 1258 0 l 1
EndSplineSet
EndChar

StartChar: five
Encoding: 53 53 172
Width: 995
VWidth: 0
Flags: HW
LayerCount: 2
Fore
SplineSet
908 1521 m 1
 893 1355 l 1
 273 1355 l 1
 266 1209 263 1022 258 875 c 1
 341 925 422 949 507 949 c 0
 816 949 966 746 966 487 c 0
 966 184 763 -20 420 -20 c 0
 244 -20 103 37 13 119 c 1
 80 263 l 1
 145 214 260 144 427 144 c 0
 650 144 783 288 783 486 c 0
 783 659 678 789 473 789 c 0
 376 789 296 761 231 690 c 1
 89 710 l 1
 131 1521 l 1
 908 1521 l 1
EndSplineSet
EndChar

StartChar: four
Encoding: 52 52 173
Width: 1229
VWidth: 0
Flags: HW
LayerCount: 2
Fore
SplineSet
1128 376 m 1
 954 376 l 1
 954 0 l 1
 786 0 l 1
 786 376 l 1
 101 376 l 1
 101 533 l 1
 767 1522 l 1
 954 1522 l 1
 954 522 l 1
 1142 522 l 1
 1128 376 l 1
786 1292 m 1
 279 522 l 1
 786 522 l 1
 786 1292 l 1
EndSplineSet
EndChar

StartChar: g
Encoding: 103 103 174
Width: 1069
VWidth: 0
Flags: HW
LayerCount: 2
Fore
SplineSet
780 87 m 1
 777 85 676 0 538 0 c 0
 230 0 80 268 80 526 c 0
 80 806 298 1015 516 1015 c 0
 603 1015 694 976 783 884 c 1
 783 997 l 1
 958 997 l 1
 958 -53 l 2
 958 -344 756 -437 551 -437 c 0
 448 -437 344 -414 263 -379 c 1
 263 -223 l 1
 361 -264 467 -291 559 -291 c 0
 696 -291 803 -230 803 -59 c 0
 803 -16 795 33 780 87 c 1
264 517 m 0
 264 287 386 152 571 152 c 0
 633 152 704 168 780 202 c 1
 780 773 l 1
 704 835 626 862 557 862 c 0
 408 862 264 734 264 517 c 0
EndSplineSet
EndChar

StartChar: gbreve
Encoding: 287 287 175
Width: 1069
VWidth: 0
Flags: HW
LayerCount: 2
Fore
SplineSet
749 1386 m 1
 744 1227 630 1149 519 1149 c 0
 406 1149 293 1227 287 1386 c 1
 391 1386 l 1
 401 1304 459 1264 518 1264 c 0
 576 1264 636 1304 645 1386 c 1
 749 1386 l 1
780 86 m 1
 777 84 676 0 538 0 c 0
 230 0 80 267 80 525 c 0
 80 805 298 1014 516 1014 c 0
 603 1014 694 974 783 884 c 1
 783 996 l 1
 958 996 l 1
 958 -54 l 2
 958 -345 756 -438 551 -438 c 0
 448 -438 344 -416 263 -381 c 1
 263 -224 l 1
 361 -265 467 -292 559 -292 c 0
 696 -292 803 -231 803 -60 c 0
 803 -17 795 31 780 86 c 1
264 516 m 0
 264 286 386 150 571 150 c 0
 633 150 704 166 780 201 c 1
 780 770 l 1
 704 835 626 862 557 862 c 0
 408 862 264 732 264 516 c 0
EndSplineSet
EndChar

StartChar: gcedilla
Encoding: 291 291 176
Width: 1069
VWidth: 0
Flags: HW
LayerCount: 2
Fore
SplineSet
650 1607 m 1
 674 1583 l 1
 612 1528 588 1476 588 1396 c 1
 656 1377 688 1325 688 1274 c 0
 688 1183 623 1135 556 1135 c 0
 485 1135 413 1181 413 1282 c 0
 413 1417 545 1607 650 1607 c 1
780 86 m 1
 777 84 676 0 538 0 c 0
 230 0 80 268 80 525 c 0
 80 805 298 1016 516 1016 c 0
 603 1016 694 975 783 885 c 1
 783 997 l 1
 958 997 l 1
 958 -53 l 2
 958 -345 756 -437 551 -437 c 0
 448 -437 344 -415 263 -380 c 1
 263 -223 l 1
 361 -264 467 -291 559 -291 c 0
 696 -291 803 -231 803 -60 c 0
 803 -18 795 32 780 86 c 1
264 516 m 0
 264 285 386 151 571 151 c 0
 633 151 704 166 780 201 c 1
 780 771 l 1
 704 835 626 862 557 862 c 0
 408 862 264 732 264 516 c 0
EndSplineSet
EndChar

StartChar: gcircumflex
Encoding: 285 285 177
Width: 1069
VWidth: 0
Flags: HW
LayerCount: 2
Fore
SplineSet
519 1355 m 1
 224 1149 l 2
 221 1148 221 1148 220 1148 c 0
 218 1148 216 1149 216 1151 c 0
 216 1153 216 1154 217 1154 c 2
 482 1560 l 1
 490 1570 505 1575 519 1575 c 0
 533 1575 551 1570 558 1560 c 2
 822 1154 l 1
 822 1151 l 2
 822 1149 821 1148 820 1148 c 0
 819 1148 818 1148 815 1149 c 2
 519 1355 l 1
780 86 m 1
 777 83 676 0 538 0 c 0
 230 0 80 267 80 525 c 0
 80 806 298 1015 516 1015 c 0
 603 1015 694 974 783 884 c 1
 783 997 l 1
 958 997 l 1
 958 -53 l 2
 958 -344 756 -439 551 -439 c 0
 448 -439 344 -415 263 -380 c 1
 263 -223 l 1
 361 -264 467 -292 559 -292 c 0
 696 -292 803 -231 803 -61 c 0
 803 -18 795 32 780 86 c 1
264 516 m 0
 264 285 386 151 571 151 c 0
 633 151 704 166 780 202 c 1
 780 771 l 1
 704 835 626 861 557 861 c 0
 408 861 264 732 264 516 c 0
EndSplineSet
EndChar

StartChar: gdotaccent
Encoding: 289 289 178
Width: 1069
VWidth: 0
Flags: HW
LayerCount: 2
Fore
SplineSet
389 1276 m 0
 389 1366 454 1409 519 1409 c 0
 583 1409 649 1365 649 1276 c 0
 649 1190 583 1149 519 1149 c 0
 454 1149 389 1190 389 1276 c 0
780 87 m 1
 777 85 676 0 538 0 c 0
 230 0 80 269 80 526 c 0
 80 805 298 1016 516 1016 c 0
 603 1016 694 975 783 885 c 1
 783 998 l 1
 958 998 l 1
 958 -52 l 2
 958 -345 756 -437 551 -437 c 0
 448 -437 344 -414 263 -379 c 1
 263 -223 l 1
 361 -264 467 -291 559 -291 c 0
 696 -291 803 -230 803 -59 c 0
 803 -16 795 33 780 87 c 1
264 517 m 0
 264 287 386 152 571 152 c 0
 633 152 704 168 780 202 c 1
 780 773 l 1
 704 835 626 863 557 863 c 0
 408 863 264 733 264 517 c 0
EndSplineSet
EndChar

StartChar: germandbls
Encoding: 223 223 179
Width: 1190
VWidth: 0
Flags: HW
LayerCount: 2
Fore
SplineSet
539 861 m 1
 599 858 l 1
 744 858 821 978 821 1101 c 0
 821 1229 736 1358 548 1358 c 0
 430 1358 316 1278 316 1079 c 2
 316 -3 l 1
 127 -3 l 1
 127 1080 l 2
 127 1387 330 1518 543 1518 c 0
 824 1518 995 1315 995 1119 c 0
 995 1001 933 886 795 818 c 1
 795 813 l 1
 1052 736 1081 495 1081 428 c 0
 1081 105 869 0 470 0 c 1
 470 173 l 1
 657 173 881 174 881 428 c 0
 881 547 814 705 630 705 c 2
 539 705 l 1
 539 861 l 1
EndSplineSet
EndChar

StartChar: grave
Encoding: 96 96 180
Width: 368
VWidth: 0
Flags: HW
LayerCount: 2
Fore
SplineSet
235 540 m 1
 320 163 l 1
 323 156 323 148 323 144 c 0
 323 136 319 130 315 130 c 0
 308 130 298 136 289 148 c 2
 79 457 l 1
 56 486 48 512 48 537 c 0
 48 590 93 626 140 626 c 0
 176 626 215 603 235 540 c 1
EndSplineSet
EndChar

StartChar: greater
Encoding: 62 62 181
Width: 981
VWidth: 0
Flags: HW
LayerCount: 2
Fore
SplineSet
894 496 m 1
 94 75 l 1
 94 288 l 1
 740 576 l 1
 94 880 l 1
 94 1086 l 1
 894 669 l 1
 894 496 l 1
EndSplineSet
EndChar

StartChar: guillemotleft
Encoding: 171 171 182
Width: 768
VWidth: 0
Flags: HW
LayerCount: 2
Fore
SplineSet
91 432 m 1
 91 589 l 1
 674 979 l 1
 674 786 l 1
 221 506 l 1
 674 233 l 1
 674 25 l 1
 91 432 l 1
EndSplineSet
EndChar

StartChar: guillemotright
Encoding: 187 187 183
Width: 768
VWidth: 0
Flags: HW
LayerCount: 2
Fore
SplineSet
674 432 m 1
 91 25 l 1
 91 233 l 1
 544 506 l 1
 91 786 l 1
 91 979 l 1
 674 589 l 1
 674 432 l 1
EndSplineSet
EndChar

StartChar: h
Encoding: 104 104 184
Width: 1031
VWidth: 0
Flags: HW
LayerCount: 2
Fore
SplineSet
106 0 m 1
 106 1491 l 1
 285 1491 l 1
 285 889 l 1
 372 971 489 1017 599 1017 c 0
 773 1017 931 906 931 661 c 2
 931 0 l 1
 752 0 l 1
 752 600 l 2
 752 787 702 862 576 862 c 0
 506 862 342 803 285 730 c 1
 285 0 l 1
 106 0 l 1
EndSplineSet
EndChar

StartChar: hbar
Encoding: 295 295 185
Width: 1032
VWidth: 0
Flags: HW
LayerCount: 2
Fore
SplineSet
107 0 m 1
 107 1191 l 1
 0 1191 l 1
 0 1320 l 1
 107 1320 l 1
 107 1491 l 1
 286 1491 l 1
 286 1320 l 1
 572 1320 l 1
 572 1191 l 1
 286 1191 l 1
 286 889 l 1
 373 971 490 1017 599 1017 c 0
 773 1017 931 906 931 661 c 2
 931 0 l 1
 754 0 l 1
 754 600 l 2
 754 787 704 862 578 862 c 0
 507 862 343 803 286 730 c 1
 286 0 l 1
 107 0 l 1
EndSplineSet
EndChar

StartChar: hcircumflex
Encoding: 293 293 186
Width: 1031
VWidth: 0
Flags: HW
LayerCount: 2
Fore
SplineSet
520 1830 m 1
 226 1624 l 2
 225 1623 225 1623 223 1623 c 0
 219 1623 217 1624 217 1625 c 0
 217 1626 217 1627 218 1627 c 2
 484 2034 l 2
 491 2043 506 2049 520 2049 c 0
 534 2049 553 2043 559 2034 c 2
 823 1627 l 1
 823 1625 l 2
 823 1624 822 1623 821 1623 c 0
 820 1623 819 1623 818 1624 c 2
 520 1830 l 1
106 0 m 1
 106 1490 l 1
 285 1490 l 1
 285 888 l 1
 372 970 489 1017 599 1017 c 0
 773 1017 931 907 931 660 c 2
 931 0 l 1
 752 0 l 1
 752 600 l 2
 752 788 702 861 576 861 c 0
 506 861 342 803 285 729 c 1
 285 0 l 1
 106 0 l 1
EndSplineSet
EndChar

StartChar: hungarumlaut
Encoding: 733 733 187
Width: 730
VWidth: 0
Flags: HW
LayerCount: 2
Fore
SplineSet
47 162 m 2
 143 524 l 1
 161 587 202 611 241 611 c 0
 287 611 332 577 332 524 c 0
 332 500 321 470 297 439 c 2
 76 148 l 2
 66 134 58 127 51 127 c 0
 47 127 40 134 40 142 c 0
 40 146 45 155 47 162 c 2
403 162 m 1
 499 524 l 1
 519 587 558 611 598 611 c 0
 643 611 689 577 689 524 c 0
 689 500 680 470 656 439 c 2
 434 148 l 1
 425 134 413 127 408 127 c 0
 403 127 400 134 400 142 c 0
 400 146 400 155 403 162 c 1
EndSplineSet
EndChar

StartChar: hyphen
Encoding: 45 45 188
Width: 844
VWidth: 0
Flags: HW
LayerCount: 2
Fore
SplineSet
104 756 m 1
 740 756 l 1
 740 619 l 1
 104 619 l 1
 104 756 l 1
EndSplineSet
EndChar

StartChar: i
Encoding: 105 105 189
Width: 465
VWidth: 0
Flags: HW
LayerCount: 2
Fore
SplineSet
233 1157 m 0
 151 1157 108 1215 108 1277 c 0
 108 1337 151 1398 233 1398 c 0
 315 1398 357 1337 357 1277 c 0
 357 1215 315 1157 233 1157 c 0
321 999 m 1
 321 0 l 1
 144 0 l 1
 144 999 l 1
 321 999 l 1
EndSplineSet
EndChar

StartChar: iacute
Encoding: 237 237 190
Width: 456
VWidth: 0
Flags: HW
LayerCount: 2
Fore
SplineSet
111 1182 m 2
 206 1545 l 1
 224 1607 263 1631 304 1631 c 0
 350 1631 394 1599 394 1545 c 0
 394 1521 385 1492 362 1459 c 1
 140 1168 l 2
 130 1154 121 1149 115 1149 c 0
 111 1149 105 1154 105 1164 c 0
 105 1167 109 1177 111 1182 c 2
342 996 m 1
 342 0 l 1
 161 0 l 1
 161 996 l 1
 342 996 l 1
EndSplineSet
EndChar

StartChar: ibreve
Encoding: 301 301 191
Width: 456
VWidth: 0
Flags: HW
LayerCount: 2
Fore
SplineSet
482 1387 m 1
 476 1228 363 1148 251 1148 c 0
 138 1148 25 1228 19 1387 c 1
 124 1387 l 1
 133 1305 192 1264 250 1264 c 0
 308 1264 368 1305 377 1387 c 1
 482 1387 l 1
342 998 m 1
 342 0 l 1
 161 0 l 1
 161 998 l 1
 342 998 l 1
EndSplineSet
EndChar

StartChar: icircumflex
Encoding: 238 238 192
Width: 455
VWidth: 0
Flags: HW
LayerCount: 2
Fore
SplineSet
251 1357 m 1
 -44 1150 l 2
 -47 1149 -47 1149 -48 1149 c 0
 -50 1149 -52 1150 -52 1151 c 0
 -52 1152 -52 1156 -51 1156 c 2
 214 1561 l 1
 222 1570 237 1576 251 1576 c 0
 265 1576 283 1570 290 1561 c 2
 554 1156 l 1
 554 1151 l 2
 554 1150 553 1149 552 1149 c 0
 551 1149 550 1149 547 1150 c 2
 251 1357 l 1
341 999 m 1
 341 0 l 1
 161 0 l 1
 161 999 l 1
 341 999 l 1
EndSplineSet
EndChar

StartChar: idieresis
Encoding: 239 239 193
Width: 456
VWidth: 0
Flags: HW
LayerCount: 2
Fore
SplineSet
321 1261 m 0
 321 1340 381 1381 439 1381 c 0
 497 1381 555 1340 555 1261 c 0
 555 1185 497 1149 439 1149 c 0
 381 1149 321 1186 321 1261 c 0
-54 1261 m 0
 -54 1340 4 1381 62 1381 c 0
 120 1381 180 1340 180 1261 c 0
 180 1185 120 1149 62 1149 c 0
 4 1149 -54 1186 -54 1261 c 0
342 998 m 1
 342 0 l 1
 161 0 l 1
 161 998 l 1
 342 998 l 1
EndSplineSet
EndChar

StartChar: igrave
Encoding: 236 236 194
Width: 456
VWidth: 0
Flags: HW
LayerCount: 2
Fore
SplineSet
301 1558 m 1
 386 1180 l 1
 390 1175 390 1166 390 1163 c 0
 390 1153 385 1149 380 1149 c 0
 373 1149 363 1153 354 1166 c 2
 144 1473 l 1
 121 1502 114 1530 114 1554 c 0
 114 1608 158 1644 205 1644 c 0
 243 1644 281 1621 301 1558 c 1
343 996 m 1
 343 0 l 1
 161 0 l 1
 161 996 l 1
 343 996 l 1
EndSplineSet
EndChar

StartChar: ij
Encoding: 307 307 195
Width: 941
VWidth: 0
Flags: HW
LayerCount: 2
Fore
SplineSet
269 1155 m 0
 188 1155 143 1213 143 1276 c 0
 143 1337 188 1395 269 1395 c 0
 351 1395 395 1337 395 1276 c 0
 395 1213 351 1155 269 1155 c 0
19 -384 m 1
 -10 -243 l 1
 180 -243 179 -113 179 4 c 2
 179 1017 l 1
 359 1017 l 1
 359 -79 l 2
 359 -173 320 -384 19 -384 c 1
710 1155 m 0
 627 1155 583 1213 583 1276 c 0
 583 1337 627 1395 710 1395 c 0
 790 1395 833 1337 833 1276 c 0
 833 1213 790 1155 710 1155 c 0
797 997 m 1
 797 0 l 1
 619 0 l 1
 619 997 l 1
 797 997 l 1
EndSplineSet
EndChar

StartChar: imacron
Encoding: 299 299 196
Width: 456
VWidth: 0
Flags: HW
LayerCount: 2
Fore
SplineSet
-6 1149 m 1
 -6 1301 l 1
 507 1301 l 1
 507 1149 l 1
 -6 1149 l 1
342 998 m 1
 342 0 l 1
 161 0 l 1
 161 998 l 1
 342 998 l 1
EndSplineSet
EndChar

StartChar: iogonek
Encoding: 303 303 197
Width: 465
VWidth: 0
Flags: HW
LayerCount: 2
Fore
SplineSet
232 1155 m 0
 151 1155 107 1214 107 1275 c 0
 107 1337 151 1396 232 1396 c 0
 314 1396 358 1337 358 1275 c 0
 358 1214 314 1155 232 1155 c 0
321 997 m 1
 321 0 l 1
 240.574468085 0 l 1
 261 -32 l 1
 186 -58 144 -110 144 -158 c 0
 144 -222 207 -283 332 -283 c 2
 333 -283 l 1
 302 -408 l 1
 288 -411 273 -412 260 -412 c 0
 119 -412 24 -304 24 -194 c 0
 24 -112.271159951 65.6137620773 -32.3257668486 147.466200853 -1.7763568394e-15 c 1
 143 0 l 1
 143 997 l 1
 321 997 l 1
EndSplineSet
EndChar

StartChar: itilde
Encoding: 297 297 198
Width: 455
VWidth: 0
Flags: HW
LayerCount: 2
Fore
SplineSet
22 1237 m 0
 -33 1237 -67 1192 -83 1192 c 0
 -91 1192 -97 1198 -97 1205 c 0
 -97 1210 -96 1214 -91 1221 c 0
 -39 1307 21 1366 114 1366 c 0
 239 1366 396 1276 480 1276 c 0
 538 1276 570 1322 587 1322 c 0
 595 1322 599 1318 599 1310 c 0
 599 1304 598 1301 595 1294 c 1
 537 1207 468 1149 368 1149 c 0
 276 1149 135 1237 22 1237 c 0
341 998 m 1
 341 0 l 1
 161 0 l 1
 161 998 l 1
 341 998 l 1
EndSplineSet
EndChar

StartChar: j
Encoding: 106 106 199
Width: 475
VWidth: 0
Flags: HW
LayerCount: 2
Fore
SplineSet
268 1155 m 0
 188 1155 142 1213 142 1276 c 0
 142 1337 188 1395 268 1395 c 0
 350 1395 393 1337 393 1276 c 0
 393 1213 350 1155 268 1155 c 0
18 -384 m 1
 -11 -243 l 1
 179 -243 178 -113 178 4 c 2
 178 1017 l 1
 359 1017 l 1
 359 -79 l 2
 359 -173 320 -384 18 -384 c 1
EndSplineSet
EndChar

StartChar: jcircumflex
Encoding: 309 309 200
Width: 508
VWidth: 0
Flags: HW
LayerCount: 2
Fore
SplineSet
213 1355 m 1
 -82 1150 l 2
 -85 1149 -85 1149 -86 1149 c 0
 -88 1149 -90 1150 -90 1151 c 0
 -90 1152 -90 1153 -89 1153 c 2
 176 1560 l 1
 184 1570 199 1575 213 1575 c 0
 227 1575 245 1570 252 1560 c 2
 516 1153 l 1
 516 1151 l 2
 516 1150 515 1149 514 1149 c 0
 513 1149 512 1149 509 1150 c 2
 213 1355 l 1
54 -385 m 1
 26 -243 l 1
 215 -243 214 -113 214 3 c 2
 214 1016 l 1
 400 1016 l 1
 400 -79 l 2
 400 -173 361 -385 54 -385 c 1
EndSplineSet
EndChar

StartChar: k
Encoding: 107 107 201
Width: 1001
VWidth: 0
Flags: HW
LayerCount: 2
Fore
SplineSet
717 998 m 1
 947 998 l 1
 493 527 l 1
 1003 0 l 1
 765 0 l 1
 286 503 l 1
 286 0 l 1
 108 0 l 1
 108 1491 l 1
 286 1491 l 1
 286 538 l 1
 717 998 l 1
EndSplineSet
EndChar

StartChar: kcommaaccent
Encoding: 311 311 202
Width: 1001
VWidth: 0
Flags: HW
LayerCount: 2
Fore
SplineSet
455 -603 m 1
 432 -578 l 1
 493 -523 517 -472 517 -392 c 1
 449 -374 418 -321 418 -270 c 0
 418 -178 482 -132 551 -132 c 0
 619 -132 691 -177 691 -278 c 0
 691 -412 559 -603 455 -603 c 1
717 999 m 1
 947 999 l 1
 493 528 l 1
 1003 0 l 1
 765 0 l 1
 286 503 l 1
 286 0 l 1
 108 0 l 1
 108 1491 l 1
 286 1491 l 1
 286 539 l 1
 717 999 l 1
EndSplineSet
EndChar

StartChar: kgreenlandic
Encoding: 312 312 203
Width: 1006
VWidth: 0
Flags: HW
LayerCount: 2
Fore
SplineSet
717 998 m 1
 947 998 l 1
 493 527 l 1
 1003 0 l 1
 765 0 l 1
 286 503 l 1
 286 0 l 1
 108 0 l 1
 108 1491 l 1
 286 1491 l 1
 286 538 l 1
 717 998 l 1
EndSplineSet
EndChar

StartChar: l
Encoding: 108 108 204
Width: 618
VWidth: 0
Flags: HW
LayerCount: 2
Fore
SplineSet
125 274 m 2
 125 1490 l 1
 303 1490 l 1
 303 303 l 2
 303 172 353 130 416 130 c 0
 468 130 530 157 587 189 c 1
 587 36 l 1
 530 0 462 -18 394 -18 c 0
 254 -18 125 73 125 274 c 2
EndSplineSet
EndChar

StartChar: lacute
Encoding: 314 314 205
Width: 618
VWidth: 0
Flags: HW
LayerCount: 2
Fore
SplineSet
223 1658 m 1
 318 2020 l 2
 335 2083 375 2107 416 2107 c 0
 462 2107 506 2073 506 2020 c 0
 506 1997 496 1966 473 1936 c 2
 252 1644 l 1
 242 1629 232 1623 227 1623 c 0
 223 1623 217 1629 217 1638 c 0
 217 1642 218 1651 223 1658 c 1
125 273 m 2
 125 1491 l 1
 303 1491 l 1
 303 303 l 2
 303 172 353 130 416 130 c 0
 468 130 530 157 587 188 c 1
 587 37 l 1
 530 0 462 -19 394 -19 c 0
 254 -19 125 73 125 273 c 2
EndSplineSet
EndChar

StartChar: lcaron
Encoding: 318 318 206
Width: 618
VWidth: 0
Flags: HW
LayerCount: 2
Fore
SplineSet
828 1018 m 1
 805 1042 l 1
 866 1098 890 1150 890 1229 c 1
 822 1249 791 1301 791 1353 c 0
 791 1443 856 1490 923 1490 c 0
 993 1490 1066 1444 1066 1344 c 0
 1066 1210 934 1018 828 1018 c 1
123 274 m 2
 123 1490 l 1
 303 1490 l 1
 303 303 l 2
 303 172 351 130 415 130 c 0
 466 130 529 157 585 189 c 1
 585 36 l 1
 529 0 461 -18 393 -18 c 0
 253 -18 123 73 123 274 c 2
EndSplineSet
EndChar

StartChar: lcommaaccent
Encoding: 316 316 207
Width: 618
VWidth: 0
Flags: HW
LayerCount: 2
Fore
SplineSet
262 -623 m 1
 239 -599 l 1
 300 -544 324 -491 324 -413 c 1
 255 -393 225 -342 225 -290 c 0
 225 -199 289 -151 357 -151 c 0
 427 -151 500 -198 500 -297 c 0
 500 -433 368 -623 262 -623 c 1
125 274 m 2
 125 1490 l 1
 303 1490 l 1
 303 303 l 2
 303 172 353 130 416 130 c 0
 468 130 530 157 587 188 c 1
 587 36 l 1
 530 0 462 -18 394 -18 c 0
 254 -18 125 73 125 274 c 2
EndSplineSet
EndChar

StartChar: less
Encoding: 60 60 208
Width: 981
VWidth: 0
Flags: HW
LayerCount: 2
Fore
SplineSet
88 496 m 1
 88 669 l 1
 888 1086 l 1
 888 880 l 1
 242 576 l 1
 888 288 l 1
 888 75 l 1
 88 496 l 1
EndSplineSet
EndChar

StartChar: m
Encoding: 109 109 209
Width: 1664
VWidth: 0
Flags: HW
LayerCount: 2
Fore
SplineSet
738 0 m 1
 738 675 l 2
 738 794 656 859 570 859 c 0
 458 859 332 777 283 709 c 1
 283 0 l 1
 104 0 l 1
 104 996 l 1
 278 996 l 1
 278 839 l 1
 413 1006 542 1015 598 1015 c 0
 733 1015 833 944 878 815 c 1
 1032 1012 1195 1015 1232 1015 c 0
 1390 1015 1563 924 1563 661 c 2
 1563 0 l 1
 1384 0 l 1
 1384 661 l 2
 1384 770 1334 859 1211 859 c 0
 1096 859 978 789 916 697 c 1
 916 0 l 1
 738 0 l 1
EndSplineSet
EndChar

StartChar: macron
Encoding: 175 175 210
Width: 721
VWidth: 0
Flags: HW
LayerCount: 2
Fore
SplineSet
104 1 m 1
 104 153 l 1
 617 153 l 1
 617 1 l 1
 104 1 l 1
EndSplineSet
EndChar

StartChar: multiply
Encoding: 215 215 211
Width: 1069
VWidth: 0
Flags: HW
LayerCount: 2
Fore
SplineSet
646 782 m 1
 888 531 l 1
 776 420 l 1
 531 667 l 1
 285 421 l 1
 173 533 l 1
 420 780 l 1
 174 1027 l 1
 286 1139 l 1
 533 893 l 1
 780 1140 l 1
 892 1029 l 1
 646 782 l 1
EndSplineSet
EndChar

StartChar: n
Encoding: 110 110 212
Width: 1015
VWidth: 0
Flags: HW
LayerCount: 2
Fore
SplineSet
916 679 m 2
 916 0 l 1
 738 0 l 1
 738 675 l 2
 738 814 667 867 578 867 c 0
 468 867 335 787 282 709 c 1
 282 0 l 1
 103 0 l 1
 103 996 l 1
 278 996 l 1
 278 852 l 1
 413 1006 549 1015 605 1015 c 0
 791 1015 916 879 916 679 c 2
EndSplineSet
EndChar

StartChar: nacute
Encoding: 324 324 213
Width: 1015
VWidth: 0
Flags: HW
LayerCount: 2
Fore
SplineSet
368 1182 m 2
 465 1545 l 1
 483 1607 523 1631 563 1631 c 0
 609 1631 654 1599 654 1545 c 0
 654 1521 643 1492 620 1459 c 1
 399 1168 l 1
 390 1154 379 1149 375 1149 c 0
 368 1149 365 1154 365 1164 c 0
 365 1167 366 1177 368 1182 c 2
916 679 m 2
 916 0 l 1
 738 0 l 1
 738 674 l 2
 738 815 667 866 578 866 c 0
 468 866 335 788 282 708 c 1
 282 0 l 1
 103 0 l 1
 103 996 l 1
 278 996 l 1
 278 852 l 1
 413 1006 549 1014 605 1014 c 0
 791 1014 916 878 916 679 c 2
EndSplineSet
EndChar

StartChar: ncaron
Encoding: 328 328 214
Width: 1015
VWidth: 0
Flags: HW
LayerCount: 2
Fore
SplineSet
508 1369 m 1
 805 1575 l 2
 808 1576 808 1576 809 1576 c 0
 811 1576 812 1575 812 1574 c 0
 812 1573 812 1572 811 1572 c 2
 545 1164 l 1
 538 1157 522 1149 508 1149 c 0
 494 1149 478 1157 471 1164 c 1
 206 1572 l 1
 206 1574 l 2
 206 1575 207 1576 208 1576 c 0
 209 1576 211 1576 214 1575 c 2
 508 1369 l 1
916 681 m 2
 916 0 l 1
 738 0 l 1
 738 675 l 2
 738 817 667 869 578 869 c 0
 468 869 335 789 282 711 c 1
 282 0 l 1
 103 0 l 1
 103 999 l 1
 278 999 l 1
 278 855 l 1
 413 1006 549 1017 605 1017 c 0
 791 1017 916 880 916 681 c 2
EndSplineSet
EndChar

StartChar: ncommaaccent
Encoding: 326 326 215
Width: 1015
VWidth: 0
Flags: HW
LayerCount: 2
Fore
SplineSet
409 -604 m 1
 386 -581 l 1
 447 -524 471 -472 471 -394 c 1
 403 -374 372 -323 372 -270 c 0
 372 -180 436 -132 505 -132 c 0
 573 -132 645 -179 645 -279 c 0
 645 -413 513 -604 409 -604 c 1
916 680 m 2
 916 0 l 1
 738 0 l 1
 738 676 l 2
 738 815 667 868 578 868 c 0
 468 868 335 788 282 710 c 1
 282 0 l 1
 103 0 l 1
 103 997 l 1
 278 997 l 1
 278 853 l 1
 413 1007 549 1016 605 1016 c 0
 791 1016 916 880 916 680 c 2
EndSplineSet
EndChar

StartChar: nine
Encoding: 57 57 216
Width: 1212
VWidth: 0
Flags: HW
LayerCount: 2
Fore
SplineSet
574 606 m 0
 318 606 98 784 98 1060 c 0
 98 1329 300 1534 608 1534 c 0
 933 1534 1113 1322 1113 1049 c 0
 1113 852 1051 719 894 511 c 0
 795 379 486 0 486 0 c 1
 262 0 l 1
 802 667 l 1
 737 633 655 606 574 606 c 0
922 1069 m 0
 922 1241 825 1380 616 1380 c 0
 407 1380 288 1237 288 1063 c 0
 288 878 404 756 608 756 c 0
 833 756 922 898 922 1069 c 0
EndSplineSet
EndChar

StartChar: ntilde
Encoding: 241 241 217
Width: 1015
VWidth: 0
Flags: HW
LayerCount: 2
Fore
SplineSet
280 1237 m 0
 224 1237 191 1192 175 1192 c 0
 167 1192 161 1198 161 1205 c 0
 161 1210 162 1214 167 1221 c 0
 219 1307 278 1366 372 1366 c 0
 497 1366 654 1276 738 1276 c 0
 796 1276 828 1322 845 1322 c 0
 853 1322 857 1318 857 1310 c 0
 857 1304 856 1301 853 1294 c 1
 795 1207 726 1149 626 1149 c 0
 534 1149 393 1237 280 1237 c 0
916 681 m 2
 916 0 l 1
 738 0 l 1
 738 674 l 2
 738 816 667 868 578 868 c 0
 468 868 335 789 282 710 c 1
 282 0 l 1
 103 0 l 1
 103 998 l 1
 278 998 l 1
 278 854 l 1
 413 1007 549 1017 605 1017 c 0
 791 1017 916 879 916 681 c 2
EndSplineSet
EndChar

StartChar: o
Encoding: 111 111 218
Width: 1198
VWidth: 0
Flags: HW
LayerCount: 2
Fore
SplineSet
599 -19 m 0
 316 -19 81 186 81 500 c 0
 81 812 316 1017 599 1017 c 0
 882 1017 1119 812 1119 500 c 0
 1119 186 882 -19 599 -19 c 0
599 863 m 0
 397 863 260 701 260 498 c 0
 260 298 397 133 599 133 c 0
 801 133 940 298 940 498 c 0
 940 701 801 863 599 863 c 0
EndSplineSet
EndChar

StartChar: oacute
Encoding: 243 243 219
Width: 1198
VWidth: 0
Flags: HW
LayerCount: 2
Fore
SplineSet
458 1184 m 2
 555 1546 l 1
 573 1608 613 1633 653 1633 c 0
 698 1633 744 1599 744 1546 c 0
 744 1522 733 1492 710 1461 c 2
 489 1170 l 1
 480 1156 469 1148 465 1148 c 0
 458 1148 455 1156 455 1163 c 0
 455 1169 456 1177 458 1184 c 2
599 -19 m 0
 316 -19 81 186 81 500 c 0
 81 811 316 1016 599 1016 c 0
 882 1016 1119 811 1119 500 c 0
 1119 186 882 -19 599 -19 c 0
599 863 m 0
 397 863 260 700 260 498 c 0
 260 298 397 132 599 132 c 0
 801 132 940 298 940 498 c 0
 940 700 801 863 599 863 c 0
EndSplineSet
EndChar

StartChar: obreve
Encoding: 335 335 220
Width: 1198
VWidth: 0
Flags: HW
LayerCount: 2
Fore
SplineSet
830 1388 m 1
 825 1228 711 1149 600 1149 c 0
 487 1149 374 1228 368 1388 c 1
 472 1388 l 1
 482 1306 540 1265 599 1265 c 0
 657 1265 717 1306 726 1388 c 1
 830 1388 l 1
599 -18 m 0
 316 -18 81 187 81 501 c 0
 81 810 316 1017 599 1017 c 0
 882 1017 1119 810 1119 501 c 0
 1119 187 882 -18 599 -18 c 0
599 863 m 0
 397 863 260 701 260 498 c 0
 260 299 397 132 599 132 c 0
 801 132 940 299 940 498 c 0
 940 701 801 863 599 863 c 0
EndSplineSet
EndChar

StartChar: ocircumflex
Encoding: 244 244 221
Width: 1198
VWidth: 0
Flags: HW
LayerCount: 2
Fore
SplineSet
600 1355 m 1
 305 1150 l 2
 302 1149 302 1149 301 1149 c 0
 299 1149 297 1150 297 1151 c 0
 297 1152 297 1153 298 1153 c 2
 563 1560 l 1
 571 1570 586 1576 600 1576 c 0
 614 1576 632 1570 639 1560 c 2
 903 1153 l 1
 903 1151 l 2
 903 1150 902 1149 901 1149 c 0
 900 1149 899 1149 896 1150 c 2
 600 1355 l 1
599 -20 m 0
 316 -20 81 186 81 500 c 0
 81 810 316 1017 599 1017 c 0
 882 1017 1119 810 1119 500 c 0
 1119 186 882 -20 599 -20 c 0
599 862 m 0
 397 862 260 701 260 498 c 0
 260 298 397 132 599 132 c 0
 801 132 940 298 940 498 c 0
 940 701 801 862 599 862 c 0
EndSplineSet
EndChar

StartChar: odieresis
Encoding: 246 246 222
Width: 1198
VWidth: 0
Flags: HW
LayerCount: 2
Fore
SplineSet
670 1262 m 0
 670 1341 730 1382 787 1382 c 0
 846 1382 904 1341 904 1262 c 0
 904 1185 846 1149 787 1149 c 0
 730 1149 670 1186 670 1262 c 0
295 1262 m 0
 295 1341 353 1382 411 1382 c 0
 469 1382 529 1341 529 1262 c 0
 529 1185 469 1149 411 1149 c 0
 353 1149 295 1186 295 1262 c 0
599 -19 m 0
 316 -19 81 186 81 500 c 0
 81 811 316 1017 599 1017 c 0
 882 1017 1119 811 1119 500 c 0
 1119 186 882 -19 599 -19 c 0
599 863 m 0
 397 863 260 701 260 498 c 0
 260 299 397 132 599 132 c 0
 801 132 940 299 940 498 c 0
 940 701 801 863 599 863 c 0
EndSplineSet
EndChar

StartChar: oe
Encoding: 339 339 223
Width: 1861
VWidth: 0
Flags: HW
LayerCount: 2
Fore
SplineSet
577 863 m 0
 358 863 248 681 248 498 c 0
 248 315 356 133 574 133 c 0
 762 133 888 298 888 498 c 0
 888 701 763 863 577 863 c 0
574 -19 m 0
 246 -19 79 241 79 500 c 0
 79 760 244 1017 577 1017 c 0
 741 1017 888 939 979 809 c 1
 1055 933 1179 1016 1330 1016 c 0
 1611 1016 1744 812 1744 525 c 2
 1744 498 l 1
 1069 498 l 1
 1071 283 1199 129 1411 129 c 0
 1520 129 1626 163 1726 228 c 1
 1726 72 l 1
 1635 12 1530 -19 1412 -19 c 0
 1223 -19 1072 63 985 199 c 1
 896 63 743 -19 574 -19 c 0
1580 618 m 1
 1579 762 1476 867 1335 867 c 0
 1188 867 1098 757 1074 618 c 1
 1580 618 l 1
EndSplineSet
EndChar

StartChar: ogonek
Encoding: 731 731 224
Width: 444
VWidth: 0
Flags: HW
LayerCount: 2
Fore
SplineSet
280 46 m 1
 310 0 l 1
 232 -26 193 -78 193 -127 c 0
 193 -191 256 -251 381 -251 c 2
 382 -251 l 1
 351 -377 l 1
 337 -380 322 -381 309 -381 c 0
 167 -381 73 -273 73 -163 c 0
 73 -57 143 46 280 46 c 1
EndSplineSet
EndChar

StartChar: ograve
Encoding: 242 242 225
Width: 1198
VWidth: 0
Flags: HW
LayerCount: 2
Fore
SplineSet
649 1558 m 1
 734 1181 l 1
 737 1173 737 1167 737 1161 c 0
 737 1154 733 1147 729 1147 c 0
 721 1147 711 1154 702 1167 c 2
 493 1474 l 1
 470 1503 460 1530 460 1555 c 0
 460 1607 507 1644 553 1644 c 0
 590 1644 629 1620 649 1558 c 1
599 -20 m 0
 316 -20 81 187 81 499 c 0
 81 811 316 1015 599 1015 c 0
 882 1015 1119 811 1119 499 c 0
 1119 187 882 -20 599 -20 c 0
599 863 m 0
 397 863 260 699 260 497 c 0
 260 297 397 131 599 131 c 0
 801 131 940 297 940 497 c 0
 940 699 801 863 599 863 c 0
EndSplineSet
EndChar

StartChar: ohungarumlaut
Encoding: 337 337 226
Width: 1198
VWidth: 0
Flags: HW
LayerCount: 2
Fore
SplineSet
282 1184 m 2
 378 1546 l 1
 396 1608 436 1633 476 1633 c 0
 522 1633 566 1599 566 1546 c 0
 566 1522 556 1492 532 1461 c 2
 311 1170 l 2
 301 1156 293 1148 286 1148 c 0
 282 1148 275 1156 275 1163 c 0
 275 1169 280 1177 282 1184 c 2
638 1184 m 1
 734 1546 l 1
 754 1608 793 1633 833 1633 c 0
 878 1633 923 1599 923 1546 c 0
 923 1522 915 1492 891 1461 c 2
 669 1170 l 2
 659 1156 648 1148 643 1148 c 0
 638 1148 635 1156 635 1163 c 0
 635 1169 635 1177 638 1184 c 1
599 -19 m 0
 316 -19 81 186 81 500 c 0
 81 811 316 1016 599 1016 c 0
 882 1016 1119 811 1119 500 c 0
 1119 186 882 -19 599 -19 c 0
599 863 m 0
 397 863 260 700 260 498 c 0
 260 298 397 132 599 132 c 0
 801 132 940 298 940 498 c 0
 940 700 801 863 599 863 c 0
EndSplineSet
EndChar

StartChar: omacron
Encoding: 333 333 227
Width: 1198
VWidth: 0
Flags: HW
LayerCount: 2
Fore
SplineSet
342 1150 m 1
 342 1302 l 1
 856 1302 l 1
 856 1150 l 1
 342 1150 l 1
599 -18 m 0
 316 -18 81 188 81 501 c 0
 81 811 316 1018 599 1018 c 0
 882 1018 1119 811 1119 501 c 0
 1119 188 882 -18 599 -18 c 0
599 863 m 0
 397 863 260 702 260 498 c 0
 260 299 397 132 599 132 c 0
 801 132 940 299 940 498 c 0
 940 702 801 863 599 863 c 0
EndSplineSet
EndChar

StartChar: one
Encoding: 49 49 228
Width: 609
VWidth: 0
Flags: HW
LayerCount: 2
Fore
SplineSet
347 1522 m 1
 510 1522 l 1
 510 0 l 1
 329 0 l 1
 329 1334 l 1
 248 1283 153 1242 80 1220 c 1
 80 1391 l 1
 169 1431 267 1464 347 1522 c 1
EndSplineSet
EndChar

StartChar: oslash
Encoding: 248 248 229
Width: 1199
VWidth: 0
Flags: HW
LayerCount: 2
Fore
SplineSet
599 -19 m 0
 531.118058068 -19 465.997818566 -7.14769373647 406.22002637 15.2044428665 c 1
 318 -156 l 1
 229 -116 l 1
 318.880991181 57.6548544537 l 1
 176.422087609 144.678356293 81 300.912400568 81 501 c 0
 81 810 316 1017 599 1017 c 0
 668.656402798 1017 735.52599761 1004.45936407 796.760671614 980.943808672 c 1
 906 1192 l 1
 992 1152 l 1
 882.141499744 938.802791788 l 1
 1023.85181623 851.624785254 1119 696.787318249 1119 501 c 0
 1119 187 882 -19 599 -19 c 0
806.537412988 792.081507698 m 1
 477.725619636 153.971974011 l 1
 514.620295723 139.773222531 555.288282004 132 599 132 c 0
 801 132 940 298 940 497 c 0
 940 619.282225797 890.056251401 726.114227208 806.537412988 792.081507698 c 1
723.51833883 839.435727016 m 1
 685.680672536 854.046717056 643.896413366 862 599 862 c 0
 397 862 260 701 260 497 c 0
 260 376.995732171 309.82046738 268.992014879 393.67208522 202.155225211 c 1
 723.51833883 839.435727016 l 1
EndSplineSet
EndChar

StartChar: otilde
Encoding: 245 245 230
Width: 1198
VWidth: 0
Flags: HW
LayerCount: 2
Fore
SplineSet
371 1237 m 0
 316 1237 282 1191 266 1191 c 0
 258 1191 252 1196 252 1204 c 0
 252 1210 253 1213 258 1220 c 0
 310 1307 370 1364 463 1364 c 0
 588 1364 745 1276 829 1276 c 0
 887 1276 919 1322 936 1322 c 0
 944 1322 948 1317 948 1309 c 0
 948 1304 947 1300 944 1293 c 1
 886 1207 817 1148 717 1148 c 0
 625 1148 484 1237 371 1237 c 0
599 -19 m 0
 316 -19 81 186 81 500 c 0
 81 809 316 1017 599 1017 c 0
 882 1017 1119 809 1119 500 c 0
 1119 186 882 -19 599 -19 c 0
599 862 m 0
 397 862 260 700 260 498 c 0
 260 298 397 131 599 131 c 0
 801 131 940 298 940 498 c 0
 940 700 801 862 599 862 c 0
EndSplineSet
EndChar

StartChar: p
Encoding: 112 112 231
Width: 1068
VWidth: 0
Flags: HW
LayerCount: 2
Fore
SplineSet
282 767 m 1
 282 189 l 1
 282 189 362 116 497 116 c 0
 705 116 795 338 795 526 c 0
 795 694 707 854 518 854 c 0
 377 854 282 767 282 767 c 1
520 -21 m 0
 375 -21 282 49 282 49 c 1
 282 -405 l 1
 102 -405 l 1
 102 996 l 1
 282 996 l 1
 282 882 l 1
 368 974 456 1016 535 1016 c 0
 841 1016 989 776 989 527 c 0
 989 262 821 -21 520 -21 c 0
EndSplineSet
EndChar

StartChar: paragraph
Encoding: 182 182 232
Width: 1243
VWidth: 0
Flags: HW
LayerCount: 2
Fore
SplineSet
629 162 m 0
 630 162 630 164 629 164 c 0
 628 164 628 162 629 162 c 0
901 2257 m 0
 902 2257 902 2260 901 2260 c 0
 899 2260 899 2257 901 2257 c 0
1165 2326 m 1
 1170 2323 1173 2318 1175 2312 c 0
 1175 2309 1176 2289 1176 2285 c 0
 1176 2278 1180 2240 1162 2240 c 1
 1145 2238 1068 2236 1052 2236 c 1
 1047 2235 1046 2237 1042 2232 c 1
 1045 1549 1033 868 1038 185 c 1
 1037 177 1033 153 1020 153 c 2
 947 153 l 1
 937 163 l 1
 937 2225 l 2
 937 2227 935 2232 934 2232 c 0
 929 2233 916 2236 915 2236 c 2
 715 2236 l 1
 709 2222 l 1
 710 1968 710 785 709 532 c 0
 709 423 707 168 705 166 c 2
 696 158 l 1
 619 158 l 2
 610 158 606 189 606 190 c 0
 605 212 605 316 605 337 c 0
 605 568 609 798 609 1029 c 2
 609 1283 l 2
 609 1321 606 1414 606 1415 c 2
 596 1425 l 1
 280 1406 90 1585 90 1889 c 0
 90 2281 415 2333 733 2333 c 0
 765 2333 861 2331 869 2331 c 0
 913 2331 1121 2328 1165 2326 c 1
EndSplineSet
EndChar

StartChar: parenleft
Encoding: 40 40 233
Width: 668
VWidth: 0
Flags: HW
LayerCount: 2
Fore
SplineSet
588 1516 m 1
 389 1377 289 1067 289 760 c 0
 289 453 389 143 588 4 c 1
 482 -108 l 1
 224 60 96 411 96 760 c 0
 96 1109 224 1460 482 1628 c 1
 588 1516 l 1
EndSplineSet
EndChar

StartChar: parenright
Encoding: 41 41 234
Width: 669
VWidth: 0
Flags: HW
LayerCount: 2
Fore
SplineSet
82 1516 m 1
 188 1628 l 1
 446 1460 574 1109 574 760 c 0
 574 411 446 60 188 -108 c 1
 82 4 l 1
 281 143 381 453 381 760 c 0
 381 1067 281 1377 82 1516 c 1
EndSplineSet
EndChar

StartChar: percent
Encoding: 37 37 235
Width: 1764
VWidth: 0
Flags: HW
LayerCount: 2
Fore
SplineSet
1425 1516 m 1
 492 0 l 1
 338 0 l 1
 1273 1516 l 1
 1425 1516 l 1
456 798 m 0
 209 798 90 980 90 1164 c 0
 90 1351 214 1538 456 1538 c 0
 698 1538 821 1351 821 1164 c 0
 821 980 700 798 456 798 c 0
456 1428 m 0
 304 1428 230 1298 230 1169 c 0
 230 1038 305 906 456 906 c 0
 606 906 683 1038 683 1169 c 0
 683 1298 607 1428 456 1428 c 0
1309 -17 m 0
 1064 -17 943 166 943 349 c 0
 943 535 1067 723 1309 723 c 0
 1552 723 1674 535 1674 349 c 0
 1674 166 1555 -17 1309 -17 c 0
1309 614 m 0
 1158 614 1083 484 1083 354 c 0
 1083 224 1159 92 1309 92 c 0
 1460 92 1535 224 1535 354 c 0
 1535 484 1461 614 1309 614 c 0
EndSplineSet
EndChar

StartChar: period
Encoding: 46 46 236
Width: 640
VWidth: 0
Flags: HW
LayerCount: 2
Fore
SplineSet
190 110 m 0
 190 199 255 243 320 243 c 0
 384 243 450 197 450 110 c 0
 450 24 384 -18 320 -18 c 0
 255 -18 190 24 190 110 c 0
EndSplineSet
EndChar

StartChar: plus
Encoding: 43 43 237
Width: 1188
VWidth: 0
Flags: HW
LayerCount: 2
Fore
SplineSet
671 706 m 1
 671 356 l 1
 516 356 l 1
 516 706 l 1
 192 706 l 1
 192 861 l 1
 516 861 l 1
 516 1211 l 1
 671 1211 l 1
 671 861 l 1
 995 861 l 1
 995 706 l 1
 671 706 l 1
EndSplineSet
EndChar

StartChar: q
Encoding: 113 113 238
Width: 1064
VWidth: 0
Flags: HW
LayerCount: 2
Fore
SplineSet
778 189 m 1
 778 784 l 1
 703 838 625 862 556 862 c 0
 402 862 273 724 273 507 c 0
 273 330 395 138 601 138 c 0
 721 138 778 189 778 189 c 1
956 996 m 1
 956 -405 l 1
 778 -405 l 1
 778 47 l 1
 778 47 705 -21 587 -21 c 0
 259 -21 81 252 81 518 c 0
 81 809 286 1015 515 1015 c 0
 601 1015 691 979 778 897 c 1
 778 996 l 1
 956 996 l 1
EndSplineSet
EndChar

StartChar: question
Encoding: 63 63 239
Width: 997
VWidth: 0
Flags: HW
LayerCount: 2
Fore
SplineSet
357 435 m 0
 357 797 675 900 675 1162 c 0
 675 1295 565 1379 452 1379 c 0
 349 1379 241 1339 170 1274 c 1
 113 1424 l 1
 210 1501 338 1542 467 1542 c 0
 673 1542 870 1422 870 1164 c 0
 870 854 505 741 438 433 c 0
 430 398 417 379 395 379 c 0
 375 379 357 400 357 435 c 0
286 110 m 0
 286 198 350 243 416 243 c 0
 480 243 545 197 545 110 c 0
 545 24 480 -17 416 -17 c 0
 350 -17 286 24 286 110 c 0
EndSplineSet
EndChar

StartChar: questiondown
Encoding: 191 191 240
Width: 997
VWidth: 0
Flags: HW
LayerCount: 2
Fore
SplineSet
642 1090 m 0
 642 728 324 625 324 363 c 0
 324 230 434 146 547 146 c 0
 650 146 758 186 829 251 c 1
 886 101 l 1
 789 24 661 -17 532 -17 c 0
 326 -17 129 103 129 361 c 0
 129 671 494 784 561 1092 c 0
 569 1127 582 1146 604 1146 c 0
 624 1146 642 1125 642 1090 c 0
713 1415 m 0
 713 1327 649 1282 583 1282 c 0
 519 1282 454 1328 454 1415 c 0
 454 1501 519 1542 583 1542 c 0
 649 1542 713 1501 713 1415 c 0
EndSplineSet
EndChar

StartChar: quotedbl
Encoding: 34 34 241
Width: 826
VWidth: 0
Flags: HW
LayerCount: 2
Fore
SplineSet
506 1034 m 1
 454 1420 l 2
 454 1424 453 1429 453 1434 c 0
 453 1488 501 1515 547 1515 c 0
 595 1515 641 1489 641 1435 c 0
 641 1429 641 1424 640 1420 c 2
 584 1035 l 2
 577 987 560 961 544 961 c 0
 527 961 511 985 506 1034 c 1
241 1034 m 1
 188 1420 l 2
 188 1424 187 1429 187 1434 c 0
 187 1488 235 1515 282 1515 c 0
 329 1515 375 1489 375 1435 c 0
 375 1429 375 1424 374 1420 c 2
 318 1035 l 1
 313 987 295 961 279 961 c 0
 260 961 245 985 241 1034 c 1
EndSplineSet
EndChar

StartChar: quotedblleft
Encoding: 8220 8220 242
Width: 872
VWidth: 0
Flags: HW
LayerCount: 2
Fore
SplineSet
729 1567 m 1
 754 1541 l 1
 702 1486 682 1432 682 1354 c 1
 751 1333 781 1283 781 1232 c 0
 781 1143 710 1093 635 1093 c 0
 566 1093 493 1140 493 1240 c 0
 493 1374 625 1567 729 1567 c 1
328 1567 m 1
 353 1541 l 1
 302 1486 280 1432 280 1354 c 1
 349 1333 383 1283 383 1232 c 0
 383 1143 307 1093 234 1093 c 0
 163 1093 92 1140 92 1240 c 0
 92 1374 223 1567 328 1567 c 1
EndSplineSet
EndChar

StartChar: quotedblright
Encoding: 8221 8221 243
Width: 871
VWidth: 0
Flags: HW
LayerCount: 2
Fore
SplineSet
143 1093 m 1
 118 1119 l 1
 170 1174 190 1228 190 1306 c 1
 121 1327 91 1377 91 1428 c 0
 91 1517 162 1567 237 1567 c 0
 306 1567 380 1519 380 1419 c 0
 380 1285 247 1093 143 1093 c 1
544 1093 m 1
 519 1119 l 1
 570 1174 592 1228 592 1306 c 1
 523 1327 491 1377 491 1428 c 0
 491 1517 565 1567 638 1567 c 0
 709 1567 780 1519 780 1419 c 0
 780 1285 649 1093 544 1093 c 1
EndSplineSet
EndChar

StartChar: quoteleft
Encoding: 8216 8216 244
Width: 474
VWidth: 0
Flags: HW
LayerCount: 2
Fore
SplineSet
333 1567 m 1
 357 1541 l 1
 306 1486 283 1432 283 1354 c 1
 352 1333 384 1283 384 1232 c 0
 384 1143 313 1093 239 1093 c 0
 169 1093 93 1140 93 1240 c 0
 93 1374 227 1567 333 1567 c 1
EndSplineSet
EndChar

StartChar: quoteright
Encoding: 8217 8217 245
Width: 468
VWidth: 0
Flags: HW
LayerCount: 2
Fore
SplineSet
141 1093 m 1
 117 1119 l 1
 169 1174 190 1228 190 1306 c 1
 121 1327 90 1377 90 1428 c 0
 90 1517 162 1567 235 1567 c 0
 305 1567 378 1519 378 1419 c 0
 378 1285 246 1093 141 1093 c 1
EndSplineSet
EndChar

StartChar: quotesingle
Encoding: 39 39 246
Width: 560
VWidth: 0
Flags: HW
LayerCount: 2
Fore
SplineSet
241 1034 m 1
 189 1420 l 2
 189 1424 187 1429 187 1434 c 0
 187 1488 236 1515 282 1515 c 0
 329 1515 376 1489 376 1435 c 0
 376 1429 376 1424 374 1420 c 1
 319 1035 l 2
 313 987 295 961 279 961 c 0
 262 961 246 985 241 1034 c 1
EndSplineSet
EndChar

StartChar: r
Encoding: 114 114 247
Width: 823
VWidth: 0
Flags: HW
LayerCount: 2
Fore
SplineSet
108 996 m 1
 284 996 l 1
 284 749 l 1
 321 870 417 1015 561 1015 c 0
 611 1015 695 985 772 899 c 1
 655 740 l 1
 624 779 574 825 517 825 c 0
 437 825 284 737 284 411 c 2
 284 0 l 1
 108 0 l 1
 108 996 l 1
EndSplineSet
EndChar

StartChar: racute
Encoding: 341 341 248
Width: 823
VWidth: 0
Flags: HW
LayerCount: 2
Fore
SplineSet
296 1182 m 2
 392 1545 l 1
 411 1607 451 1631 491 1631 c 0
 536 1631 582 1599 582 1545 c 0
 582 1521 571 1492 547 1459 c 2
 326 1168 l 1
 317 1154 307 1149 300 1149 c 0
 296 1149 293 1154 293 1164 c 0
 293 1167 294 1177 296 1182 c 2
108 996 m 1
 284 996 l 1
 284 749 l 1
 321 871 417 1014 561 1014 c 0
 611 1014 695 985 772 899 c 1
 655 740 l 1
 624 779 574 825 517 825 c 0
 437 825 284 737 284 411 c 2
 284 0 l 1
 108 0 l 1
 108 996 l 1
EndSplineSet
EndChar

StartChar: rcaron
Encoding: 345 345 249
Width: 823
VWidth: 0
Flags: HW
LayerCount: 2
Fore
SplineSet
437 1369 m 1
 733 1575 l 2
 735 1576 735 1576 736 1576 c 0
 740 1576 741 1575 741 1574 c 0
 741 1573 741 1572 740 1572 c 2
 474 1164 l 1
 467 1157 451 1149 437 1149 c 0
 423 1149 406 1157 400 1164 c 1
 135 1572 l 1
 135 1574 l 2
 135 1575 136 1576 137 1576 c 0
 138 1576 140 1576 141 1575 c 2
 437 1369 l 1
108 999 m 1
 284 999 l 1
 284 750 l 1
 321 872 417 1017 561 1017 c 0
 611 1017 695 988 772 901 c 1
 655 741 l 1
 624 781 574 828 517 828 c 0
 437 828 284 739 284 412 c 2
 284 0 l 1
 108 0 l 1
 108 999 l 1
EndSplineSet
EndChar

StartChar: rcommaaccent
Encoding: 343 343 250
Width: 823
VWidth: 0
Flags: HW
LayerCount: 2
Fore
SplineSet
338 -604 m 1
 314 -581 l 1
 375 -524 400 -472 400 -394 c 1
 331 -374 299 -323 299 -270 c 0
 299 -180 365 -132 431 -132 c 0
 502 -132 574 -179 574 -279 c 0
 574 -413 442 -604 338 -604 c 1
108 997 m 1
 284 997 l 1
 284 750 l 1
 321 871 417 1016 561 1016 c 0
 611 1016 695 986 772 900 c 1
 655 740 l 1
 624 779 574 826 517 826 c 0
 437 826 284 738 284 412 c 2
 284 0 l 1
 108 0 l 1
 108 997 l 1
EndSplineSet
EndChar

StartChar: registered
Encoding: 174 174 251
Width: 1813
VWidth: 0
Flags: HW
LayerCount: 2
Fore
SplineSet
907 2 m 0
 548 2 186 244 186 726 c 0
 186 1209 551 1448 910 1448 c 0
 1269 1448 1632 1209 1632 726 c 0
 1632 245 1267 2 907 2 c 0
908 1333 m 0
 618 1333 323 1132 323 726 c 0
 323 322 618 118 909 118 c 0
 1200 118 1495 321 1495 726 c 0
 1495 1130 1199 1333 908 1333 c 0
1172 946 m 1
 1174 947 l 1
 1174 832 1119 742 992 702 c 1
 1050 556 1129 410 1202 289 c 1
 1201 258 l 1
 1082 258 l 1
 1027 348 936 543 878 687 c 1
 877 687 l 2
 865 687 853 686 841 686 c 2
 779 686 l 1
 779 258 l 1
 662 258 l 1
 662 1192 l 1
 871 1192 l 2
 1040 1192 1172 1122 1172 946 c 1
808 784 m 1
 809 784 l 2
 940 784 1049 799 1049 940 c 0
 1049 1016 1018 1091 857 1091 c 2
 778 1091 l 1
 778 784 l 1
 808 784 l 1
EndSplineSet
EndChar

StartChar: ring
Encoding: 730 730 252
Width: 661
VWidth: 0
Flags: HW
LayerCount: 2
Fore
SplineSet
206 399 m 0
 206 322 269 283 331 283 c 0
 393 283 453 322 453 399 c 0
 453 475 392 513 330 513 c 0
 268 513 206 475 206 399 c 0
569 399 m 0
 569 254 450 181 330 181 c 0
 211 181 92 255 92 400 c 0
 92 542 211 615 331 615 c 0
 450 615 569 542 569 399 c 0
EndSplineSet
EndChar

StartChar: s
Encoding: 115 115 253
Width: 833
VWidth: 0
Flags: HW
LayerCount: 2
Fore
SplineSet
103 88 m 1
 122 235 l 1
 198 181 318 135 423 135 c 0
 504 135 566 169 566 243 c 0
 566 282 544 327 473 371 c 1
 262 497 l 1
 145 565 105 661 105 755 c 0
 105 891 218 1017 432 1017 c 0
 521 1017 635 988 704 946 c 1
 667 803 l 1
 614 833 529 872 443 872 c 0
 360 872 287 842 287 755 c 0
 287 718 309 673 391 617 c 1
 574 501 l 1
 685 429 737 331 737 246 c 0
 737 104 617 -19 425 -19 c 0
 302 -19 171 20 103 88 c 1
EndSplineSet
EndChar

StartChar: sacute
Encoding: 347 347 254
Width: 833
VWidth: 0
Flags: HW
LayerCount: 2
Fore
SplineSet
252 1184 m 2
 349 1546 l 1
 367 1608 407 1633 447 1633 c 0
 492 1633 538 1599 538 1546 c 0
 538 1522 527 1492 504 1461 c 2
 283 1170 l 1
 274 1156 263 1148 259 1148 c 0
 252 1148 249 1156 249 1163 c 0
 249 1169 250 1177 252 1184 c 2
103 89 m 1
 122 235 l 1
 198 180 318 135 423 135 c 0
 504 135 566 168 566 242 c 0
 566 282 544 326 473 371 c 1
 262 496 l 2
 145 565 105 662 105 755 c 0
 105 891 218 1016 432 1016 c 0
 521 1016 635 988 704 945 c 1
 667 803 l 1
 614 832 529 871 443 871 c 0
 360 871 287 842 287 755 c 0
 287 718 309 673 391 616 c 1
 574 501 l 1
 685 429 737 332 737 247 c 0
 737 104 617 -19 425 -19 c 0
 302 -19 171 20 103 89 c 1
EndSplineSet
EndChar

StartChar: scaron
Encoding: 353 353 255
Width: 833
VWidth: 0
Flags: HW
LayerCount: 2
Fore
SplineSet
392 1368 m 1
 690 1574 l 1
 691 1576 691 1576 692 1576 c 0
 695 1576 696 1574 696 1573 c 0
 696 1572 696 1571 695 1571 c 2
 429 1164 l 1
 424 1154 408 1149 392 1149 c 0
 378 1149 362 1154 356 1164 c 2
 91 1571 l 1
 91 1573 l 2
 91 1574 92 1576 94 1576 c 0
 95 1576 97 1576 98 1574 c 1
 392 1368 l 1
101 87 m 1
 123 234 l 1
 197 180 317 134 424 134 c 0
 503 134 567 169 567 242 c 0
 567 281 544 327 472 372 c 1
 260 495 l 1
 145 565 106 662 106 754 c 0
 106 891 217 1017 430 1017 c 0
 520 1017 634 989 703 945 c 1
 667 803 l 1
 614 833 528 872 441 872 c 0
 360 872 285 843 285 754 c 0
 285 717 308 674 389 617 c 1
 572 501 l 1
 685 428 736 331 736 245 c 0
 736 104 616 -20 426 -20 c 0
 301 -20 171 19 101 87 c 1
EndSplineSet
EndChar

StartChar: scedilla
Encoding: 351 351 256
Width: 833
VWidth: 0
Flags: HW
LayerCount: 2
Fore
SplineSet
187 -399 m 1
 183 -395 175 -390 175 -385 c 0
 175 -383 180 -380 188 -380 c 0
 214 -380 278 -397 342 -397 c 0
 399 -397 454 -383 454 -327 c 0
 454 -251 296 -261 271 -261 c 1
 353.682456419 -15.8369024798 l 1
 253.962356045 -4.24448491168 157.927964361 31.2642714569 103 87 c 1
 122 234 l 1
 198 181 318 134 423 134 c 0
 504 134 566 169 566 242 c 0
 566 281 544 327 473 371 c 1
 262 494 l 1
 145 564 105 661 105 754 c 0
 105 890 218 1017 432 1017 c 0
 521 1017 635 988 704 945 c 1
 667 803 l 1
 614 832 529 872 443 872 c 0
 360 872 287 841 287 754 c 0
 287 717 309 673 391 617 c 1
 574 501 l 1
 685 428 737 331 737 245 c 0
 737 103.631640782 618.065187534 -18.9053731288 427.557870468 -19.9927080246 c 1
 392 -132 l 1
 508 -132 587 -201 587 -293 c 0
 587 -406 483 -445 379 -445 c 0
 304 -445 230 -426 187 -399 c 1
EndSplineSet
EndChar

StartChar: scircumflex
Encoding: 349 349 257
Width: 833
VWidth: 0
Flags: HW
LayerCount: 2
Fore
SplineSet
394 1355 m 1
 98 1150 l 2
 97 1149 97 1149 96 1149 c 0
 94 1149 91 1150 91 1151 c 0
 91 1152 91 1153 92 1153 c 2
 357 1560 l 2
 364 1570 379 1576 394 1576 c 0
 409 1576 426 1570 431 1560 c 1
 696 1153 l 1
 696 1151 l 2
 696 1150 695 1149 693 1149 c 0
 692 1149 691 1149 690 1150 c 2
 394 1355 l 1
101 87 m 1
 123 234 l 1
 197 180 317 134 424 134 c 0
 503 134 567 169 567 242 c 0
 567 281 544 327 472 372 c 1
 260 495 l 1
 145 565 106 662 106 754 c 0
 106 891 217 1017 430 1017 c 0
 520 1017 634 989 703 945 c 1
 667 803 l 1
 614 833 528 872 441 872 c 0
 360 872 285 843 285 754 c 0
 285 717 308 674 389 617 c 1
 572 501 l 1
 685 428 736 331 736 245 c 0
 736 104 616 -20 426 -20 c 0
 301 -20 171 19 101 87 c 1
EndSplineSet
EndChar

StartChar: scommaaccent
Encoding: 537 537 258
Width: 833
VWidth: 0
Flags: HW
LayerCount: 2
Fore
SplineSet
294 -624 m 1
 272 -599 l 1
 332 -543 357 -492 357 -412 c 1
 288 -394 258 -341 258 -290 c 0
 258 -199 322 -151 389 -151 c 0
 459 -151 531 -198 531 -297 c 0
 531 -433 399 -624 294 -624 c 1
103 88 m 1
 122 235 l 1
 198 181 318 135 423 135 c 0
 504 135 566 169 566 242 c 0
 566 281 544 327 473 371 c 1
 262 497 l 1
 145 565 105 661 105 755 c 0
 105 891 218 1017 432 1017 c 0
 521 1017 635 988 704 946 c 1
 667 803 l 1
 614 833 529 872 443 872 c 0
 360 872 287 842 287 755 c 0
 287 717 309 673 391 617 c 1
 574 501 l 1
 685 429 737 331 737 246 c 0
 737 104 617 -19 425 -19 c 0
 302 -19 171 20 103 88 c 1
EndSplineSet
EndChar

StartChar: semicolon
Encoding: 59 59 259
Width: 641
VWidth: 0
Flags: HW
LayerCount: 2
Fore
SplineSet
226 -101 m 1
 203 -75 l 1
 265 -19 290 32 290 112 c 1
 221 130 190 183 190 234 c 0
 190 323 254 371 321 371 c 0
 391 371 464 324 464 225 c 0
 464 90 332 -101 226 -101 c 1
181 805 m 0
 181 894 247 938 311 938 c 0
 376 938 441 893 441 805 c 0
 441 720 376 678 311 678 c 0
 247 678 181 720 181 805 c 0
EndSplineSet
EndChar

StartChar: seven
Encoding: 55 55 260
Width: 1084
VWidth: 0
Flags: HW
LayerCount: 2
Fore
SplineSet
260 0 m 1
 780 1365 l 1
 96 1365 l 1
 108 1522 l 1
 986 1522 l 1
 986 1384 l 1
 445 0 l 1
 260 0 l 1
EndSplineSet
EndChar

StartChar: six
Encoding: 54 54 261
Width: 1214
VWidth: 0
Flags: HW
LayerCount: 2
Fore
SplineSet
641 936 m 0
 896 936 1116 738 1116 459 c 0
 1116 188 920 -20 609 -20 c 0
 287 -20 98 207 98 482 c 0
 98 710 174 851 377 1106 c 0
 464 1216 716 1521 716 1521 c 1
 951 1521 l 1
 411 875 l 1
 476 910 559 936 641 936 c 0
290 463 m 0
 290 290 393 135 604 135 c 0
 811 135 923 281 923 457 c 0
 923 644 808 782 604 782 c 0
 379 782 290 637 290 463 c 0
EndSplineSet
EndChar

StartChar: slash
Encoding: 47 47 262
Width: 1096
VWidth: 0
Flags: HW
LayerCount: 2
Fore
SplineSet
1012 1516 m 1
 273 0 l 1
 81 0 l 1
 822 1516 l 1
 1012 1516 l 1
EndSplineSet
EndChar

StartChar: sterling
Encoding: 163 163 264
Width: 1195
VWidth: 0
Flags: HW
LayerCount: 2
Fore
SplineSet
1100 0 m 1
 231 0 l 1
 231 648 l 1
 86 648 l 1
 86 776 l 1
 232 776 l 1
 249 1228 467 1541 774 1541 c 0
 872 1541 981 1507 1095 1433 c 1
 1095 1263 l 1
 986 1340 886 1376 799 1376 c 0
 581 1376 438 1154 425 776 c 1
 750 776 l 1
 750 648 l 1
 424 648 l 1
 424 164 l 1
 1100 164 l 1
 1100 0 l 1
EndSplineSet
EndChar

StartChar: t
Encoding: 116 116 265
Width: 747
VWidth: 0
Flags: HW
LayerCount: 2
Fore
SplineSet
165 234 m 2
 165 859 l 1
 35 859 l 2
 20 859 8 865 8 873 c 0
 8 880 12 888 17 895 c 2
 323 1238 l 1
 343 1238 l 1
 343 996 l 1
 651 996 l 1
 651 859 l 1
 343 859 l 1
 343 264 l 2
 343 163 402 129 475 129 c 0
 545 129 633 172 702 220 c 1
 702 62 l 1
 629 5 538 -21 451 -21 c 0
 298 -21 165 72 165 234 c 2
EndSplineSet
EndChar

StartChar: tcaron
Encoding: 357 357 266
Width: 748
VWidth: 0
Flags: HW
LayerCount: 2
Fore
SplineSet
938 765 m 1
 914 790 l 1
 976 844 1000 897 1000 976 c 1
 932 995 899 1046 899 1098 c 0
 899 1189 965 1238 1032 1238 c 0
 1103 1238 1175 1190 1175 1092 c 0
 1175 956 1042 765 938 765 c 1
165 234 m 2
 165 859 l 1
 34 859 l 2
 20 859 8 865 8 873 c 0
 8 880 12 888 17 895 c 2
 323 1238 l 1
 344 1238 l 1
 344 996 l 1
 652 996 l 1
 652 859 l 1
 344 859 l 1
 344 264 l 2
 344 163 402 129 475 129 c 0
 546 129 633 172 702 220 c 1
 702 62 l 1
 629 5 538 -21 450 -21 c 0
 299 -21 165 72 165 234 c 2
EndSplineSet
EndChar

StartChar: tcommaaccent
Encoding: 65540 -1 267
Width: 747
VWidth: 0
Flags: HW
LayerCount: 2
Fore
SplineSet
255 -626 m 1
 232 -601 l 1
 293 -544 317 -494 317 -414 c 1
 249 -395 218 -343 218 -290 c 0
 218 -200 283 -153 351 -153 c 0
 419 -153 492 -199 492 -299 c 0
 492 -433 359 -626 255 -626 c 1
165 234 m 2
 165 859 l 1
 35 859 l 2
 20 859 8 865 8 873 c 0
 8 879 12 888 17 895 c 2
 323 1238 l 1
 343 1238 l 1
 343 996 l 1
 651 996 l 1
 651 859 l 1
 343 859 l 1
 343 263 l 2
 343 163 402 129 475 129 c 0
 545 129 633 172 702 219 c 1
 702 61 l 1
 629 5 538 -21 451 -21 c 0
 298 -21 165 72 165 234 c 2
EndSplineSet
EndChar

StartChar: thorn
Encoding: 254 254 268
Width: 1005
VWidth: 0
Flags: HW
LayerCount: 2
Fore
SplineSet
306 768 m 1
 306 190 l 1
 306 190 366 139 497 139 c 0
 707 139 816 339 816 527 c 0
 816 695 728 854 539 854 c 0
 401 854 306 768 306 768 c 1
120 -361 m 1
 120 1477 l 1
 306 1477 l 1
 306 907 l 1
 390 983 477 1017 556 1017 c 0
 864 1017 1010 775 1010 529 c 0
 1010 260 841 -20 513 -20 c 0
 383 -20 303 35 303 35 c 1
 303 -361 l 1
 120 -361 l 1
EndSplineSet
EndChar

StartChar: three
Encoding: 51 51 269
Width: 961
VWidth: 0
Flags: HW
LayerCount: 2
Fore
SplineSet
755 414 m 0
 755 687 532 727 248 727 c 1
 248 879 l 1
 480 879 700 903 700 1138 c 0
 700 1305 601 1380 423 1380 c 0
 284 1380 164 1338 83 1274 c 1
 27 1423 l 1
 120 1494 250 1536 462 1536 c 0
 685 1536 896 1407 896 1165 c 0
 896 973 795 853 629 803 c 1
 817 762 932 625 932 411 c 0
 932 145 715 -19 423 -19 c 0
 226 -19 83 44 27 97 c 1
 83 247 l 1
 161 187 270 137 424 137 c 0
 623 137 755 234 755 414 c 0
EndSplineSet
EndChar

StartChar: tilde
Encoding: 732 732 270
Width: 624
VWidth: 0
Flags: HW
LayerCount: 2
Fore
SplineSet
83 315 m 0
 28 315 -6 271 -22 271 c 0
 -30 271 -36 277 -36 284 c 0
 -36 288 -35 294 -30 299 c 1
 22 386 82 444 175 444 c 0
 300 444 457 355 541 355 c 0
 599 355 631 402 648 402 c 0
 656 402 660 397 660 388 c 0
 660 384 659 380 656 373 c 1
 598 286 529 228 429 228 c 0
 337 228 196 315 83 315 c 0
EndSplineSet
EndChar

StartChar: two
Encoding: 50 50 271
Width: 1094
VWidth: 0
Flags: HW
LayerCount: 2
Fore
SplineSet
125 1404 m 1
 210 1483 340 1534 535 1534 c 0
 818 1534 989 1371 989 1116 c 0
 989 926 886 780 718 606 c 1
 290 157 l 1
 993 157 l 1
 993 0 l 1
 95 0 l 1
 95 164 l 1
 596 736 l 1
 715 868 791 983 791 1102 c 0
 791 1277 700 1375 521 1375 c 0
 396 1375 270 1338 185 1252 c 1
 125 1404 l 1
EndSplineSet
EndChar

StartChar: u
Encoding: 117 117 272
Width: 1003
VWidth: 0
Flags: HW
LayerCount: 2
Fore
SplineSet
100 334 m 2
 100 996 l 1
 279 996 l 1
 279 325 l 2
 279 183 358 127 452 127 c 0
 551 127 662 186 718 272 c 1
 718 996 l 1
 895 996 l 1
 895 0 l 1
 720 0 l 1
 720 129 l 1
 633 30 524 -18 418 -18 c 0
 252 -18 100 101 100 334 c 2
EndSplineSet
EndChar

StartChar: uacute
Encoding: 250 250 273
Width: 1003
VWidth: 0
Flags: HW
LayerCount: 2
Fore
SplineSet
356 1185 m 2
 452 1547 l 1
 471 1609 511 1634 551 1634 c 0
 596 1634 642 1600 642 1547 c 0
 642 1522 631 1493 608 1462 c 2
 386 1171 l 1
 377 1157 367 1149 362 1149 c 0
 356 1149 353 1157 353 1164 c 0
 353 1170 354 1178 356 1185 c 2
100 337 m 2
 100 999 l 1
 279 999 l 1
 279 326 l 2
 279 183 358 128 452 128 c 0
 551 128 662 187 718 273 c 1
 718 999 l 1
 895 999 l 1
 895 0 l 1
 720 0 l 1
 720 130 l 1
 633 33 524 -17 418 -17 c 0
 252 -17 100 102 100 337 c 2
EndSplineSet
EndChar

StartChar: ubreve
Encoding: 365 365 274
Width: 1003
VWidth: 0
Flags: HW
LayerCount: 2
Fore
SplineSet
728 1387 m 1
 721 1228 609 1149 498 1149 c 0
 385 1149 272 1228 266 1387 c 1
 370 1387 l 1
 380 1306 438 1265 497 1265 c 0
 555 1265 614 1306 623 1387 c 1
 728 1387 l 1
100 335 m 2
 100 997 l 1
 279 997 l 1
 279 326 l 2
 279 183 358 128 452 128 c 0
 551 128 662 187 718 273 c 1
 718 997 l 1
 895 997 l 1
 895 0 l 1
 720 0 l 1
 720 130 l 1
 633 31 524 -17 418 -17 c 0
 252 -17 100 102 100 335 c 2
EndSplineSet
EndChar

StartChar: ucircumflex
Encoding: 251 251 275
Width: 1003
VWidth: 0
Flags: HW
LayerCount: 2
Fore
SplineSet
498 1355 m 1
 201 1150 l 2
 200 1149 200 1149 199 1149 c 0
 197 1149 195 1150 195 1151 c 0
 195 1152 195 1153 196 1153 c 2
 461 1560 l 2
 468 1570 484 1575 498 1575 c 0
 512 1575 529 1570 537 1560 c 1
 801 1153 l 1
 801 1151 l 2
 801 1150 800 1149 799 1149 c 0
 798 1149 795 1149 793 1150 c 2
 498 1355 l 1
100 335 m 2
 100 996 l 1
 279 996 l 1
 279 325 l 2
 279 183 358 126 452 126 c 0
 551 126 662 186 718 271 c 1
 718 996 l 1
 895 996 l 1
 895 0 l 1
 720 0 l 1
 720 130 l 1
 633 31 524 -19 418 -19 c 0
 252 -19 100 100 100 335 c 2
EndSplineSet
EndChar

StartChar: udieresis
Encoding: 252 252 276
Width: 1003
VWidth: 0
Flags: HW
LayerCount: 2
Fore
SplineSet
568 1262 m 0
 568 1341 628 1382 685 1382 c 0
 743 1382 802 1341 802 1262 c 0
 802 1185 743 1149 685 1149 c 0
 628 1149 568 1186 568 1262 c 0
193 1262 m 0
 193 1341 250 1382 309 1382 c 0
 367 1382 426 1341 426 1262 c 0
 426 1185 367 1149 309 1149 c 0
 250 1149 193 1186 193 1262 c 0
100 336 m 2
 100 997 l 1
 279 997 l 1
 279 326 l 2
 279 183 358 128 452 128 c 0
 551 128 662 186 718 272 c 1
 718 997 l 1
 895 997 l 1
 895 0 l 1
 720 0 l 1
 720 130 l 1
 633 32 524 -17 418 -17 c 0
 252 -17 100 101 100 336 c 2
EndSplineSet
EndChar

StartChar: ugrave
Encoding: 249 249 277
Width: 1003
VWidth: 0
Flags: HW
LayerCount: 2
Fore
SplineSet
547 1558 m 1
 632 1181 l 2
 634 1173 634 1167 634 1161 c 0
 634 1154 631 1147 626 1147 c 0
 619 1147 609 1154 600 1167 c 2
 390 1474 l 1
 368 1503 358 1530 358 1555 c 0
 358 1607 404 1644 451 1644 c 0
 488 1644 527 1620 547 1558 c 1
100 335 m 2
 100 997 l 1
 279 997 l 1
 279 324 l 2
 279 182 358 126 452 126 c 0
 551 126 662 186 718 271 c 1
 718 997 l 1
 895 997 l 1
 895 0 l 1
 720 0 l 1
 720 129 l 1
 633 31 524 -19 418 -19 c 0
 252 -19 100 101 100 335 c 2
EndSplineSet
EndChar

StartChar: uhungarumlaut
Encoding: 369 369 278
Width: 1003
VWidth: 0
Flags: HW
LayerCount: 2
Fore
SplineSet
180 1185 m 1
 274 1547 l 1
 293 1609 332 1634 373 1634 c 0
 418 1634 464 1600 464 1547 c 0
 464 1522 454 1493 430 1462 c 2
 209 1171 l 2
 199 1157 188 1149 184 1149 c 0
 180 1149 173 1157 173 1164 c 0
 173 1170 177 1178 180 1185 c 1
535 1185 m 1
 632 1547 l 2
 649 1609 690 1634 731 1634 c 0
 776 1634 821 1600 821 1547 c 0
 821 1522 813 1493 789 1462 c 2
 567 1171 l 2
 557 1157 545 1149 540 1149 c 0
 535 1149 532 1157 532 1164 c 0
 532 1170 532 1178 535 1185 c 1
100 337 m 2
 100 999 l 1
 279 999 l 1
 279 326 l 2
 279 183 358 128 452 128 c 0
 551 128 662 187 718 273 c 1
 718 999 l 1
 895 999 l 1
 895 0 l 1
 720 0 l 1
 720 130 l 1
 633 33 524 -17 418 -17 c 0
 252 -17 100 102 100 337 c 2
EndSplineSet
EndChar

StartChar: umacron
Encoding: 363 363 279
Width: 1003
VWidth: 0
Flags: HW
LayerCount: 2
Fore
SplineSet
240 1149 m 1
 240 1301 l 1
 754 1301 l 1
 754 1149 l 1
 240 1149 l 1
100 336 m 2
 100 998 l 1
 279 998 l 1
 279 326 l 2
 279 183 358 128 452 128 c 0
 551 128 662 188 718 273 c 1
 718 998 l 1
 895 998 l 1
 895 0 l 1
 720 0 l 1
 720 130 l 1
 633 32 524 -17 418 -17 c 0
 252 -17 100 102 100 336 c 2
EndSplineSet
EndChar

StartChar: uni01C4
Encoding: 452 452 280
Width: 2949
VWidth: 0
Flags: HW
LayerCount: 2
Fore
SplineSet
704 1889 m 1
 1002 2095 l 2
 1004 2096 1004 2096 1005 2096 c 0
 1007 2096 1008 2095 1008 2094 c 0
 1008 2093 1008 2091 1007 2091 c 2
 741 1684 l 2
 734 1675 718 1669 704 1669 c 0
 690 1669 674 1675 667 1684 c 2
 402 2091 l 1
 402 2094 l 2
 402 2095 403 2096 404 2096 c 0
 405 2096 408 2096 410 2095 c 2
 704 1889 l 1
1302 1516 m 1
 1311 1506 l 1
 442 169 l 1
 1314 169 l 1
 1314 0 l 1
 98 0 l 1
 96 11 l 1
 967 1352 l 1
 146 1352 l 1
 146 1516 l 1
 1302 1516 l 1
1711 1337 m 1
 1711 177 l 1
 2055 177 l 2
 2399 177 2634 374 2634 761 c 0
 2634 1199 2399 1337 2103 1337 c 2
 1711 1337 l 1
2098 0 m 2
 1520 0 l 1
 1520 1516 l 1
 2131 1516 l 2
 2595 1516 2842 1207 2842 764 c 0
 2842 356 2575 0 2098 0 c 2
EndSplineSet
EndChar

StartChar: uni01C5
Encoding: 453 453 281
Width: 2461
VWidth: 0
Flags: HW
LayerCount: 2
Fore
SplineSet
444 1369 m 1
 740 1575 l 2
 741 1576 741 1576 745 1576 c 0
 747 1576 748 1575 748 1574 c 0
 748 1573 748 1572 747 1572 c 2
 481 1164 l 1
 474 1157 458 1149 444 1149 c 0
 430 1149 414 1157 407 1164 c 1
 142 1572 l 1
 142 1574 l 2
 142 1575 143 1576 144 1576 c 0
 145 1576 147 1576 149 1575 c 2
 444 1369 l 1
104 999 m 1
 812 999 l 1
 828 952 l 1
 329 141 l 1
 816 141 l 1
 816 0 l 1
 75 0 l 1
 65 35 l 1
 567 857 l 1
 104 857 l 1
 104 999 l 1
1223 1337 m 1
 1223 177 l 1
 1567 177 l 2
 1911 177 2146 373 2146 761 c 0
 2146 1199 1911 1337 1615 1337 c 2
 1223 1337 l 1
1609 0 m 2
 1031 0 l 1
 1031 1516 l 1
 1643 1516 l 2
 2107 1516 2356 1207 2356 764 c 0
 2356 357 2086 0 1609 0 c 2
EndSplineSet
EndChar

StartChar: uni01C6
Encoding: 454 454 282
Width: 1967
VWidth: 0
Flags: HW
LayerCount: 2
Fore
SplineSet
443 1368 m 1
 741 1574 l 1
 742 1576 742 1576 743 1576 c 0
 746 1576 747 1574 747 1573 c 0
 747 1572 747 1571 746 1571 c 2
 481 1164 l 2
 474 1154 457 1149 443 1149 c 0
 429 1149 413 1154 406 1164 c 2
 141 1571 l 1
 141 1573 l 2
 141 1574 142 1576 143 1576 c 0
 144 1576 147 1576 148 1574 c 1
 443 1368 l 1
103 996 m 1
 813 996 l 1
 829 952 l 1
 329 140 l 1
 816 140 l 1
 816 0 l 1
 75 0 l 1
 66 33 l 1
 567 857 l 1
 103 857 l 1
 103 996 l 1
1555 113 m 0
 1595 113 1638 117 1678 135 c 1
 1678 792 l 1
 1633 838 1552 872 1467 872 c 0
 1275 872 1169 693 1169 509 c 0
 1169 307 1291 113 1555 113 c 0
1542 -20 m 0
 1159 -20 983 250 983 515 c 0
 983 767 1145 1017 1443 1017 c 0
 1526 1017 1607 995 1678 953 c 1
 1678 1491 l 1
 1858 1491 l 1
 1858 48 l 1
 1858 48 1716 -20 1542 -20 c 0
EndSplineSet
EndChar

StartChar: uni01C9
Encoding: 457 457 283
Width: 1094
VWidth: 0
Flags: HW
LayerCount: 2
Fore
SplineSet
270 1156 m 0
 188 1156 143 1214 143 1276 c 0
 143 1336 188 1397 270 1397 c 0
 352 1397 395 1336 395 1276 c 0
 395 1214 352 1156 270 1156 c 0
19 -384 m 1
 -9 -242 l 1
 181 -242 180 -112 180 4 c 2
 180 1016 l 1
 359 1016 l 1
 359 -79 l 2
 359 -173 321 -384 19 -384 c 1
600 274 m 2
 600 1490 l 1
 779 1490 l 1
 779 303 l 2
 779 173 828 130 891 130 c 0
 943 130 1005 156 1062 188 c 1
 1062 36 l 1
 1005 0 937 -19 870 -19 c 0
 730 -19 600 73 600 274 c 2
EndSplineSet
EndChar

StartChar: uni01CC
Encoding: 460 460 284
Width: 1491
VWidth: 0
Flags: HW
LayerCount: 2
Fore
SplineSet
269 1155 m 0
 188 1155 143 1213 143 1276 c 0
 143 1337 188 1395 269 1395 c 0
 350 1395 392 1337 392 1276 c 0
 392 1213 350 1155 269 1155 c 0
17 -384 m 1
 -11 -243 l 1
 180 -243 178 -113 178 4 c 2
 178 1017 l 1
 359 1017 l 1
 359 -79 l 2
 359 -173 319 -384 17 -384 c 1
1391 679 m 2
 1391 0 l 1
 1213 0 l 1
 1213 675 l 2
 1213 817 1141 867 1052 867 c 0
 943 867 809 788 758 709 c 1
 758 0 l 1
 579 0 l 1
 579 997 l 1
 753 997 l 1
 753 853 l 1
 888 1006 1024 1017 1080 1017 c 0
 1267 1017 1391 879 1391 679 c 2
EndSplineSet
EndChar

StartChar: uni01F1
Encoding: 497 497 285
Width: 2949
VWidth: 0
Flags: HW
LayerCount: 2
Fore
SplineSet
1302 1516 m 1
 1311 1507 l 1
 442 168 l 1
 1314 168 l 1
 1314 0 l 1
 98 0 l 1
 96 10 l 1
 967 1352 l 1
 146 1352 l 1
 146 1516 l 1
 1302 1516 l 1
1711 1337 m 1
 1711 177 l 1
 2055 177 l 2
 2399 177 2634 373 2634 760 c 0
 2634 1198 2399 1337 2103 1337 c 2
 1711 1337 l 1
2098 0 m 2
 1520 0 l 1
 1520 1516 l 1
 2131 1516 l 2
 2595 1516 2842 1207 2842 763 c 0
 2842 357 2575 0 2098 0 c 2
EndSplineSet
EndChar

StartChar: uni01F2
Encoding: 498 498 286
Width: 2461
VWidth: 0
Flags: HW
LayerCount: 2
Fore
SplineSet
104 998 m 1
 812 998 l 1
 828 952 l 1
 329 140 l 1
 816 140 l 1
 816 0 l 1
 75 0 l 1
 65 34 l 1
 567 856 l 1
 104 856 l 1
 104 998 l 1
1223 1337 m 1
 1223 177 l 1
 1567 177 l 2
 1911 177 2146 373 2146 760 c 0
 2146 1198 1911 1337 1615 1337 c 2
 1223 1337 l 1
1609 0 m 2
 1031 0 l 1
 1031 1516 l 1
 1643 1516 l 2
 2107 1516 2356 1207 2356 763 c 0
 2356 357 2086 0 1609 0 c 2
EndSplineSet
EndChar

StartChar: uni01F3
Encoding: 499 499 287
Width: 1936
VWidth: 0
Flags: HW
LayerCount: 2
Fore
SplineSet
103 998 m 1
 813 998 l 1
 829 952 l 1
 329 141 l 1
 816 141 l 1
 816 0 l 1
 75 0 l 1
 66 34 l 1
 568 856 l 1
 103 856 l 1
 103 998 l 1
1524 115 m 0
 1564 115 1606 117 1647 136 c 1
 1647 793 l 1
 1601 840 1519 871 1435 871 c 0
 1242 871 1137 695 1137 510 c 0
 1137 309 1260 115 1524 115 c 0
1511 -18 m 0
 1128 -18 950 250 950 515 c 0
 950 768 1114 1017 1411 1017 c 0
 1493 1017 1576 997 1647 953 c 1
 1647 1490 l 1
 1827 1490 l 1
 1827 49 l 1
 1827 49 1685 -18 1511 -18 c 0
EndSplineSet
EndChar

StartChar: uni01F4
Encoding: 500 500 288
Width: 1543
VWidth: 0
Flags: HW
LayerCount: 2
Fore
SplineSet
618 1704 m 2
 714 2066 l 1
 732 2128 773 2153 812 2153 c 0
 858 2153 904 2119 904 2066 c 0
 904 2040 893 2011 869 1981 c 2
 647 1690 l 1
 639 1674 629 1668 622 1668 c 0
 618 1668 615 1674 615 1683 c 0
 615 1687 616 1696 618 1704 c 2
921 1536 m 0
 1077 1536 1235 1495 1386 1408 c 1
 1386 1242 l 1
 1238 1333 1081 1376 936 1376 c 0
 592 1376 303 1135 303 730 c 0
 303 411 531 146 886 146 c 0
 989 146 1105 168 1227 219 c 1
 1228 219 l 1
 1228 557 l 1
 953 557 l 1
 953 730 l 1
 1421 730 l 1
 1421 106 l 1
 1210 17 1027 -20 870 -20 c 0
 347 -20 106 391 106 732 c 0
 106 1206 468 1536 921 1536 c 0
EndSplineSet
EndChar

StartChar: uni01F5
Encoding: 501 501 289
Width: 1069
VWidth: 0
Flags: HW
LayerCount: 2
Fore
SplineSet
377 1183 m 2
 474 1546 l 1
 492 1609 532 1634 572 1634 c 0
 617 1634 663 1599 663 1546 c 0
 663 1521 652 1492 629 1461 c 2
 408 1169 l 1
 399 1155 388 1149 384 1149 c 0
 377 1149 374 1155 374 1164 c 0
 374 1168 375 1177 377 1183 c 2
780 87 m 1
 777 84 676 0 538 0 c 0
 230 0 80 268 80 526 c 0
 80 805 298 1016 516 1016 c 0
 603 1016 694 975 783 885 c 1
 783 997 l 1
 958 997 l 1
 958 -54 l 2
 958 -345 756 -437 551 -437 c 0
 448 -437 344 -414 263 -380 c 1
 263 -223 l 1
 361 -264 467 -291 559 -291 c 0
 696 -291 803 -230 803 -59 c 0
 803 -17 795 32 780 87 c 1
264 516 m 0
 264 286 386 152 571 152 c 0
 633 152 704 168 780 201 c 1
 780 773 l 1
 704 835 626 862 557 862 c 0
 408 862 264 733 264 516 c 0
EndSplineSet
EndChar

StartChar: uni01c7
Encoding: 455 455 290
Width: 1635
VWidth: 0
Flags: HW
LayerCount: 2
Fore
SplineSet
271 1514 m 1
 463 1514 l 1
 463 -44 l 2
 463 -289 327 -393 6 -394 c 1
 6 -240 l 1
 239 -240 271 -177 271 23 c 2
 271 1514 l 1
735 0 m 1
 735 1514 l 1
 926 1514 l 1
 926 177 l 1
 1554 177 l 1
 1554 0 l 1
 735 0 l 1
EndSplineSet
EndChar

StartChar: uni01c8
Encoding: 456 456 291
Width: 1502
VWidth: 0
Flags: HW
LayerCount: 2
Fore
SplineSet
269 1156 m 0
 187 1156 141 1214 141 1276 c 0
 141 1337 187 1397 269 1397 c 0
 350 1397 392 1337 392 1276 c 0
 392 1214 350 1156 269 1156 c 0
17 -384 m 1
 -11 -242 l 1
 179 -242 177 -112 177 4 c 2
 177 1016 l 1
 358 1016 l 1
 358 -79 l 2
 358 -173 319 -384 17 -384 c 1
603 0 m 1
 603 1515 l 1
 794 1515 l 1
 794 179 l 1
 1421 179 l 1
 1421 0 l 1
 603 0 l 1
EndSplineSet
EndChar

StartChar: uni01ca
Encoding: 458 458 292
Width: 2204
VWidth: 0
Flags: HW
LayerCount: 2
Fore
SplineSet
271 1514 m 1
 463 1514 l 1
 463 -44 l 2
 463 -289 327 -393 8 -394 c 1
 8 -240 l 1
 240 -240 271 -177 271 23 c 2
 271 1514 l 1
914 0 m 1
 735 0 l 1
 735 1514 l 1
 887 1514 l 1
 1891 310 l 1
 1891 1514 l 1
 2076 1514 l 1
 2076 0 l 1
 1914 0 l 1
 914 1192 l 1
 914 0 l 1
EndSplineSet
EndChar

StartChar: uni01cb
Encoding: 459 459 293
Width: 2072
VWidth: 0
Flags: HW
LayerCount: 2
Fore
SplineSet
268 1156 m 0
 188 1156 143 1214 143 1276 c 0
 143 1337 188 1397 268 1397 c 0
 350 1397 394 1337 394 1276 c 0
 394 1214 350 1156 268 1156 c 0
18 -384 m 1
 -11 -242 l 1
 179 -242 178 -112 178 4 c 2
 178 1016 l 1
 359 1016 l 1
 359 -79 l 2
 359 -173 320 -384 18 -384 c 1
783 0 m 1
 602 0 l 1
 602 1515 l 1
 756 1515 l 1
 1759 311 l 1
 1759 1515 l 1
 1945 1515 l 1
 1945 0 l 1
 1782 0 l 1
 783 1194 l 1
 783 0 l 1
EndSplineSet
EndChar

StartChar: uni0200
Encoding: 512 512 294
Width: 1527
VWidth: 0
Flags: HW
LayerCount: 2
Fore
SplineSet
817 1516 m 1
 1466 4 l 1
 1463 0 l 1
 1277 0 l 1
 1064 487 l 1
 460 487 l 1
 258 0 l 1
 60 0 l 1
 674 1516 l 1
 817 1516 l 1
988 662 m 1
 751 1265 l 1
 533 662 l 1
 988 662 l 1
EndSplineSet
EndChar

StartChar: uni0201
Encoding: 513 513 295
Width: 958
VWidth: 0
Flags: HW
LayerCount: 2
Fore
SplineSet
275 245 m 0
 275 27 527 130 602 224 c 1
 602 460 l 1
 477 419 275 380 275 245 c 0
86 230 m 0
 86 339 183 458 438 525 c 2
 602 568 l 1
 602 573 603 612 603 625 c 0
 603 755 544 841 433 841 c 0
 321 841 224 792 155 725 c 1
 104 878 l 1
 143 919 288 1006 429 1006 c 0
 595 1006 780 924 780 693 c 2
 780 285 l 2
 780 177 829 171 911 128 c 1
 813 -14 l 1
 751 15 663 71 631 138 c 1
 566 23 435 -21 354 -21 c 0
 207 -21 86 45 86 230 c 0
EndSplineSet
EndChar

StartChar: uni0202
Encoding: 514 514 296
Width: 1527
VWidth: 0
Flags: HW
LayerCount: 2
Fore
SplineSet
1032 1668 m 1
 889 1668 l 1
 880 1750 829 1793 762 1793 c 0
 695 1793 645 1750 635 1668 c 1
 492 1668 l 1
 499 1828 639 1920 763 1920 c 0
 887 1920 1026 1828 1032 1668 c 1
817 1516 m 1
 1466 2 l 1
 1463 0 l 1
 1277 0 l 1
 1064 487 l 1
 460 487 l 1
 258 0 l 1
 60 0 l 1
 674 1516 l 1
 817 1516 l 1
988 661 m 1
 751 1265 l 1
 533 661 l 1
 988 661 l 1
EndSplineSet
EndChar

StartChar: uni0203
Encoding: 515 515 297
Width: 958
VWidth: 0
Flags: HW
LayerCount: 2
Fore
SplineSet
768 1149 m 1
 625 1149 l 1
 616 1231 566 1273 498 1273 c 0
 431 1273 381 1231 372 1149 c 1
 229 1149 l 1
 235 1308 375 1400 499 1400 c 0
 623 1400 762 1308 768 1149 c 1
275 244 m 0
 275 26 527 130 602 225 c 1
 602 460 l 1
 477 420 275 382 275 244 c 0
86 230 m 0
 86 341 183 458 438 527 c 1
 602 569 l 1
 602 572 603 613 603 626 c 0
 603 755 544 843 433 843 c 0
 321 843 224 791 155 725 c 1
 104 878 l 1
 143 919 288 1006 429 1006 c 0
 595 1006 780 923 780 692 c 2
 780 285 l 2
 780 177 829 171 911 128 c 1
 813 -14 l 1
 751 14 663 71 631 139 c 1
 566 25 435 -21 354 -21 c 0
 207 -21 86 45 86 230 c 0
EndSplineSet
EndChar

StartChar: uni0204
Encoding: 516 516 298
Width: 1060
VWidth: 0
Flags: HW
LayerCount: 2
Fore
SplineSet
960 1516 m 1
 960 1339 l 1
 319 1339 l 1
 319 856 l 1
 946 856 l 1
 946 682 l 1
 319 682 l 1
 319 177 l 1
 973 177 l 1
 973 0 l 1
 128 0 l 1
 128 1516 l 1
 960 1516 l 1
EndSplineSet
EndChar

StartChar: uni0205
Encoding: 517 517 299
Width: 1051
VWidth: 0
Flags: HW
LayerCount: 2
Fore
SplineSet
783 618 m 1
 782 762 678 867 538 867 c 0
 390 867 302 757 278 618 c 1
 783 618 l 1
615 -19 m 0
 292 -19 80 198 80 515 c 0
 80 788 269 1016 532 1016 c 0
 812 1016 946 812 946 525 c 2
 946 498 l 1
 272 498 l 1
 274 283 401 130 614 130 c 0
 723 130 829 163 928 229 c 1
 928 72 l 1
 837 12 733 -19 615 -19 c 0
EndSplineSet
EndChar

StartChar: uni0206
Encoding: 518 518 300
Width: 1060
VWidth: 0
Flags: HW
LayerCount: 2
Fore
SplineSet
814 1668 m 1
 670 1668 l 1
 661 1750 611 1793 545 1793 c 0
 477 1793 427 1750 418 1668 c 1
 274 1668 l 1
 281 1828 420 1920 546 1920 c 0
 669 1920 807 1828 814 1668 c 1
960 1516 m 1
 960 1339 l 1
 319 1339 l 1
 319 856 l 1
 946 856 l 1
 946 682 l 1
 319 682 l 1
 319 177 l 1
 973 177 l 1
 973 0 l 1
 128 0 l 1
 128 1516 l 1
 960 1516 l 1
EndSplineSet
EndChar

StartChar: uni0207
Encoding: 519 519 301
Width: 1051
VWidth: 0
Flags: HW
LayerCount: 2
Fore
SplineSet
783 1149 m 1
 639 1149 l 1
 630 1231 580 1272 514 1272 c 0
 447 1272 396 1231 387 1149 c 1
 243 1149 l 1
 250 1308 389 1400 515 1400 c 0
 638 1400 777 1308 783 1149 c 1
783 618 m 1
 782 761 678 865 538 865 c 0
 390 865 302 756 278 618 c 1
 783 618 l 1
615 -20 m 0
 292 -20 80 198 80 516 c 0
 80 787 269 1016 532 1016 c 0
 812 1016 946 810 946 523 c 2
 946 497 l 1
 272 497 l 1
 274 282 401 130 614 130 c 0
 723 130 829 161 928 228 c 1
 928 71 l 1
 837 12 733 -20 615 -20 c 0
EndSplineSet
EndChar

StartChar: uni0208
Encoding: 520 520 302
Width: 428
VWidth: 0
Flags: HW
LayerCount: 2
Fore
SplineSet
311 1516 m 1
 311 0 l 1
 120 0 l 1
 120 1516 l 1
 311 1516 l 1
EndSplineSet
EndChar

StartChar: uni0209
Encoding: 521 521 303
Width: 457
VWidth: 0
Flags: HW
LayerCount: 2
Fore
SplineSet
343 998 m 1
 343 0 l 1
 162 0 l 1
 162 998 l 1
 343 998 l 1
EndSplineSet
EndChar

StartChar: uni020A
Encoding: 522 522 304
Width: 429
VWidth: 0
Flags: HW
LayerCount: 2
Fore
SplineSet
484 1668 m 1
 341 1668 l 1
 332 1750 282 1793 214 1793 c 0
 147 1793 97 1750 88 1668 c 1
 -55 1668 l 1
 -49 1828 91 1920 215 1920 c 0
 339 1920 478 1828 484 1668 c 1
311 1516 m 1
 311 0 l 1
 119 0 l 1
 119 1516 l 1
 311 1516 l 1
EndSplineSet
EndChar

StartChar: uni020B
Encoding: 523 523 305
Width: 456
VWidth: 0
Flags: HW
LayerCount: 2
Fore
SplineSet
520 1149 m 1
 377 1149 l 1
 368 1231 318 1273 250 1273 c 0
 183 1273 133 1231 124 1149 c 1
 -19 1149 l 1
 -13 1308 127 1401 251 1401 c 0
 375 1401 514 1308 520 1149 c 1
342 999 m 1
 342 0 l 1
 161 0 l 1
 161 999 l 1
 342 999 l 1
EndSplineSet
EndChar

StartChar: uni020C
Encoding: 524 524 306
Width: 1757
VWidth: 0
Flags: HW
LayerCount: 2
Fore
SplineSet
877 -19 m 0
 452 -19 105 331 105 759 c 0
 105 1189 452 1536 877 1536 c 0
 1301 1536 1650 1189 1650 759 c 0
 1650 331 1301 -19 877 -19 c 0
877 1356 m 0
 562 1356 305 1088 305 759 c 0
 305 430 562 163 877 163 c 0
 1192 163 1451 430 1451 759 c 0
 1451 1088 1192 1356 877 1356 c 0
EndSplineSet
EndChar

StartChar: uni020D
Encoding: 525 525 307
Width: 1198
VWidth: 0
Flags: HW
LayerCount: 2
Fore
SplineSet
599 -19 m 0
 316 -19 81 186 81 500 c 0
 81 812 316 1017 599 1017 c 0
 882 1017 1119 812 1119 500 c 0
 1119 186 882 -19 599 -19 c 0
599 863 m 0
 397 863 260 701 260 498 c 0
 260 298 397 133 599 133 c 0
 801 133 940 298 940 498 c 0
 940 701 801 863 599 863 c 0
EndSplineSet
EndChar

StartChar: uni020E
Encoding: 526 526 308
Width: 1757
VWidth: 0
Flags: HW
LayerCount: 2
Fore
SplineSet
1145 1667 m 1
 1001 1667 l 1
 992 1750 941 1793 875 1793 c 0
 808 1793 758 1750 748 1667 c 1
 604 1667 l 1
 611 1826 751 1918 876 1918 c 0
 999 1918 1139 1826 1145 1667 c 1
877 -19 m 0
 452 -19 105 330 105 759 c 0
 105 1188 452 1535 877 1535 c 0
 1301 1535 1650 1188 1650 759 c 0
 1650 330 1301 -19 877 -19 c 0
877 1356 m 0
 562 1356 305 1087 305 759 c 0
 305 430 562 161 877 161 c 0
 1192 161 1451 430 1451 759 c 0
 1451 1087 1192 1356 877 1356 c 0
EndSplineSet
EndChar

StartChar: uni020F
Encoding: 527 527 309
Width: 1198
VWidth: 0
Flags: HW
LayerCount: 2
Fore
SplineSet
869 1149 m 1
 726 1149 l 1
 717 1231 666 1272 599 1272 c 0
 532 1272 482 1231 472 1149 c 1
 329 1149 l 1
 336 1308 476 1400 600 1400 c 0
 724 1400 863 1308 869 1149 c 1
599 -20 m 0
 316 -20 81 186 81 500 c 0
 81 810 316 1017 599 1017 c 0
 882 1017 1119 810 1119 500 c 0
 1119 186 882 -20 599 -20 c 0
599 862 m 0
 397 862 260 701 260 497 c 0
 260 298 397 132 599 132 c 0
 801 132 940 298 940 497 c 0
 940 701 801 862 599 862 c 0
EndSplineSet
EndChar

StartChar: uni0210
Encoding: 528 528 310
Width: 1096
VWidth: 0
Flags: HW
LayerCount: 2
Fore
SplineSet
956 1118 m 0
 956 931 867 787 662 723 c 1
 753 485 884 249 1003 51 c 1
 1002 0 l 1
 809 0 l 1
 721 148 575 463 479 696 c 1
 477 696 l 2
 459 696 440 695 421 695 c 2
 320 695 l 1
 320 0 l 1
 129 0 l 1
 129 1516 l 1
 469 1516 l 2
 741 1516 956 1401 956 1118 c 0
368 856 m 2
 580 856 755 879 755 1107 c 0
 755 1231 708 1352 448 1352 c 2
 320 1352 l 1
 320 856 l 1
 368 856 l 2
EndSplineSet
EndChar

StartChar: uni0211
Encoding: 529 529 311
Width: 823
VWidth: 0
Flags: HW
LayerCount: 2
Fore
SplineSet
108 996 m 1
 284 996 l 1
 284 749 l 1
 321 870 417 1015 561 1015 c 0
 611 1015 695 985 772 899 c 1
 655 740 l 1
 624 779 574 825 517 825 c 0
 437 825 284 737 284 411 c 2
 284 0 l 1
 108 0 l 1
 108 996 l 1
EndSplineSet
EndChar

StartChar: uni0212
Encoding: 530 530 312
Width: 1096
VWidth: 0
Flags: HW
LayerCount: 2
Fore
SplineSet
830 1668 m 1
 686 1668 l 1
 677 1750 627 1793 561 1793 c 0
 494 1793 443 1750 434 1668 c 1
 290 1668 l 1
 297 1828 436 1920 562 1920 c 0
 685 1920 824 1828 830 1668 c 1
956 1118 m 0
 956 932 867 788 662 723 c 1
 753 486 884 249 1003 51 c 1
 1002 0 l 1
 809 0 l 1
 721 146 575 462 479 696 c 1
 477 696 l 2
 459 696 440 695 421 695 c 2
 320 695 l 1
 320 0 l 1
 129 0 l 1
 129 1516 l 1
 469 1516 l 2
 741 1516 956 1400 956 1118 c 0
368 856 m 2
 580 856 755 879 755 1107 c 0
 755 1231 708 1352 448 1352 c 2
 320 1352 l 1
 320 856 l 1
 368 856 l 2
EndSplineSet
EndChar

StartChar: uni0213
Encoding: 531 531 313
Width: 823
VWidth: 0
Flags: HW
LayerCount: 2
Fore
SplineSet
707 1149 m 1
 563 1149 l 1
 554 1231 503 1273 437 1273 c 0
 370 1273 320 1231 310 1149 c 1
 166 1149 l 1
 173 1308 312 1401 438 1401 c 0
 561 1401 701 1308 707 1149 c 1
108 999 m 1
 284 999 l 1
 284 750 l 1
 321 872 417 1017 561 1017 c 0
 611 1017 695 988 772 901 c 1
 655 741 l 1
 624 781 574 827 517 827 c 0
 437 827 284 739 284 412 c 2
 284 0 l 1
 108 0 l 1
 108 999 l 1
EndSplineSet
EndChar

StartChar: uni0214
Encoding: 532 532 314
Width: 1486
VWidth: 0
Flags: HW
LayerCount: 2
Fore
SplineSet
744 -18 m 0
 438 -18 129 182 129 587 c 2
 129 1515 l 1
 321 1515 l 1
 321 592 l 2
 321 301 529 155 741 155 c 0
 953 155 1164 301 1164 592 c 2
 1164 1515 l 1
 1356 1515 l 1
 1356 588 l 2
 1356 182 1049 -18 744 -18 c 0
EndSplineSet
EndChar

StartChar: uni0215
Encoding: 533 533 315
Width: 1003
VWidth: 0
Flags: HW
LayerCount: 2
Fore
SplineSet
100 334 m 2
 100 996 l 1
 279 996 l 1
 279 325 l 2
 279 183 358 127 452 127 c 0
 551 127 662 186 718 272 c 1
 718 996 l 1
 895 996 l 1
 895 0 l 1
 720 0 l 1
 720 129 l 1
 633 30 524 -18 418 -18 c 0
 252 -18 100 101 100 334 c 2
EndSplineSet
EndChar

StartChar: uni0216
Encoding: 534 534 316
Width: 1486
VWidth: 0
Flags: HW
LayerCount: 2
Fore
SplineSet
1012 1667 m 1
 869 1667 l 1
 860 1750 810 1793 742 1793 c 0
 675 1793 625 1750 616 1667 c 1
 473 1667 l 1
 479 1826 619 1918 743 1918 c 0
 867 1918 1006 1826 1012 1667 c 1
744 -19 m 0
 438 -19 129 182 129 585 c 2
 129 1515 l 1
 321 1515 l 1
 321 591 l 2
 321 300 529 154 741 154 c 0
 953 154 1164 300 1164 591 c 2
 1164 1515 l 1
 1356 1515 l 1
 1356 587 l 2
 1356 182 1049 -19 744 -19 c 0
EndSplineSet
EndChar

StartChar: uni0217
Encoding: 535 535 317
Width: 1003
VWidth: 0
Flags: HW
LayerCount: 2
Fore
SplineSet
767 1149 m 1
 623 1149 l 1
 614 1230 563 1272 497 1272 c 0
 430 1272 380 1230 370 1149 c 1
 226 1149 l 1
 234 1308 373 1400 498 1400 c 0
 622 1400 761 1308 767 1149 c 1
100 335 m 2
 100 996 l 1
 279 996 l 1
 279 325 l 2
 279 183 358 126 452 126 c 0
 551 126 662 186 718 271 c 1
 718 996 l 1
 895 996 l 1
 895 0 l 1
 720 0 l 1
 720 129 l 1
 633 31 524 -19 418 -19 c 0
 252 -19 100 100 100 335 c 2
EndSplineSet
EndChar

StartChar: uni021A
Encoding: 538 538 318
Width: 1312
VWidth: 0
Flags: HW
LayerCount: 2
Fore
SplineSet
556 -604 m 1
 533 -578 l 1
 594 -523 618 -471 618 -392 c 1
 550 -374 519 -321 519 -269 c 0
 519 -178 584 -132 652 -132 c 0
 720 -132 793 -177 793 -278 c 0
 793 -412 660 -604 556 -604 c 1
1273 1517 m 1
 1273 1342 l 1
 751 1342 l 1
 751 0 l 1
 559 0 l 1
 559 1342 l 1
 39 1342 l 1
 39 1517 l 1
 1273 1517 l 1
EndSplineSet
EndChar

StartChar: uni021B
Encoding: 539 539 319
Width: 747
VWidth: 0
Flags: HW
LayerCount: 2
Fore
SplineSet
255 -626 m 1
 232 -601 l 1
 293 -544 317 -494 317 -414 c 1
 249 -395 218 -343 218 -290 c 0
 218 -200 283 -153 351 -153 c 0
 419 -153 492 -199 492 -299 c 0
 492 -433 359 -626 255 -626 c 1
165 234 m 2
 165 859 l 1
 35 859 l 2
 20 859 8 865 8 873 c 0
 8 879 12 888 17 895 c 2
 323 1238 l 1
 343 1238 l 1
 343 996 l 1
 651 996 l 1
 651 859 l 1
 343 859 l 1
 343 263 l 2
 343 163 402 129 475 129 c 0
 545 129 633 172 702 219 c 1
 702 61 l 1
 629 5 538 -21 451 -21 c 0
 298 -21 165 72 165 234 c 2
EndSplineSet
EndChar

StartChar: uni0237
Encoding: 567 567 320
Width: 508
VWidth: 0
Flags: HW
LayerCount: 2
Fore
SplineSet
54 -385 m 1
 26 -242 l 1
 215 -242 214 -112 214 3 c 2
 214 1017 l 1
 400 1017 l 1
 400 -79 l 2
 400 -173 361 -385 54 -385 c 1
EndSplineSet
EndChar

StartChar: uni030F
Encoding: 783 783 321
Width: 730
VWidth: 0
Flags: HW
LayerCount: 2
Fore
SplineSet
685 162 m 1
 688 155 688 146 688 142 c 0
 688 134 684 127 680 127 c 0
 673 127 665 134 655 148 c 2
 432 439 l 2
 409 470 400 500 400 524 c 0
 400 577 444 611 490 611 c 0
 529 611 570 587 588 524 c 1
 685 162 l 1
328 162 m 1
 331 155 331 146 331 142 c 0
 331 134 327 127 322 127 c 0
 317 127 305 134 296 148 c 1
 75 439 l 2
 51 470 44 500 44 524 c 0
 44 577 87 611 132 611 c 0
 171 611 211 587 231 524 c 1
 328 162 l 1
EndSplineSet
EndChar

StartChar: uni0311
Encoding: 785 785 322
Width: 653
VWidth: 0
Flags: HW
LayerCount: 2
Fore
SplineSet
596 174 m 1
 453 174 l 1
 444 256 394 299 326 299 c 0
 259 299 209 256 200 174 c 1
 57 174 l 1
 63 334 203 426 327 426 c 0
 451 426 590 334 596 174 c 1
EndSplineSet
EndChar

StartChar: uniFB01
Encoding: 64257 64257 323
Width: 1023
VWidth: 0
Flags: HW
LayerCount: 2
Fore
SplineSet
906 996 m 1
 906 1 l 1
 728 1 l 1
 728 854 l 1
 340 854 l 1
 340 1 l 1
 163 1 l 1
 163 859 l 1
 27 859 l 1
 27 998 l 1
 157 998 l 1
 157 1073 l 2
 157 1301 271 1433 447 1433 c 0
 495 1433 546 1424 601 1405 c 1
 601 1245 l 1
 557 1264 517 1276 482 1276 c 0
 398 1276 340 1215 340 1072 c 2
 340 996 l 1
 906 996 l 1
817 1154 m 0
 736 1154 692 1213 692 1275 c 0
 692 1336 736 1395 817 1395 c 0
 899 1395 943 1336 943 1275 c 0
 943 1213 899 1154 817 1154 c 0
EndSplineSet
EndChar

StartChar: uniFB02
Encoding: 64258 64258 324
Width: 1235
VWidth: 0
Flags: HW
LayerCount: 2
Fore
SplineSet
163 0 m 1
 163 858 l 1
 27 858 l 1
 27 996 l 1
 157 996 l 1
 157 1071 l 2
 157 1343 327 1430 541 1430 c 0
 661 1430 797 1404 921 1366 c 1
 920 302 l 2
 920 172 968 128 1033 128 c 0
 1086 128 1147 156 1205 187 c 1
 1205 35 l 1
 1147 0 1078 -20 1011 -20 c 0
 871 -20 742 72 742 272 c 2
 744 1247 l 1
 684 1263 620 1274 564 1274 c 0
 442 1274 340 1223 340 1071 c 2
 340 996 l 1
 519 996 l 1
 519 852 l 1
 340 852 l 1
 340 0 l 1
 163 0 l 1
EndSplineSet
EndChar

StartChar: uogonek
Encoding: 371 371 325
Width: 1003
VWidth: 0
Flags: HW
LayerCount: 2
Fore
SplineSet
500.599177298 -8.12283295619 m 1
 527 -50 l 1
 451 -76 411 -127 411 -176 c 0
 411 -239 474 -300 597 -300 c 2
 599 -300 l 1
 569 -426 l 1
 555 -429 539 -430 526 -430 c 0
 385 -430 292 -322 292 -210 c 0
 291.999999998 -129.094373403 332.547639825 -49.3991236935 415.996917919 -17.9942200684 c 1
 250.779275294 -17.040496484 100 101.945554607 100 336 c 2
 100 998 l 1
 279 998 l 1
 279 325 l 2
 279 183 358 127 452 127 c 0
 551 127 662 187 718 272 c 1
 718 998 l 1
 895 998 l 1
 895 0 l 1
 720 0 l 1
 720 129 l 1
 655.55157013 56.4029180777 579.030316574 10.6953070923 500.599177298 -8.12283295619 c 1
EndSplineSet
EndChar

StartChar: uring
Encoding: 367 367 326
Width: 1003
VWidth: 0
Flags: HW
LayerCount: 2
Fore
SplineSet
371 1366 m 0
 371 1290 436 1250 498 1250 c 0
 560 1250 619 1290 619 1366 c 0
 619 1444 558 1480 497 1480 c 0
 434 1480 371 1444 371 1366 c 0
734 1366 m 0
 734 1221 617 1148 497 1148 c 0
 377 1148 259 1223 259 1367 c 0
 259 1510 377 1582 498 1582 c 0
 617 1582 734 1510 734 1366 c 0
100 336 m 2
 100 998 l 1
 279 998 l 1
 279 325 l 2
 279 183 358 127 452 127 c 0
 551 127 662 186 718 272 c 1
 718 998 l 1
 895 998 l 1
 895 0 l 1
 720 0 l 1
 720 129 l 1
 633 31 524 -18 418 -18 c 0
 252 -18 100 101 100 336 c 2
EndSplineSet
EndChar

StartChar: utilde
Encoding: 361 361 327
Width: 1003
VWidth: 0
Flags: HW
LayerCount: 2
Fore
SplineSet
268 1219 m 0
 213 1219 180 1174 164 1174 c 0
 156 1174 149 1180 149 1187 c 0
 149 1192 151 1196 156 1203 c 0
 208 1289 267 1348 359 1348 c 0
 486 1348 643 1258 727 1258 c 0
 785 1258 817 1305 834 1305 c 0
 842 1305 846 1300 846 1292 c 0
 846 1287 844 1283 842 1276 c 1
 782 1190 715 1131 614 1131 c 0
 523 1131 382 1219 268 1219 c 0
100 335 m 2
 100 997 l 1
 279 997 l 1
 279 324 l 2
 279 181 358 126 452 126 c 0
 551 126 662 187 718 271 c 1
 718 997 l 1
 895 997 l 1
 895 0 l 1
 720 0 l 1
 720 130 l 1
 633 31 524 -19 418 -19 c 0
 252 -19 100 101 100 335 c 2
EndSplineSet
EndChar

StartChar: v
Encoding: 118 118 328
Width: 1002
VWidth: 0
Flags: HW
LayerCount: 2
Fore
SplineSet
501 341 m 1
 765 998 l 1
 968 998 l 1
 514 0 l 1
 484 0 l 1
 34 998 l 1
 234 998 l 1
 501 341 l 1
EndSplineSet
EndChar

StartChar: w
Encoding: 119 119 329
Width: 1375
VWidth: 0
Flags: HW
LayerCount: 2
Fore
SplineSet
983 392 m 1
 1149 998 l 1
 1334 998 l 1
 1010 0 l 1
 973 0 l 1
 692 761 l 1
 408 0 l 1
 365 0 l 1
 41 998 l 1
 242 998 l 1
 397 398 l 1
 604 998 l 1
 769 998 l 1
 983 392 l 1
EndSplineSet
EndChar

StartChar: x
Encoding: 120 120 330
Width: 1066
VWidth: 0
Flags: HW
LayerCount: 2
Fore
SplineSet
1037 0 m 1
 833 0 l 1
 538 368 l 1
 257 0 l 1
 29 0 l 1
 426 513 l 1
 41 998 l 1
 246 998 l 1
 528 643 l 1
 800 998 l 1
 1023 998 l 1
 640 499 l 1
 1037 0 l 1
EndSplineSet
EndChar

StartChar: y
Encoding: 121 121 331
Width: 1003
VWidth: 0
Flags: HW
LayerCount: 2
Fore
SplineSet
203 -268 m 1
 434 246 l 1
 45 997 l 1
 263 997 l 1
 535 406 l 1
 800 997 l 1
 993 997 l 1
 400 -268 l 1
 203 -268 l 1
EndSplineSet
EndChar

StartChar: yacute
Encoding: 253 253 332
Width: 1003
VWidth: 0
Flags: HW
LayerCount: 2
Fore
SplineSet
377 1182 m 2
 474 1546 l 1
 492 1609 532 1633 572 1633 c 0
 617 1633 663 1599 663 1546 c 0
 663 1521 652 1492 629 1460 c 2
 408 1168 l 1
 399 1154 388 1149 384 1149 c 0
 377 1149 374 1154 374 1164 c 0
 374 1167 375 1177 377 1182 c 2
203 -268 m 1
 434 245 l 1
 45 996 l 1
 263 996 l 1
 535 405 l 1
 800 996 l 1
 993 996 l 1
 400 -268 l 1
 203 -268 l 1
EndSplineSet
EndChar

StartChar: ydieresis
Encoding: 255 255 333
Width: 1003
VWidth: 0
Flags: HW
LayerCount: 2
Fore
SplineSet
589 1260 m 0
 589 1340 649 1381 706 1381 c 0
 765 1381 823 1340 823 1260 c 0
 823 1184 765 1148 706 1148 c 0
 649 1148 589 1186 589 1260 c 0
214 1260 m 0
 214 1340 272 1381 330 1381 c 0
 388 1381 448 1340 448 1260 c 0
 448 1184 388 1148 330 1148 c 0
 272 1148 214 1186 214 1260 c 0
203 -269 m 1
 434 246 l 1
 45 997 l 1
 263 997 l 1
 535 407 l 1
 800 997 l 1
 993 997 l 1
 400 -269 l 1
 203 -269 l 1
EndSplineSet
EndChar

StartChar: yen
Encoding: 165 165 334
Width: 1266
VWidth: 0
Flags: HW
LayerCount: 2
Fore
SplineSet
529 0 m 1
 529 411 l 1
 41 411 l 1
 41 568 l 1
 529 568 l 1
 529 706 l 1
 41 706 l 1
 41 863 l 1
 486.091420534 863 l 1
 3 1516 l 1
 239 1516 l 1
 630 957 l 1
 1038 1516 l 1
 1259 1516 l 1
 783.594142259 863 l 1
 1221 863 l 1
 1221 706 l 1
 737 706 l 1
 737 568 l 1
 1221 568 l 1
 1221 411 l 1
 737 411 l 1
 737 0 l 1
 529 0 l 1
EndSplineSet
EndChar

StartChar: z
Encoding: 122 122 335
Width: 904
VWidth: 0
Flags: HW
LayerCount: 2
Fore
SplineSet
104 998 m 1
 812 998 l 1
 830 951 l 1
 329 140 l 1
 816 140 l 1
 816 0 l 1
 75 0 l 1
 65 35 l 1
 567 857 l 1
 104 857 l 1
 104 998 l 1
EndSplineSet
EndChar

StartChar: zacute
Encoding: 378 378 336
Width: 904
VWidth: 0
Flags: HW
LayerCount: 2
Fore
SplineSet
304 1182 m 2
 400 1545 l 1
 419 1607 459 1631 499 1631 c 0
 544 1631 590 1599 590 1545 c 0
 590 1521 579 1492 556 1459 c 1
 334 1168 l 1
 325 1154 315 1149 310 1149 c 0
 304 1149 301 1154 301 1164 c 0
 301 1167 302 1177 304 1182 c 2
104 996 m 1
 812 996 l 1
 830 951 l 1
 329 139 l 1
 816 139 l 1
 816 0 l 1
 75 0 l 1
 65 32 l 1
 567 854 l 1
 104 854 l 1
 104 996 l 1
EndSplineSet
EndChar

StartChar: zcaron
Encoding: 382 382 337
Width: 904
VWidth: 0
Flags: HW
LayerCount: 2
Fore
SplineSet
444 1369 m 1
 740 1575 l 2
 741 1576 741 1576 743 1576 c 0
 747 1576 748 1575 748 1574 c 0
 748 1573 748 1572 747 1572 c 2
 480 1164 l 1
 474 1157 458 1149 444 1149 c 0
 430 1149 413 1157 407 1164 c 1
 142 1572 l 1
 142 1574 l 2
 142 1575 143 1576 144 1576 c 0
 145 1576 147 1576 148 1575 c 2
 444 1369 l 1
104 999 m 1
 812 999 l 1
 830 952 l 1
 329 141 l 1
 816 141 l 1
 816 0 l 1
 75 0 l 1
 65 35 l 1
 567 857 l 1
 104 857 l 1
 104 999 l 1
EndSplineSet
EndChar

StartChar: zdotaccent
Encoding: 380 380 338
Width: 904
VWidth: 0
Flags: HW
LayerCount: 2
Fore
SplineSet
315 1275 m 0
 315 1365 379 1408 445 1408 c 0
 509 1408 574 1363 574 1275 c 0
 574 1190 509 1149 445 1149 c 0
 379 1149 315 1190 315 1275 c 0
104 996 m 1
 812 996 l 1
 830 951 l 1
 329 139 l 1
 816 139 l 1
 816 0 l 1
 75 0 l 1
 65 33 l 1
 567 857 l 1
 104 857 l 1
 104 996 l 1
EndSplineSet
EndChar

StartChar: zero
Encoding: 48 48 339
Width: 1239
VWidth: 0
Flags: HW
LayerCount: 2
Fore
SplineSet
620 -19 m 0
 252 -19 101 318 101 758 c 0
 101 1220 266 1536 620 1536 c 0
 974 1536 1138 1220 1138 758 c 0
 1138 318 988 -19 620 -19 c 0
620 1380 m 0
 409 1380 294 1121 294 764 c 0
 294 403 409 137 620 137 c 0
 832 137 947 403 947 764 c 0
 947 1121 832 1380 620 1380 c 0
EndSplineSet
EndChar
